<svg xmlns="http://www.w3.org/2000/svg" xmlns:xlink="http://www.w3.org/1999/xlink" width="70" zoomAndPan="magnify" viewBox="0 0 52.5 52.499999" height="70" preserveAspectRatio="xMidYMid meet" version="1.0"><defs><filter x="0%" y="0%" width="100%" height="100%" id="4f41540549"><feColorMatrix values="0 0 0 0 1 0 0 0 0 1 0 0 0 0 1 0 0 0 1 0" color-interpolation-filters="sRGB"/></filter><mask id="617b19bb77"><g filter="url(#4f41540549)"><rect x="-5.25" width="63" fill="#000000" y="-5.25" height="62.999999" fill-opacity="0.56"/></g></mask><clipPath id="05a0478000"><path d="M 0.445312 0.445312 L 51.558594 0.445312 L 51.558594 51.558594 L 0.445312 51.558594 Z M 0.445312 0.445312 " clip-rule="nonzero"/></clipPath><clipPath id="3a3cc6bb3b"><path d="M 26.003906 0.445312 C 11.886719 0.445312 0.445312 11.886719 0.445312 26.003906 C 0.445312 40.117188 11.886719 51.558594 26.003906 51.558594 C 40.117188 51.558594 51.558594 40.117188 51.558594 26.003906 C 51.558594 11.886719 40.117188 0.445312 26.003906 0.445312 Z M 26.003906 0.445312 " clip-rule="nonzero"/></clipPath><linearGradient x1="0" gradientTransform="matrix(0.199661, 0, 0, 0.199661, 0.445755, 0.445756)" y1="0" x2="256" gradientUnits="userSpaceOnUse" y2="0" id="d925d72afe"><stop stop-opacity="1" stop-color="rgb(14.099121%, 60.398865%, 46.699524%)" offset="0"/><stop stop-opacity="1" stop-color="rgb(14.27002%, 60.446167%, 46.907043%)" offset="0.00390625"/><stop stop-opacity="1" stop-color="rgb(14.442444%, 60.493469%, 47.116089%)" offset="0.0078125"/><stop stop-opacity="1" stop-color="rgb(14.613342%, 60.540771%, 47.323608%)" offset="0.0117188"/><stop stop-opacity="1" stop-color="rgb(14.785767%, 60.588074%, 47.532654%)" offset="0.015625"/><stop stop-opacity="1" stop-color="rgb(14.956665%, 60.635376%, 47.740173%)" offset="0.0195313"/><stop stop-opacity="1" stop-color="rgb(15.127563%, 60.682678%, 47.949219%)" offset="0.0234375"/><stop stop-opacity="1" stop-color="rgb(15.298462%, 60.72998%, 48.156738%)" offset="0.0273438"/><stop stop-opacity="1" stop-color="rgb(15.470886%, 60.777283%, 48.364258%)" offset="0.03125"/><stop stop-opacity="1" stop-color="rgb(15.641785%, 60.824585%, 48.571777%)" offset="0.0351563"/><stop stop-opacity="1" stop-color="rgb(15.814209%, 60.871887%, 48.780823%)" offset="0.0390625"/><stop stop-opacity="1" stop-color="rgb(15.985107%, 60.919189%, 48.988342%)" offset="0.0429688"/><stop stop-opacity="1" stop-color="rgb(16.157532%, 60.966492%, 49.197388%)" offset="0.046875"/><stop stop-opacity="1" stop-color="rgb(16.32843%, 61.013794%, 49.404907%)" offset="0.0507812"/><stop stop-opacity="1" stop-color="rgb(16.499329%, 61.061096%, 49.613953%)" offset="0.0546875"/><stop stop-opacity="1" stop-color="rgb(16.670227%, 61.108398%, 49.821472%)" offset="0.0585938"/><stop stop-opacity="1" stop-color="rgb(16.842651%, 61.155701%, 50.030518%)" offset="0.0625"/><stop stop-opacity="1" stop-color="rgb(17.01355%, 61.203003%, 50.238037%)" offset="0.0664063"/><stop stop-opacity="1" stop-color="rgb(17.185974%, 61.250305%, 50.447083%)" offset="0.0703125"/><stop stop-opacity="1" stop-color="rgb(17.356873%, 61.297607%, 50.654602%)" offset="0.0742188"/><stop stop-opacity="1" stop-color="rgb(17.529297%, 61.34491%, 50.863647%)" offset="0.078125"/><stop stop-opacity="1" stop-color="rgb(17.700195%, 61.392212%, 51.071167%)" offset="0.0820313"/><stop stop-opacity="1" stop-color="rgb(17.87262%, 61.439514%, 51.280212%)" offset="0.0859375"/><stop stop-opacity="1" stop-color="rgb(18.043518%, 61.486816%, 51.487732%)" offset="0.0898438"/><stop stop-opacity="1" stop-color="rgb(18.214417%, 61.534119%, 51.696777%)" offset="0.09375"/><stop stop-opacity="1" stop-color="rgb(18.385315%, 61.581421%, 51.904297%)" offset="0.0976562"/><stop stop-opacity="1" stop-color="rgb(18.557739%, 61.628723%, 52.111816%)" offset="0.101562"/><stop stop-opacity="1" stop-color="rgb(18.728638%, 61.676025%, 52.319336%)" offset="0.105469"/><stop stop-opacity="1" stop-color="rgb(18.901062%, 61.723328%, 52.528381%)" offset="0.109375"/><stop stop-opacity="1" stop-color="rgb(19.07196%, 61.77063%, 52.735901%)" offset="0.113281"/><stop stop-opacity="1" stop-color="rgb(19.244385%, 61.817932%, 52.944946%)" offset="0.117188"/><stop stop-opacity="1" stop-color="rgb(19.415283%, 61.863708%, 53.152466%)" offset="0.121094"/><stop stop-opacity="1" stop-color="rgb(19.586182%, 61.911011%, 53.361511%)" offset="0.125"/><stop stop-opacity="1" stop-color="rgb(19.75708%, 61.958313%, 53.569031%)" offset="0.128906"/><stop stop-opacity="1" stop-color="rgb(19.929504%, 62.005615%, 53.778076%)" offset="0.132813"/><stop stop-opacity="1" stop-color="rgb(20.100403%, 62.052917%, 53.985596%)" offset="0.136719"/><stop stop-opacity="1" stop-color="rgb(20.272827%, 62.10022%, 54.194641%)" offset="0.140625"/><stop stop-opacity="1" stop-color="rgb(20.443726%, 62.147522%, 54.402161%)" offset="0.144531"/><stop stop-opacity="1" stop-color="rgb(20.61615%, 62.194824%, 54.611206%)" offset="0.148438"/><stop stop-opacity="1" stop-color="rgb(20.787048%, 62.242126%, 54.818726%)" offset="0.152344"/><stop stop-opacity="1" stop-color="rgb(20.957947%, 62.289429%, 55.027771%)" offset="0.15625"/><stop stop-opacity="1" stop-color="rgb(21.128845%, 62.336731%, 55.235291%)" offset="0.160156"/><stop stop-opacity="1" stop-color="rgb(21.30127%, 62.384033%, 55.444336%)" offset="0.164063"/><stop stop-opacity="1" stop-color="rgb(21.472168%, 62.431335%, 55.651855%)" offset="0.167969"/><stop stop-opacity="1" stop-color="rgb(21.644592%, 62.478638%, 55.860901%)" offset="0.171875"/><stop stop-opacity="1" stop-color="rgb(21.815491%, 62.52594%, 56.06842%)" offset="0.175781"/><stop stop-opacity="1" stop-color="rgb(21.987915%, 62.573242%, 56.27594%)" offset="0.179688"/><stop stop-opacity="1" stop-color="rgb(22.158813%, 62.620544%, 56.483459%)" offset="0.183594"/><stop stop-opacity="1" stop-color="rgb(22.331238%, 62.667847%, 56.692505%)" offset="0.1875"/><stop stop-opacity="1" stop-color="rgb(22.502136%, 62.715149%, 56.900024%)" offset="0.191406"/><stop stop-opacity="1" stop-color="rgb(22.673035%, 62.762451%, 57.10907%)" offset="0.195312"/><stop stop-opacity="1" stop-color="rgb(22.843933%, 62.809753%, 57.316589%)" offset="0.199219"/><stop stop-opacity="1" stop-color="rgb(23.016357%, 62.857056%, 57.525635%)" offset="0.203125"/><stop stop-opacity="1" stop-color="rgb(23.187256%, 62.904358%, 57.733154%)" offset="0.207031"/><stop stop-opacity="1" stop-color="rgb(23.35968%, 62.95166%, 57.9422%)" offset="0.210938"/><stop stop-opacity="1" stop-color="rgb(23.530579%, 62.998962%, 58.149719%)" offset="0.214844"/><stop stop-opacity="1" stop-color="rgb(23.703003%, 63.046265%, 58.358765%)" offset="0.21875"/><stop stop-opacity="1" stop-color="rgb(23.873901%, 63.093567%, 58.566284%)" offset="0.222656"/><stop stop-opacity="1" stop-color="rgb(24.0448%, 63.140869%, 58.77533%)" offset="0.226562"/><stop stop-opacity="1" stop-color="rgb(24.215698%, 63.188171%, 58.982849%)" offset="0.230469"/><stop stop-opacity="1" stop-color="rgb(24.388123%, 63.235474%, 59.191895%)" offset="0.234375"/><stop stop-opacity="1" stop-color="rgb(24.559021%, 63.282776%, 59.399414%)" offset="0.238281"/><stop stop-opacity="1" stop-color="rgb(24.731445%, 63.330078%, 59.608459%)" offset="0.242188"/><stop stop-opacity="1" stop-color="rgb(24.902344%, 63.37738%, 59.815979%)" offset="0.246094"/><stop stop-opacity="1" stop-color="rgb(25.074768%, 63.424683%, 60.023499%)" offset="0.25"/><stop stop-opacity="1" stop-color="rgb(25.245667%, 63.471985%, 60.231018%)" offset="0.253906"/><stop stop-opacity="1" stop-color="rgb(25.416565%, 63.519287%, 60.440063%)" offset="0.257813"/><stop stop-opacity="1" stop-color="rgb(25.587463%, 63.566589%, 60.647583%)" offset="0.261719"/><stop stop-opacity="1" stop-color="rgb(25.759888%, 63.613892%, 60.856628%)" offset="0.265625"/><stop stop-opacity="1" stop-color="rgb(25.930786%, 63.661194%, 61.064148%)" offset="0.269531"/><stop stop-opacity="1" stop-color="rgb(26.10321%, 63.708496%, 61.273193%)" offset="0.273438"/><stop stop-opacity="1" stop-color="rgb(26.274109%, 63.755798%, 61.480713%)" offset="0.277344"/><stop stop-opacity="1" stop-color="rgb(26.446533%, 63.803101%, 61.689758%)" offset="0.28125"/><stop stop-opacity="1" stop-color="rgb(26.617432%, 63.848877%, 61.897278%)" offset="0.285156"/><stop stop-opacity="1" stop-color="rgb(26.78833%, 63.896179%, 62.106323%)" offset="0.289063"/><stop stop-opacity="1" stop-color="rgb(26.959229%, 63.943481%, 62.313843%)" offset="0.292969"/><stop stop-opacity="1" stop-color="rgb(27.131653%, 63.990784%, 62.522888%)" offset="0.296875"/><stop stop-opacity="1" stop-color="rgb(27.302551%, 64.038086%, 62.730408%)" offset="0.300781"/><stop stop-opacity="1" stop-color="rgb(27.474976%, 64.085388%, 62.939453%)" offset="0.304688"/><stop stop-opacity="1" stop-color="rgb(27.645874%, 64.13269%, 63.146973%)" offset="0.308594"/><stop stop-opacity="1" stop-color="rgb(27.818298%, 64.179993%, 63.356018%)" offset="0.3125"/><stop stop-opacity="1" stop-color="rgb(27.989197%, 64.227295%, 63.563538%)" offset="0.316406"/><stop stop-opacity="1" stop-color="rgb(28.161621%, 64.274597%, 63.772583%)" offset="0.320313"/><stop stop-opacity="1" stop-color="rgb(28.33252%, 64.321899%, 63.980103%)" offset="0.324219"/><stop stop-opacity="1" stop-color="rgb(28.503418%, 64.369202%, 64.187622%)" offset="0.328125"/><stop stop-opacity="1" stop-color="rgb(28.674316%, 64.416504%, 64.395142%)" offset="0.332031"/><stop stop-opacity="1" stop-color="rgb(28.846741%, 64.463806%, 64.604187%)" offset="0.335938"/><stop stop-opacity="1" stop-color="rgb(29.017639%, 64.511108%, 64.811707%)" offset="0.339844"/><stop stop-opacity="1" stop-color="rgb(29.190063%, 64.558411%, 65.020752%)" offset="0.34375"/><stop stop-opacity="1" stop-color="rgb(29.360962%, 64.605713%, 65.228271%)" offset="0.347656"/><stop stop-opacity="1" stop-color="rgb(29.533386%, 64.653015%, 65.437317%)" offset="0.351563"/><stop stop-opacity="1" stop-color="rgb(29.704285%, 64.700317%, 65.644836%)" offset="0.355469"/><stop stop-opacity="1" stop-color="rgb(29.875183%, 64.74762%, 65.853882%)" offset="0.359375"/><stop stop-opacity="1" stop-color="rgb(30.046082%, 64.794922%, 66.061401%)" offset="0.363281"/><stop stop-opacity="1" stop-color="rgb(30.218506%, 64.842224%, 66.270447%)" offset="0.367188"/><stop stop-opacity="1" stop-color="rgb(30.389404%, 64.889526%, 66.477966%)" offset="0.371094"/><stop stop-opacity="1" stop-color="rgb(30.561829%, 64.936829%, 66.687012%)" offset="0.375"/><stop stop-opacity="1" stop-color="rgb(30.732727%, 64.984131%, 66.894531%)" offset="0.378906"/><stop stop-opacity="1" stop-color="rgb(30.905151%, 65.031433%, 67.103577%)" offset="0.382812"/><stop stop-opacity="1" stop-color="rgb(31.07605%, 65.078735%, 67.311096%)" offset="0.386719"/><stop stop-opacity="1" stop-color="rgb(31.246948%, 65.126038%, 67.520142%)" offset="0.390625"/><stop stop-opacity="1" stop-color="rgb(31.417847%, 65.17334%, 67.727661%)" offset="0.394531"/><stop stop-opacity="1" stop-color="rgb(31.590271%, 65.220642%, 67.936707%)" offset="0.398438"/><stop stop-opacity="1" stop-color="rgb(31.761169%, 65.267944%, 68.144226%)" offset="0.402344"/><stop stop-opacity="1" stop-color="rgb(31.933594%, 65.315247%, 68.351746%)" offset="0.40625"/><stop stop-opacity="1" stop-color="rgb(32.104492%, 65.362549%, 68.559265%)" offset="0.410156"/><stop stop-opacity="1" stop-color="rgb(32.276917%, 65.409851%, 68.768311%)" offset="0.414062"/><stop stop-opacity="1" stop-color="rgb(32.447815%, 65.457153%, 68.97583%)" offset="0.417969"/><stop stop-opacity="1" stop-color="rgb(32.620239%, 65.504456%, 69.184875%)" offset="0.421875"/><stop stop-opacity="1" stop-color="rgb(32.791138%, 65.551758%, 69.392395%)" offset="0.425781"/><stop stop-opacity="1" stop-color="rgb(32.962036%, 65.59906%, 69.60144%)" offset="0.429688"/><stop stop-opacity="1" stop-color="rgb(33.132935%, 65.646362%, 69.80896%)" offset="0.433594"/><stop stop-opacity="1" stop-color="rgb(33.305359%, 65.693665%, 70.018005%)" offset="0.4375"/><stop stop-opacity="1" stop-color="rgb(33.476257%, 65.740967%, 70.225525%)" offset="0.441406"/><stop stop-opacity="1" stop-color="rgb(33.648682%, 65.788269%, 70.43457%)" offset="0.445312"/><stop stop-opacity="1" stop-color="rgb(33.81958%, 65.834045%, 70.64209%)" offset="0.449219"/><stop stop-opacity="1" stop-color="rgb(33.992004%, 65.881348%, 70.851135%)" offset="0.453125"/><stop stop-opacity="1" stop-color="rgb(34.162903%, 65.92865%, 71.058655%)" offset="0.457031"/><stop stop-opacity="1" stop-color="rgb(34.333801%, 65.975952%, 71.2677%)" offset="0.460938"/><stop stop-opacity="1" stop-color="rgb(34.5047%, 66.023254%, 71.47522%)" offset="0.464844"/><stop stop-opacity="1" stop-color="rgb(34.677124%, 66.070557%, 71.684265%)" offset="0.46875"/><stop stop-opacity="1" stop-color="rgb(34.848022%, 66.117859%, 71.891785%)" offset="0.472656"/><stop stop-opacity="1" stop-color="rgb(35.020447%, 66.165161%, 72.099304%)" offset="0.476562"/><stop stop-opacity="1" stop-color="rgb(35.191345%, 66.212463%, 72.306824%)" offset="0.480469"/><stop stop-opacity="1" stop-color="rgb(35.36377%, 66.259766%, 72.515869%)" offset="0.484375"/><stop stop-opacity="1" stop-color="rgb(35.534668%, 66.307068%, 72.723389%)" offset="0.488281"/><stop stop-opacity="1" stop-color="rgb(35.705566%, 66.35437%, 72.932434%)" offset="0.492188"/><stop stop-opacity="1" stop-color="rgb(35.876465%, 66.401672%, 73.139954%)" offset="0.496094"/><stop stop-opacity="1" stop-color="rgb(36.048889%, 66.448975%, 73.348999%)" offset="0.5"/><stop stop-opacity="1" stop-color="rgb(36.219788%, 66.496277%, 73.556519%)" offset="0.503906"/><stop stop-opacity="1" stop-color="rgb(36.392212%, 66.543579%, 73.765564%)" offset="0.507813"/><stop stop-opacity="1" stop-color="rgb(36.56311%, 66.590881%, 73.973083%)" offset="0.511719"/><stop stop-opacity="1" stop-color="rgb(36.735535%, 66.638184%, 74.182129%)" offset="0.515625"/><stop stop-opacity="1" stop-color="rgb(36.906433%, 66.685486%, 74.389648%)" offset="0.519531"/><stop stop-opacity="1" stop-color="rgb(37.078857%, 66.732788%, 74.598694%)" offset="0.523438"/><stop stop-opacity="1" stop-color="rgb(37.249756%, 66.78009%, 74.806213%)" offset="0.527344"/><stop stop-opacity="1" stop-color="rgb(37.420654%, 66.827393%, 75.015259%)" offset="0.53125"/><stop stop-opacity="1" stop-color="rgb(37.591553%, 66.874695%, 75.222778%)" offset="0.535156"/><stop stop-opacity="1" stop-color="rgb(37.763977%, 66.921997%, 75.431824%)" offset="0.539063"/><stop stop-opacity="1" stop-color="rgb(37.934875%, 66.969299%, 75.639343%)" offset="0.542969"/><stop stop-opacity="1" stop-color="rgb(38.1073%, 67.016602%, 75.848389%)" offset="0.546875"/><stop stop-opacity="1" stop-color="rgb(38.278198%, 67.063904%, 76.055908%)" offset="0.550781"/><stop stop-opacity="1" stop-color="rgb(38.450623%, 67.111206%, 76.263428%)" offset="0.554688"/><stop stop-opacity="1" stop-color="rgb(38.621521%, 67.158508%, 76.470947%)" offset="0.558594"/><stop stop-opacity="1" stop-color="rgb(38.792419%, 67.205811%, 76.679993%)" offset="0.5625"/><stop stop-opacity="1" stop-color="rgb(38.963318%, 67.253113%, 76.887512%)" offset="0.566406"/><stop stop-opacity="1" stop-color="rgb(39.135742%, 67.300415%, 77.096558%)" offset="0.570313"/><stop stop-opacity="1" stop-color="rgb(39.306641%, 67.347717%, 77.304077%)" offset="0.574219"/><stop stop-opacity="1" stop-color="rgb(39.479065%, 67.39502%, 77.513123%)" offset="0.578125"/><stop stop-opacity="1" stop-color="rgb(39.649963%, 67.442322%, 77.720642%)" offset="0.582031"/><stop stop-opacity="1" stop-color="rgb(39.822388%, 67.489624%, 77.929688%)" offset="0.585938"/><stop stop-opacity="1" stop-color="rgb(39.993286%, 67.536926%, 78.137207%)" offset="0.589844"/><stop stop-opacity="1" stop-color="rgb(40.164185%, 67.584229%, 78.346252%)" offset="0.59375"/><stop stop-opacity="1" stop-color="rgb(40.335083%, 67.631531%, 78.553772%)" offset="0.597656"/><stop stop-opacity="1" stop-color="rgb(40.507507%, 67.678833%, 78.762817%)" offset="0.601563"/><stop stop-opacity="1" stop-color="rgb(40.678406%, 67.726135%, 78.970337%)" offset="0.605469"/><stop stop-opacity="1" stop-color="rgb(40.85083%, 67.773438%, 79.179382%)" offset="0.609375"/><stop stop-opacity="1" stop-color="rgb(41.021729%, 67.819214%, 79.386902%)" offset="0.613281"/><stop stop-opacity="1" stop-color="rgb(41.194153%, 67.866516%, 79.595947%)" offset="0.617188"/><stop stop-opacity="1" stop-color="rgb(41.365051%, 67.913818%, 79.803467%)" offset="0.621094"/><stop stop-opacity="1" stop-color="rgb(41.537476%, 67.961121%, 80.010986%)" offset="0.625"/><stop stop-opacity="1" stop-color="rgb(41.708374%, 68.008423%, 80.218506%)" offset="0.628906"/><stop stop-opacity="1" stop-color="rgb(41.879272%, 68.055725%, 80.427551%)" offset="0.632813"/><stop stop-opacity="1" stop-color="rgb(42.050171%, 68.103027%, 80.635071%)" offset="0.636719"/><stop stop-opacity="1" stop-color="rgb(42.222595%, 68.15033%, 80.844116%)" offset="0.640625"/><stop stop-opacity="1" stop-color="rgb(42.393494%, 68.197632%, 81.051636%)" offset="0.644531"/><stop stop-opacity="1" stop-color="rgb(42.565918%, 68.244934%, 81.260681%)" offset="0.648438"/><stop stop-opacity="1" stop-color="rgb(42.736816%, 68.292236%, 81.468201%)" offset="0.652344"/><stop stop-opacity="1" stop-color="rgb(42.909241%, 68.339539%, 81.677246%)" offset="0.65625"/><stop stop-opacity="1" stop-color="rgb(43.080139%, 68.386841%, 81.884766%)" offset="0.660156"/><stop stop-opacity="1" stop-color="rgb(43.251038%, 68.434143%, 82.093811%)" offset="0.664063"/><stop stop-opacity="1" stop-color="rgb(43.421936%, 68.481445%, 82.301331%)" offset="0.667969"/><stop stop-opacity="1" stop-color="rgb(43.59436%, 68.528748%, 82.510376%)" offset="0.671875"/><stop stop-opacity="1" stop-color="rgb(43.765259%, 68.57605%, 82.717896%)" offset="0.675781"/><stop stop-opacity="1" stop-color="rgb(43.937683%, 68.623352%, 82.926941%)" offset="0.679688"/><stop stop-opacity="1" stop-color="rgb(44.108582%, 68.670654%, 83.13446%)" offset="0.683594"/><stop stop-opacity="1" stop-color="rgb(44.281006%, 68.717957%, 83.343506%)" offset="0.6875"/><stop stop-opacity="1" stop-color="rgb(44.451904%, 68.765259%, 83.551025%)" offset="0.691406"/><stop stop-opacity="1" stop-color="rgb(44.622803%, 68.812561%, 83.760071%)" offset="0.695313"/><stop stop-opacity="1" stop-color="rgb(44.793701%, 68.859863%, 83.96759%)" offset="0.699219"/><stop stop-opacity="1" stop-color="rgb(44.966125%, 68.907166%, 84.17511%)" offset="0.703125"/><stop stop-opacity="1" stop-color="rgb(45.137024%, 68.954468%, 84.382629%)" offset="0.707031"/><stop stop-opacity="1" stop-color="rgb(45.309448%, 69.00177%, 84.591675%)" offset="0.710938"/><stop stop-opacity="1" stop-color="rgb(45.480347%, 69.049072%, 84.799194%)" offset="0.714844"/><stop stop-opacity="1" stop-color="rgb(45.652771%, 69.096375%, 85.00824%)" offset="0.71875"/><stop stop-opacity="1" stop-color="rgb(45.823669%, 69.143677%, 85.215759%)" offset="0.722656"/><stop stop-opacity="1" stop-color="rgb(45.996094%, 69.190979%, 85.424805%)" offset="0.726563"/><stop stop-opacity="1" stop-color="rgb(46.166992%, 69.238281%, 85.632324%)" offset="0.730469"/><stop stop-opacity="1" stop-color="rgb(46.337891%, 69.285583%, 85.84137%)" offset="0.734375"/><stop stop-opacity="1" stop-color="rgb(46.508789%, 69.332886%, 86.048889%)" offset="0.738281"/><stop stop-opacity="1" stop-color="rgb(46.681213%, 69.380188%, 86.257935%)" offset="0.742188"/><stop stop-opacity="1" stop-color="rgb(46.852112%, 69.42749%, 86.465454%)" offset="0.746094"/><stop stop-opacity="1" stop-color="rgb(47.024536%, 69.474792%, 86.6745%)" offset="0.75"/><stop stop-opacity="1" stop-color="rgb(47.195435%, 69.522095%, 86.882019%)" offset="0.753906"/><stop stop-opacity="1" stop-color="rgb(47.367859%, 69.569397%, 87.091064%)" offset="0.757812"/><stop stop-opacity="1" stop-color="rgb(47.538757%, 69.616699%, 87.298584%)" offset="0.761719"/><stop stop-opacity="1" stop-color="rgb(47.709656%, 69.664001%, 87.507629%)" offset="0.765625"/><stop stop-opacity="1" stop-color="rgb(47.880554%, 69.709778%, 87.715149%)" offset="0.769531"/><stop stop-opacity="1" stop-color="rgb(48.052979%, 69.75708%, 87.924194%)" offset="0.773438"/><stop stop-opacity="1" stop-color="rgb(48.223877%, 69.804382%, 88.131714%)" offset="0.777344"/><stop stop-opacity="1" stop-color="rgb(48.396301%, 69.851685%, 88.339233%)" offset="0.78125"/><stop stop-opacity="1" stop-color="rgb(48.5672%, 69.898987%, 88.546753%)" offset="0.785156"/><stop stop-opacity="1" stop-color="rgb(48.739624%, 69.946289%, 88.755798%)" offset="0.789062"/><stop stop-opacity="1" stop-color="rgb(48.910522%, 69.993591%, 88.963318%)" offset="0.792969"/><stop stop-opacity="1" stop-color="rgb(49.081421%, 70.040894%, 89.172363%)" offset="0.796875"/><stop stop-opacity="1" stop-color="rgb(49.252319%, 70.088196%, 89.379883%)" offset="0.800781"/><stop stop-opacity="1" stop-color="rgb(49.424744%, 70.135498%, 89.588928%)" offset="0.804688"/><stop stop-opacity="1" stop-color="rgb(49.595642%, 70.1828%, 89.796448%)" offset="0.808594"/><stop stop-opacity="1" stop-color="rgb(49.768066%, 70.230103%, 90.005493%)" offset="0.8125"/><stop stop-opacity="1" stop-color="rgb(49.938965%, 70.277405%, 90.213013%)" offset="0.816406"/><stop stop-opacity="1" stop-color="rgb(50.111389%, 70.324707%, 90.422058%)" offset="0.820312"/><stop stop-opacity="1" stop-color="rgb(50.282288%, 70.372009%, 90.629578%)" offset="0.824219"/><stop stop-opacity="1" stop-color="rgb(50.453186%, 70.419312%, 90.838623%)" offset="0.828125"/><stop stop-opacity="1" stop-color="rgb(50.624084%, 70.466614%, 91.046143%)" offset="0.832031"/><stop stop-opacity="1" stop-color="rgb(50.796509%, 70.513916%, 91.255188%)" offset="0.835938"/><stop stop-opacity="1" stop-color="rgb(50.967407%, 70.561218%, 91.462708%)" offset="0.839844"/><stop stop-opacity="1" stop-color="rgb(51.139832%, 70.608521%, 91.671753%)" offset="0.84375"/><stop stop-opacity="1" stop-color="rgb(51.31073%, 70.655823%, 91.879272%)" offset="0.847656"/><stop stop-opacity="1" stop-color="rgb(51.483154%, 70.703125%, 92.086792%)" offset="0.851562"/><stop stop-opacity="1" stop-color="rgb(51.654053%, 70.750427%, 92.294312%)" offset="0.855469"/><stop stop-opacity="1" stop-color="rgb(51.826477%, 70.797729%, 92.503357%)" offset="0.859375"/><stop stop-opacity="1" stop-color="rgb(51.997375%, 70.845032%, 92.710876%)" offset="0.863281"/><stop stop-opacity="1" stop-color="rgb(52.168274%, 70.892334%, 92.919922%)" offset="0.867188"/><stop stop-opacity="1" stop-color="rgb(52.339172%, 70.939636%, 93.127441%)" offset="0.871094"/><stop stop-opacity="1" stop-color="rgb(52.511597%, 70.986938%, 93.336487%)" offset="0.875"/><stop stop-opacity="1" stop-color="rgb(52.682495%, 71.034241%, 93.544006%)" offset="0.878906"/><stop stop-opacity="1" stop-color="rgb(52.854919%, 71.081543%, 93.753052%)" offset="0.882812"/><stop stop-opacity="1" stop-color="rgb(53.025818%, 71.128845%, 93.960571%)" offset="0.886719"/><stop stop-opacity="1" stop-color="rgb(53.198242%, 71.176147%, 94.169617%)" offset="0.890625"/><stop stop-opacity="1" stop-color="rgb(53.369141%, 71.22345%, 94.377136%)" offset="0.894531"/><stop stop-opacity="1" stop-color="rgb(53.540039%, 71.270752%, 94.586182%)" offset="0.898438"/><stop stop-opacity="1" stop-color="rgb(53.710938%, 71.318054%, 94.793701%)" offset="0.902344"/><stop stop-opacity="1" stop-color="rgb(53.883362%, 71.365356%, 95.002747%)" offset="0.90625"/><stop stop-opacity="1" stop-color="rgb(54.05426%, 71.412659%, 95.210266%)" offset="0.910156"/><stop stop-opacity="1" stop-color="rgb(54.226685%, 71.459961%, 95.419312%)" offset="0.914062"/><stop stop-opacity="1" stop-color="rgb(54.397583%, 71.507263%, 95.626831%)" offset="0.917969"/><stop stop-opacity="1" stop-color="rgb(54.570007%, 71.554565%, 95.835876%)" offset="0.921875"/><stop stop-opacity="1" stop-color="rgb(54.740906%, 71.601868%, 96.043396%)" offset="0.925781"/><stop stop-opacity="1" stop-color="rgb(54.911804%, 71.64917%, 96.250916%)" offset="0.929688"/><stop stop-opacity="1" stop-color="rgb(55.082703%, 71.694946%, 96.458435%)" offset="0.933594"/><stop stop-opacity="1" stop-color="rgb(55.255127%, 71.742249%, 96.66748%)" offset="0.9375"/><stop stop-opacity="1" stop-color="rgb(55.426025%, 71.789551%, 96.875%)" offset="0.941406"/><stop stop-opacity="1" stop-color="rgb(55.59845%, 71.836853%, 97.084045%)" offset="0.945312"/><stop stop-opacity="1" stop-color="rgb(55.769348%, 71.884155%, 97.291565%)" offset="0.949219"/><stop stop-opacity="1" stop-color="rgb(55.941772%, 71.931458%, 97.50061%)" offset="0.953125"/><stop stop-opacity="1" stop-color="rgb(56.112671%, 71.97876%, 97.70813%)" offset="0.957031"/><stop stop-opacity="1" stop-color="rgb(56.285095%, 72.026062%, 97.917175%)" offset="0.960938"/><stop stop-opacity="1" stop-color="rgb(56.455994%, 72.073364%, 98.124695%)" offset="0.964844"/><stop stop-opacity="1" stop-color="rgb(56.626892%, 72.120667%, 98.33374%)" offset="0.96875"/><stop stop-opacity="1" stop-color="rgb(56.797791%, 72.167969%, 98.54126%)" offset="0.972656"/><stop stop-opacity="1" stop-color="rgb(56.970215%, 72.215271%, 98.750305%)" offset="0.976562"/><stop stop-opacity="1" stop-color="rgb(57.141113%, 72.262573%, 98.957825%)" offset="0.980469"/><stop stop-opacity="1" stop-color="rgb(57.313538%, 72.309875%, 99.16687%)" offset="0.984375"/><stop stop-opacity="1" stop-color="rgb(57.484436%, 72.357178%, 99.37439%)" offset="0.988281"/><stop stop-opacity="1" stop-color="rgb(57.65686%, 72.40448%, 99.583435%)" offset="0.992188"/><stop stop-opacity="1" stop-color="rgb(57.827759%, 72.451782%, 99.790955%)" offset="0.996094"/><stop stop-opacity="1" stop-color="rgb(57.998657%, 72.499084%, 100%)" offset="1"/></linearGradient><clipPath id="05c834d2d3"><rect x="0" width="52" y="0" height="52"/></clipPath><clipPath id="6947bf5db8"><path d="M 3.671875 18 L 11 18 L 11 32 L 3.671875 32 Z M 3.671875 18 " clip-rule="nonzero"/></clipPath><clipPath id="4e86661aca"><path d="M 42 18 L 48.992188 18 L 48.992188 32 L 42 32 Z M 42 18 " clip-rule="nonzero"/></clipPath><clipPath id="bc1286583b"><path d="M 20 41 L 33 41 L 33 45.589844 L 20 45.589844 Z M 20 41 " clip-rule="nonzero"/></clipPath></defs><g mask="url(#617b19bb77)"><g transform="matrix(1, 0, 0, 1, -0.000000000000000028, 0.000000000000000305)"><g clip-path="url(#05c834d2d3)"><g clip-path="url(#05a0478000)"><g clip-path="url(#3a3cc6bb3b)"><path fill="url(#d925d72afe)" d="M 0.445312 0.445312 L 0.445312 51.558594 L 51.558594 51.558594 L 51.558594 0.445312 Z M 0.445312 0.445312 " fill-rule="nonzero"/></g></g></g></g></g><path fill="#000066" d="M 26.433594 32.390625 L 17.339844 32.390625 C 17.171875 32.390625 17.023438 32.328125 16.90625 32.207031 C 16.785156 32.089844 16.722656 31.941406 16.722656 31.773438 L 16.722656 16.890625 C 16.722656 16.71875 16.785156 16.574219 16.90625 16.453125 C 17.023438 16.332031 17.171875 16.273438 17.339844 16.273438 L 22.472656 16.273438 C 22.773438 16.273438 23.070312 16.304688 23.363281 16.363281 C 23.660156 16.421875 23.945312 16.507812 24.222656 16.625 C 24.5 16.738281 24.765625 16.878906 25.015625 17.046875 C 25.265625 17.214844 25.496094 17.402344 25.707031 17.617188 C 25.921875 17.828125 26.109375 18.0625 26.277344 18.308594 C 26.445312 18.558594 26.585938 18.824219 26.703125 19.101562 C 26.816406 19.378906 26.902344 19.667969 26.960938 19.960938 C 27.023438 20.253906 27.050781 20.554688 27.050781 20.855469 L 27.050781 31.773438 C 27.050781 31.941406 26.992188 32.089844 26.871094 32.207031 C 26.75 32.328125 26.605469 32.390625 26.433594 32.390625 Z M 17.957031 31.15625 L 25.816406 31.15625 L 25.816406 20.855469 C 25.816406 20.410156 25.730469 19.984375 25.5625 19.574219 C 25.390625 19.164062 25.148438 18.800781 24.835938 18.488281 C 24.523438 18.175781 24.160156 17.933594 23.75 17.761719 C 23.339844 17.59375 22.914062 17.507812 22.472656 17.507812 L 17.957031 17.507812 Z M 17.957031 31.15625 " fill-opacity="1" fill-rule="nonzero"/><path fill="#000066" d="M 35.78125 18.347656 L 35.539062 18.347656 L 35.539062 19.578125 L 35.78125 19.578125 C 35.914062 19.578125 36.042969 19.605469 36.164062 19.65625 C 36.289062 19.707031 36.398438 19.78125 36.492188 19.875 C 36.585938 19.96875 36.660156 20.078125 36.710938 20.203125 C 36.761719 20.324219 36.785156 20.453125 36.785156 20.585938 L 36.785156 32.222656 C 36.785156 32.355469 36.761719 32.484375 36.710938 32.605469 C 36.660156 32.730469 36.585938 32.839844 36.492188 32.933594 C 36.398438 33.027344 36.289062 33.101562 36.164062 33.152344 C 36.042969 33.203125 35.914062 33.226562 35.78125 33.226562 L 17.121094 33.226562 C 16.984375 33.226562 16.859375 33.203125 16.734375 33.152344 C 16.609375 33.101562 16.503906 33.027344 16.40625 32.933594 C 16.3125 32.839844 16.242188 32.730469 16.191406 32.605469 C 16.136719 32.484375 16.113281 32.355469 16.113281 32.222656 L 16.113281 20.585938 C 16.113281 20.453125 16.136719 20.324219 16.191406 20.203125 C 16.242188 20.078125 16.3125 19.96875 16.40625 19.875 C 16.503906 19.78125 16.609375 19.707031 16.734375 19.65625 C 16.859375 19.605469 16.984375 19.578125 17.121094 19.578125 L 17.339844 19.578125 L 17.339844 18.347656 L 17.121094 18.347656 C 16.824219 18.347656 16.535156 18.402344 16.261719 18.515625 C 15.988281 18.628906 15.746094 18.792969 15.535156 19.003906 C 15.324219 19.210938 15.164062 19.453125 15.050781 19.730469 C 14.9375 20.003906 14.878906 20.289062 14.878906 20.585938 L 14.878906 32.222656 C 14.878906 32.519531 14.9375 32.804688 15.050781 33.078125 C 15.164062 33.351562 15.324219 33.59375 15.535156 33.804688 C 15.746094 34.015625 15.988281 34.175781 16.261719 34.289062 C 16.535156 34.402344 16.824219 34.460938 17.121094 34.460938 L 35.777344 34.460938 C 36.078125 34.460938 36.363281 34.402344 36.636719 34.289062 C 36.910156 34.175781 37.152344 34.015625 37.363281 33.804688 C 37.574219 33.59375 37.734375 33.351562 37.847656 33.078125 C 37.960938 32.804688 38.019531 32.519531 38.019531 32.222656 L 38.019531 20.585938 C 38.019531 20.289062 37.960938 20.003906 37.847656 19.730469 C 37.734375 19.453125 37.574219 19.210938 37.363281 19.003906 C 37.152344 18.792969 36.910156 18.628906 36.636719 18.515625 C 36.363281 18.402344 36.078125 18.347656 35.78125 18.347656 Z M 35.78125 18.347656 " fill-opacity="1" fill-rule="nonzero"/><path fill="#000066" d="M 35.539062 32.390625 L 26.445312 32.390625 C 26.277344 32.390625 26.128906 32.328125 26.011719 32.207031 C 25.890625 32.089844 25.828125 31.941406 25.828125 31.773438 L 25.828125 20.855469 C 25.828125 20.554688 25.859375 20.253906 25.917969 19.960938 C 25.976562 19.667969 26.0625 19.378906 26.179688 19.101562 C 26.292969 18.824219 26.4375 18.558594 26.601562 18.308594 C 26.769531 18.0625 26.960938 17.828125 27.171875 17.617188 C 27.386719 17.402344 27.617188 17.214844 27.867188 17.046875 C 28.117188 16.878906 28.378906 16.738281 28.65625 16.625 C 28.9375 16.507812 29.222656 16.421875 29.515625 16.363281 C 29.8125 16.304688 30.109375 16.273438 30.410156 16.273438 L 35.539062 16.273438 C 35.710938 16.273438 35.855469 16.332031 35.976562 16.453125 C 36.097656 16.574219 36.15625 16.71875 36.15625 16.890625 L 36.15625 31.773438 C 36.15625 31.941406 36.097656 32.089844 35.976562 32.207031 C 35.855469 32.328125 35.710938 32.390625 35.539062 32.390625 Z M 27.0625 31.15625 L 34.921875 31.15625 L 34.921875 17.507812 L 30.410156 17.507812 C 29.964844 17.507812 29.539062 17.59375 29.128906 17.761719 C 28.71875 17.933594 28.359375 18.175781 28.042969 18.488281 C 27.730469 18.800781 27.488281 19.164062 27.320312 19.574219 C 27.148438 19.984375 27.0625 20.410156 27.0625 20.855469 Z M 27.0625 31.15625 " fill-opacity="1" fill-rule="nonzero"/><path fill="#000066" d="M 24.039062 22.96875 L 19.738281 22.96875 C 19.566406 22.96875 19.421875 22.910156 19.300781 22.789062 C 19.183594 22.667969 19.121094 22.523438 19.121094 22.355469 C 19.121094 22.183594 19.183594 22.039062 19.300781 21.917969 C 19.421875 21.796875 19.566406 21.738281 19.738281 21.738281 L 24.039062 21.738281 C 24.207031 21.738281 24.351562 21.796875 24.472656 21.917969 C 24.59375 22.039062 24.652344 22.183594 24.652344 22.355469 C 24.652344 22.523438 24.59375 22.667969 24.472656 22.789062 C 24.351562 22.910156 24.207031 22.96875 24.039062 22.96875 Z M 24.039062 22.96875 " fill-opacity="1" fill-rule="nonzero"/><path fill="#000066" d="M 24.039062 25.175781 L 19.738281 25.175781 C 19.566406 25.175781 19.421875 25.117188 19.300781 24.996094 C 19.183594 24.875 19.121094 24.730469 19.121094 24.558594 C 19.121094 24.390625 19.183594 24.246094 19.300781 24.125 C 19.421875 24.003906 19.566406 23.941406 19.738281 23.941406 L 24.039062 23.941406 C 24.207031 23.941406 24.351562 24.003906 24.472656 24.125 C 24.59375 24.246094 24.652344 24.390625 24.652344 24.558594 C 24.652344 24.730469 24.59375 24.875 24.472656 24.996094 C 24.351562 25.117188 24.207031 25.175781 24.039062 25.175781 Z M 24.039062 25.175781 " fill-opacity="1" fill-rule="nonzero"/><path fill="#000066" d="M 24.039062 27.382812 L 19.738281 27.382812 C 19.566406 27.382812 19.421875 27.324219 19.300781 27.203125 C 19.183594 27.082031 19.121094 26.9375 19.121094 26.765625 C 19.121094 26.59375 19.183594 26.449219 19.300781 26.328125 C 19.421875 26.210938 19.566406 26.148438 19.738281 26.148438 L 24.039062 26.148438 C 24.207031 26.148438 24.351562 26.210938 24.472656 26.328125 C 24.59375 26.449219 24.652344 26.59375 24.652344 26.765625 C 24.652344 26.9375 24.59375 27.082031 24.472656 27.203125 C 24.351562 27.324219 24.207031 27.382812 24.039062 27.382812 Z M 24.039062 27.382812 " fill-opacity="1" fill-rule="nonzero"/><path fill="#000066" d="M 24.039062 29.589844 L 19.738281 29.589844 C 19.566406 29.589844 19.421875 29.527344 19.300781 29.40625 C 19.183594 29.289062 19.121094 29.140625 19.121094 28.972656 C 19.121094 28.800781 19.183594 28.65625 19.300781 28.535156 C 19.421875 28.414062 19.566406 28.355469 19.738281 28.355469 L 24.039062 28.355469 C 24.207031 28.355469 24.351562 28.414062 24.472656 28.535156 C 24.59375 28.65625 24.652344 28.800781 24.652344 28.972656 C 24.652344 29.140625 24.59375 29.289062 24.472656 29.40625 C 24.351562 29.527344 24.207031 29.589844 24.039062 29.589844 Z M 24.039062 29.589844 " fill-opacity="1" fill-rule="nonzero"/><path fill="#000066" d="M 33.144531 22.96875 L 28.84375 22.96875 C 28.671875 22.96875 28.527344 22.910156 28.40625 22.789062 C 28.289062 22.667969 28.226562 22.523438 28.226562 22.355469 C 28.226562 22.183594 28.289062 22.039062 28.40625 21.917969 C 28.527344 21.796875 28.671875 21.738281 28.84375 21.738281 L 33.144531 21.738281 C 33.3125 21.738281 33.457031 21.796875 33.578125 21.917969 C 33.699219 22.039062 33.757812 22.183594 33.757812 22.355469 C 33.757812 22.523438 33.699219 22.667969 33.578125 22.789062 C 33.457031 22.910156 33.3125 22.96875 33.144531 22.96875 Z M 33.144531 22.96875 " fill-opacity="1" fill-rule="nonzero"/><path fill="#000066" d="M 33.144531 25.175781 L 28.84375 25.175781 C 28.671875 25.175781 28.527344 25.117188 28.40625 24.996094 C 28.289062 24.875 28.226562 24.730469 28.226562 24.558594 C 28.226562 24.390625 28.289062 24.246094 28.40625 24.125 C 28.527344 24.003906 28.671875 23.941406 28.84375 23.941406 L 33.144531 23.941406 C 33.3125 23.941406 33.457031 24.003906 33.578125 24.125 C 33.699219 24.246094 33.757812 24.390625 33.757812 24.558594 C 33.757812 24.730469 33.699219 24.875 33.578125 24.996094 C 33.457031 25.117188 33.3125 25.175781 33.144531 25.175781 Z M 33.144531 25.175781 " fill-opacity="1" fill-rule="nonzero"/><path fill="#000066" d="M 33.144531 27.382812 L 28.84375 27.382812 C 28.671875 27.382812 28.527344 27.324219 28.40625 27.203125 C 28.289062 27.082031 28.226562 26.9375 28.226562 26.765625 C 28.226562 26.59375 28.289062 26.449219 28.40625 26.328125 C 28.527344 26.210938 28.671875 26.148438 28.84375 26.148438 L 33.144531 26.148438 C 33.3125 26.148438 33.457031 26.210938 33.578125 26.328125 C 33.699219 26.449219 33.757812 26.59375 33.757812 26.765625 C 33.757812 26.9375 33.699219 27.082031 33.578125 27.203125 C 33.457031 27.324219 33.3125 27.382812 33.144531 27.382812 Z M 33.144531 27.382812 " fill-opacity="1" fill-rule="nonzero"/><path fill="#000066" d="M 33.144531 29.589844 L 28.84375 29.589844 C 28.671875 29.589844 28.527344 29.527344 28.40625 29.40625 C 28.289062 29.289062 28.226562 29.140625 28.226562 28.972656 C 28.226562 28.800781 28.289062 28.65625 28.40625 28.535156 C 28.527344 28.414062 28.671875 28.355469 28.84375 28.355469 L 33.144531 28.355469 C 33.3125 28.355469 33.457031 28.414062 33.578125 28.535156 C 33.699219 28.65625 33.757812 28.800781 33.757812 28.972656 C 33.757812 29.140625 33.699219 29.289062 33.578125 29.40625 C 33.457031 29.527344 33.3125 29.589844 33.144531 29.589844 Z M 33.144531 29.589844 " fill-opacity="1" fill-rule="nonzero"/><g clip-path="url(#6947bf5db8)"><path fill="#000066" d="M 9.445312 31.949219 L 7.132812 31.949219 C 6.675781 31.949219 6.234375 31.863281 5.8125 31.6875 C 5.390625 31.511719 5.015625 31.261719 4.695312 30.9375 C 4.371094 30.617188 4.121094 30.242188 3.945312 29.820312 C 3.769531 29.398438 3.683594 28.957031 3.683594 28.5 L 3.683594 22.117188 C 3.683594 21.660156 3.769531 21.21875 3.945312 20.796875 C 4.121094 20.375 4.371094 20 4.695312 19.679688 C 5.015625 19.355469 5.390625 19.105469 5.8125 18.929688 C 6.234375 18.753906 6.675781 18.667969 7.132812 18.667969 L 9.960938 18.667969 C 10.066406 18.667969 10.160156 18.691406 10.253906 18.738281 C 10.34375 18.789062 10.417969 18.855469 10.472656 18.941406 C 10.53125 19.023438 10.566406 19.117188 10.574219 19.222656 C 10.585938 19.324219 10.570312 19.421875 10.53125 19.515625 C 9.777344 21.367188 9.359375 23.292969 9.273438 25.289062 C 9.1875 27.289062 9.441406 29.242188 10.035156 31.148438 C 10.0625 31.242188 10.070312 31.339844 10.054688 31.4375 C 10.039062 31.53125 10 31.621094 9.941406 31.699219 C 9.882812 31.777344 9.8125 31.839844 9.722656 31.882812 C 9.636719 31.929688 9.542969 31.949219 9.445312 31.949219 Z M 7.132812 19.898438 C 6.839844 19.902344 6.554688 19.957031 6.285156 20.070312 C 6.011719 20.183594 5.773438 20.34375 5.566406 20.550781 C 5.359375 20.757812 5.199219 20.996094 5.085938 21.269531 C 4.972656 21.539062 4.917969 21.824219 4.917969 22.117188 L 4.917969 28.5 C 4.917969 28.792969 4.972656 29.078125 5.085938 29.347656 C 5.199219 29.621094 5.359375 29.859375 5.566406 30.066406 C 5.773438 30.273438 6.011719 30.433594 6.285156 30.546875 C 6.554688 30.660156 6.839844 30.714844 7.132812 30.71875 L 8.625 30.71875 C 8.160156 28.933594 7.964844 27.117188 8.039062 25.277344 C 8.113281 23.433594 8.457031 21.640625 9.066406 19.898438 Z M 7.132812 19.898438 " fill-opacity="1" fill-rule="nonzero"/></g><g clip-path="url(#4e86661aca)"><path fill="#000066" d="M 45.765625 31.949219 L 43.453125 31.949219 C 43.355469 31.949219 43.261719 31.929688 43.175781 31.882812 C 43.085938 31.839844 43.015625 31.777344 42.957031 31.699219 C 42.898438 31.621094 42.863281 31.53125 42.84375 31.4375 C 42.828125 31.339844 42.835938 31.242188 42.863281 31.148438 C 43.457031 29.242188 43.710938 27.289062 43.625 25.289062 C 43.539062 23.292969 43.121094 21.367188 42.367188 19.515625 C 42.328125 19.421875 42.3125 19.324219 42.324219 19.222656 C 42.332031 19.117188 42.367188 19.023438 42.425781 18.941406 C 42.480469 18.855469 42.554688 18.789062 42.648438 18.738281 C 42.738281 18.691406 42.835938 18.667969 42.9375 18.667969 L 45.765625 18.667969 C 46.222656 18.667969 46.664062 18.753906 47.085938 18.929688 C 47.507812 19.105469 47.882812 19.355469 48.203125 19.679688 C 48.527344 20.003906 48.777344 20.375 48.953125 20.796875 C 49.128906 21.21875 49.214844 21.660156 49.214844 22.117188 L 49.214844 28.5 C 49.214844 28.957031 49.128906 29.398438 48.953125 29.820312 C 48.777344 30.242188 48.527344 30.617188 48.203125 30.9375 C 47.882812 31.261719 47.507812 31.511719 47.085938 31.6875 C 46.664062 31.863281 46.222656 31.949219 45.765625 31.949219 Z M 44.273438 30.71875 L 45.765625 30.71875 C 46.058594 30.714844 46.34375 30.660156 46.613281 30.546875 C 46.886719 30.433594 47.125 30.273438 47.332031 30.066406 C 47.539062 29.859375 47.699219 29.621094 47.8125 29.347656 C 47.925781 29.078125 47.984375 28.792969 47.984375 28.5 L 47.984375 22.117188 C 47.984375 21.824219 47.925781 21.539062 47.8125 21.269531 C 47.699219 20.996094 47.539062 20.757812 47.332031 20.550781 C 47.125 20.34375 46.886719 20.183594 46.613281 20.070312 C 46.34375 19.957031 46.058594 19.902344 45.765625 19.898438 L 43.832031 19.898438 C 44.441406 21.640625 44.785156 23.433594 44.859375 25.277344 C 44.933594 27.117188 44.738281 28.933594 44.273438 30.71875 Z M 44.273438 30.71875 " fill-opacity="1" fill-rule="nonzero"/></g><path fill="#000066" d="M 43.425781 18.855469 C 43.015625 17.882812 42.527344 16.953125 41.957031 16.0625 C 41.386719 15.175781 40.746094 14.339844 40.03125 13.5625 C 39.316406 12.785156 38.542969 12.074219 37.707031 11.429688 C 36.871094 10.785156 35.988281 10.214844 35.054688 9.722656 C 34.121094 9.230469 33.152344 8.820312 32.148438 8.492188 C 31.144531 8.167969 30.121094 7.929688 29.074219 7.777344 C 28.03125 7.628906 26.980469 7.566406 25.925781 7.597656 C 24.871094 7.625 23.824219 7.746094 22.792969 7.957031 C 21.757812 8.164062 20.746094 8.460938 19.765625 8.84375 C 18.78125 9.226562 17.835938 9.691406 16.933594 10.238281 C 16.027344 10.78125 15.179688 11.402344 14.378906 12.09375 C 13.582031 12.785156 12.851562 13.539062 12.183594 14.355469 C 11.515625 15.171875 10.921875 16.042969 10.402344 16.960938 C 9.882812 17.878906 9.445312 18.835938 9.09375 19.832031 C 8.738281 20.824219 8.472656 21.84375 8.292969 22.882812 C 8.113281 23.921875 8.023438 24.972656 8.023438 26.027344 C 8.023438 26.195312 8.085938 26.34375 8.203125 26.460938 C 8.324219 26.582031 8.472656 26.644531 8.640625 26.644531 C 8.8125 26.644531 8.957031 26.582031 9.078125 26.460938 C 9.199219 26.34375 9.257812 26.195312 9.257812 26.027344 C 9.257812 24.96875 9.355469 23.921875 9.550781 22.882812 C 9.742188 21.847656 10.03125 20.832031 10.410156 19.847656 C 10.789062 18.863281 11.257812 17.921875 11.8125 17.019531 C 12.367188 16.121094 12.996094 15.28125 13.707031 14.496094 C 14.417969 13.714844 15.191406 13.003906 16.03125 12.363281 C 16.871094 11.722656 17.761719 11.164062 18.707031 10.691406 C 19.648438 10.214844 20.628906 9.828125 21.644531 9.535156 C 22.65625 9.238281 23.691406 9.039062 24.742188 8.933594 C 25.792969 8.828125 26.84375 8.820312 27.898438 8.910156 C 28.949219 9 29.984375 9.183594 31.003906 9.464844 C 32.023438 9.742188 33.007812 10.113281 33.957031 10.578125 C 34.90625 11.039062 35.804688 11.582031 36.65625 12.210938 C 37.507812 12.835938 38.292969 13.539062 39.011719 14.308594 C 39.734375 15.082031 40.375 15.914062 40.945312 16.804688 C 41.511719 17.695312 41.992188 18.632812 42.386719 19.609375 C 42.78125 20.589844 43.085938 21.597656 43.292969 22.632812 C 43.503906 23.667969 43.617188 24.714844 43.632812 25.769531 C 43.648438 26.828125 43.566406 27.875 43.390625 28.917969 C 43.214844 29.960938 42.941406 30.976562 42.578125 31.96875 C 42.214844 32.957031 41.761719 33.910156 41.222656 34.816406 C 40.683594 35.726562 40.066406 36.574219 39.367188 37.371094 C 38.671875 38.164062 37.910156 38.886719 37.078125 39.542969 C 36.25 40.195312 35.367188 40.765625 34.429688 41.257812 C 33.496094 41.75 32.523438 42.148438 31.511719 42.460938 C 31.6875 42.734375 31.777344 43.035156 31.777344 43.359375 L 31.777344 43.507812 C 31.777344 43.5625 31.773438 43.617188 31.769531 43.671875 C 32.386719 43.488281 32.992188 43.269531 33.585938 43.019531 C 34.179688 42.769531 34.757812 42.488281 35.324219 42.175781 C 35.886719 41.867188 36.433594 41.527344 36.964844 41.160156 C 37.492188 40.789062 38 40.394531 38.488281 39.972656 C 38.976562 39.550781 39.441406 39.105469 39.882812 38.636719 C 40.324219 38.167969 40.738281 37.675781 41.128906 37.160156 C 41.519531 36.648438 41.878906 36.113281 42.214844 35.5625 C 42.546875 35.011719 42.851562 34.445312 43.125 33.859375 C 43.398438 33.277344 43.640625 32.679688 43.851562 32.070312 C 44.066406 31.460938 44.242188 30.84375 44.390625 30.214844 C 44.539062 29.589844 44.652344 28.957031 44.730469 28.316406 C 44.8125 27.675781 44.859375 27.035156 44.871094 26.390625 C 44.882812 25.746094 44.863281 25.101562 44.808594 24.460938 C 44.753906 23.816406 44.667969 23.179688 44.546875 22.546875 C 44.421875 21.914062 44.269531 21.289062 44.082031 20.671875 C 43.894531 20.054688 43.675781 19.449219 43.425781 18.855469 Z M 43.425781 18.855469 " fill-opacity="1" fill-rule="nonzero"/><g clip-path="url(#bc1286583b)"><path fill="#000066" d="M 30.109375 45.789062 L 22.332031 45.789062 C 22.027344 45.789062 21.738281 45.730469 21.457031 45.613281 C 21.179688 45.5 20.929688 45.332031 20.71875 45.121094 C 20.503906 44.90625 20.339844 44.660156 20.222656 44.378906 C 20.105469 44.101562 20.046875 43.808594 20.046875 43.507812 L 20.046875 43.359375 C 20.046875 43.054688 20.105469 42.765625 20.222656 42.484375 C 20.339844 42.207031 20.503906 41.960938 20.71875 41.746094 C 20.929688 41.53125 21.179688 41.367188 21.457031 41.25 C 21.738281 41.132812 22.027344 41.078125 22.332031 41.078125 L 30.109375 41.078125 C 30.414062 41.078125 30.703125 41.132812 30.984375 41.25 C 31.261719 41.367188 31.511719 41.53125 31.722656 41.746094 C 31.9375 41.960938 32.101562 42.207031 32.21875 42.484375 C 32.335938 42.765625 32.394531 43.054688 32.394531 43.359375 L 32.394531 43.507812 C 32.394531 43.808594 32.335938 44.101562 32.21875 44.378906 C 32.101562 44.660156 31.9375 44.90625 31.722656 45.121094 C 31.511719 45.332031 31.261719 45.5 30.984375 45.613281 C 30.703125 45.730469 30.414062 45.789062 30.109375 45.789062 Z M 22.332031 42.308594 C 22.191406 42.308594 22.058594 42.335938 21.929688 42.390625 C 21.800781 42.441406 21.6875 42.519531 21.589844 42.617188 C 21.492188 42.714844 21.414062 42.828125 21.363281 42.957031 C 21.308594 43.085938 21.28125 43.21875 21.28125 43.359375 L 21.28125 43.507812 C 21.28125 43.644531 21.308594 43.777344 21.363281 43.90625 C 21.414062 44.035156 21.492188 44.148438 21.589844 44.246094 C 21.6875 44.347656 21.800781 44.421875 21.929688 44.476562 C 22.058594 44.527344 22.191406 44.554688 22.332031 44.554688 L 30.109375 44.554688 C 30.25 44.554688 30.382812 44.527344 30.511719 44.476562 C 30.640625 44.421875 30.753906 44.347656 30.851562 44.246094 C 30.949219 44.148438 31.027344 44.035156 31.078125 43.90625 C 31.132812 43.777344 31.160156 43.644531 31.160156 43.507812 L 31.160156 43.359375 C 31.160156 43.21875 31.132812 43.085938 31.078125 42.957031 C 31.027344 42.828125 30.949219 42.714844 30.851562 42.617188 C 30.753906 42.519531 30.640625 42.441406 30.511719 42.390625 C 30.382812 42.335938 30.25 42.308594 30.109375 42.308594 Z M 22.332031 42.308594 " fill-opacity="1" fill-rule="nonzero"/></g></svg>