<svg xmlns="http://www.w3.org/2000/svg" xmlns:xlink="http://www.w3.org/1999/xlink" width="70" zoomAndPan="magnify" viewBox="0 0 52.5 52.499999" height="70" preserveAspectRatio="xMidYMid meet" version="1.0"><defs><clipPath id="ae353b879e"><path d="M 5.199219 14.382812 L 46.65625 14.382812 L 46.65625 40.703125 L 5.199219 40.703125 Z M 5.199219 14.382812 " clip-rule="nonzero"/></clipPath><clipPath id="ae0f0678e9"><path d="M 17 14.382812 L 34 14.382812 L 34 19 L 17 19 Z M 17 14.382812 " clip-rule="nonzero"/></clipPath><clipPath id="cd32f077d5"><path d="M 7.328125 18.652344 L 24.960938 18.652344 L 24.960938 36.285156 L 7.328125 36.285156 Z M 7.328125 18.652344 " clip-rule="nonzero"/></clipPath><clipPath id="ca93c36467"><path d="M 16.144531 18.652344 C 11.273438 18.652344 7.328125 22.597656 7.328125 27.46875 C 7.328125 32.339844 11.273438 36.285156 16.144531 36.285156 C 21.011719 36.285156 24.960938 32.339844 24.960938 27.46875 C 24.960938 22.597656 21.011719 18.652344 16.144531 18.652344 Z M 16.144531 18.652344 " clip-rule="nonzero"/></clipPath><clipPath id="4fadbc9003"><path d="M 7.328125 19.835938 L 24.433594 19.835938 L 24.433594 36.945312 L 7.328125 36.945312 Z M 7.328125 19.835938 " clip-rule="nonzero"/></clipPath></defs><g clip-path="url(#ae353b879e)"><path fill="#138653" d="M 8.546875 15.308594 C 7.191406 15.308594 6.089844 16.410156 6.089844 17.765625 L 6.089844 37.195312 C 6.089844 38.550781 7.191406 39.652344 8.546875 39.652344 L 43.125 39.652344 C 44.480469 39.652344 45.582031 38.550781 45.582031 37.195312 L 45.582031 17.765625 C 45.582031 16.410156 44.480469 15.308594 43.125 15.308594 Z M 43.125 40.554688 L 8.546875 40.554688 C 6.695312 40.554688 5.191406 39.046875 5.191406 37.195312 L 5.191406 17.765625 C 5.191406 15.914062 6.695312 14.40625 8.546875 14.40625 L 43.125 14.40625 C 44.976562 14.40625 46.484375 15.914062 46.484375 17.765625 L 46.484375 37.195312 C 46.484375 39.046875 44.976562 40.554688 43.125 40.554688 Z M 43.125 40.554688 " fill-opacity="1" fill-rule="evenodd"/></g><path fill="#138653" d="M 15.800781 20.703125 C 12.0625 20.703125 9.019531 23.742188 9.019531 27.480469 C 9.019531 31.21875 12.0625 34.257812 15.800781 34.257812 C 19.539062 34.257812 22.578125 31.21875 22.578125 27.480469 C 22.578125 23.742188 19.539062 20.703125 15.800781 20.703125 Z M 15.800781 35.160156 C 11.566406 35.160156 8.121094 31.714844 8.121094 27.480469 C 8.121094 23.246094 11.566406 19.800781 15.800781 19.800781 C 20.035156 19.800781 23.480469 23.246094 23.480469 27.480469 C 23.480469 31.714844 20.035156 35.160156 15.800781 35.160156 Z M 15.800781 35.160156 " fill-opacity="1" fill-rule="evenodd"/><path fill="#138653" d="M 11.226562 33.53125 C 10.976562 33.53125 10.777344 33.328125 10.777344 33.078125 L 10.777344 32.199219 C 10.777344 30.761719 12.097656 30.046875 13.15625 29.472656 C 13.402344 29.339844 13.632812 29.214844 13.832031 29.089844 C 13.976562 28.996094 14.164062 28.996094 14.308594 29.085938 C 15.417969 29.769531 16.382812 29.777344 17.257812 29.113281 C 17.40625 29 17.609375 28.988281 17.765625 29.089844 C 17.96875 29.214844 18.199219 29.339844 18.445312 29.472656 C 19.503906 30.046875 20.824219 30.761719 20.824219 32.199219 L 20.824219 33.078125 C 20.824219 33.328125 20.621094 33.53125 20.375 33.53125 C 20.125 33.53125 19.921875 33.328125 19.921875 33.078125 L 19.921875 32.199219 C 19.921875 31.296875 18.953125 30.773438 18.015625 30.265625 C 17.851562 30.175781 17.699219 30.09375 17.546875 30.007812 C 16.492188 30.6875 15.324219 30.683594 14.074219 29.996094 C 13.917969 30.082031 13.753906 30.171875 13.585938 30.265625 C 12.648438 30.773438 11.675781 31.296875 11.675781 32.199219 L 11.675781 33.078125 C 11.675781 33.328125 11.476562 33.53125 11.226562 33.53125 Z M 11.226562 33.53125 " fill-opacity="1" fill-rule="evenodd"/><path fill="#138653" d="M 15.800781 24.953125 C 14.871094 24.953125 14.113281 25.710938 14.113281 26.640625 C 14.117188 27.566406 14.871094 28.324219 15.800781 28.324219 C 16.730469 28.324219 17.484375 27.566406 17.484375 26.640625 C 17.484375 25.710938 16.730469 24.953125 15.800781 24.953125 Z M 15.800781 29.226562 C 14.375 29.226562 13.214844 28.066406 13.214844 26.640625 C 13.214844 25.214844 14.375 24.054688 15.800781 24.054688 C 17.226562 24.054688 18.386719 25.214844 18.386719 26.640625 C 18.386719 28.066406 17.226562 29.226562 15.800781 29.226562 Z M 15.800781 29.226562 " fill-opacity="1" fill-rule="evenodd"/><path fill="#138653" d="M 44.175781 21.734375 L 26 21.734375 C 25.753906 21.734375 25.550781 21.53125 25.550781 21.28125 C 25.550781 21.03125 25.753906 20.832031 26 20.832031 L 44.175781 20.832031 C 44.425781 20.832031 44.625 21.03125 44.625 21.28125 C 44.625 21.53125 44.421875 21.734375 44.175781 21.734375 Z M 44.175781 21.734375 " fill-opacity="1" fill-rule="evenodd"/><path fill="#138653" d="M 44.175781 24.832031 L 26 24.832031 C 25.753906 24.832031 25.550781 24.628906 25.550781 24.382812 C 25.550781 24.132812 25.753906 23.929688 26 23.929688 L 44.175781 23.929688 C 44.425781 23.929688 44.625 24.132812 44.625 24.382812 C 44.625 24.628906 44.421875 24.832031 44.175781 24.832031 Z M 44.175781 24.832031 " fill-opacity="1" fill-rule="evenodd"/><path fill="#138653" d="M 44.175781 27.929688 L 26 27.929688 C 25.753906 27.929688 25.550781 27.730469 25.550781 27.480469 C 25.550781 27.230469 25.753906 27.03125 26 27.03125 L 44.175781 27.03125 C 44.425781 27.03125 44.625 27.230469 44.625 27.480469 C 44.625 27.730469 44.421875 27.929688 44.175781 27.929688 Z M 44.175781 27.929688 " fill-opacity="1" fill-rule="evenodd"/><path fill="#138653" d="M 44.175781 31.03125 L 26 31.03125 C 25.753906 31.03125 25.550781 30.828125 25.550781 30.578125 C 25.550781 30.332031 25.753906 30.128906 26 30.128906 L 44.175781 30.128906 C 44.425781 30.128906 44.625 30.332031 44.625 30.578125 C 44.625 30.828125 44.421875 31.03125 44.175781 31.03125 Z M 44.175781 31.03125 " fill-opacity="1" fill-rule="evenodd"/><path fill="#138653" d="M 44.175781 34.128906 L 26 34.128906 C 25.753906 34.128906 25.550781 33.929688 25.550781 33.679688 C 25.550781 33.429688 25.753906 33.226562 26 33.226562 L 44.175781 33.226562 C 44.425781 33.226562 44.625 33.429688 44.625 33.679688 C 44.625 33.929688 44.421875 34.128906 44.175781 34.128906 Z M 44.175781 34.128906 " fill-opacity="1" fill-rule="evenodd"/><g clip-path="url(#ae0f0678e9)"><path fill="#138653" d="M 31.679688 18.410156 L 19.992188 18.410156 C 18.886719 18.410156 17.988281 17.511719 17.988281 16.410156 L 17.992188 14.859375 C 17.992188 14.609375 18.191406 14.40625 18.441406 14.40625 C 18.691406 14.40625 18.890625 14.609375 18.890625 14.859375 L 18.890625 16.410156 C 18.890625 17.015625 19.382812 17.507812 19.992188 17.507812 L 31.679688 17.507812 C 32.289062 17.507812 32.78125 17.015625 32.78125 16.410156 L 32.78125 14.859375 C 32.78125 14.609375 32.984375 14.40625 33.230469 14.40625 C 33.480469 14.40625 33.683594 14.609375 33.683594 14.859375 L 33.683594 16.410156 C 33.683594 17.511719 32.785156 18.410156 31.679688 18.410156 Z M 31.679688 18.410156 " fill-opacity="1" fill-rule="evenodd"/></g><g clip-path="url(#cd32f077d5)"><g clip-path="url(#ca93c36467)"><path fill="#ffffff" d="M 7.328125 18.652344 L 24.960938 18.652344 L 24.960938 36.285156 L 7.328125 36.285156 Z M 7.328125 18.652344 " fill-opacity="1" fill-rule="nonzero"/></g></g><g clip-path="url(#4fadbc9003)"><path fill="#138653" d="M 15.84375 36.871094 C 11.148438 36.871094 7.328125 33.050781 7.328125 28.355469 C 7.328125 23.65625 11.148438 19.835938 15.84375 19.835938 C 20.542969 19.835938 24.363281 23.65625 24.363281 28.355469 C 24.363281 33.050781 20.542969 36.871094 15.84375 36.871094 Z M 15.84375 20.902344 C 11.734375 20.902344 8.390625 24.242188 8.390625 28.355469 C 8.390625 32.464844 11.734375 35.808594 15.84375 35.808594 C 19.953125 35.808594 23.296875 32.464844 23.296875 28.355469 C 23.296875 24.242188 19.953125 20.902344 15.84375 20.902344 Z M 15.84375 20.902344 " fill-opacity="1" fill-rule="nonzero"/></g><path fill="#138653" d="M 19.507812 31.902344 L 12.179688 31.902344 C 11.921875 31.902344 11.699219 31.714844 11.65625 31.460938 L 10.882812 26.964844 C 10.851562 26.769531 10.929688 26.570312 11.089844 26.449219 C 11.25 26.328125 11.460938 26.308594 11.640625 26.398438 L 13.695312 27.398438 L 15.378906 24.367188 C 15.566406 24.03125 16.125 24.03125 16.308594 24.367188 L 17.996094 27.398438 L 20.046875 26.398438 C 20.226562 26.308594 20.441406 26.328125 20.601562 26.449219 C 20.761719 26.570312 20.839844 26.769531 20.804688 26.964844 L 20.035156 31.460938 C 19.992188 31.714844 19.769531 31.902344 19.507812 31.902344 Z M 12.628906 30.839844 L 19.0625 30.839844 L 19.582031 27.808594 L 18.007812 28.574219 C 17.75 28.699219 17.445312 28.601562 17.308594 28.355469 L 15.84375 25.722656 L 14.382812 28.355469 C 14.242188 28.601562 13.9375 28.699219 13.683594 28.574219 L 12.109375 27.808594 Z M 12.628906 30.839844 " fill-opacity="1" fill-rule="nonzero"/></svg>