<svg xmlns="http://www.w3.org/2000/svg" xmlns:xlink="http://www.w3.org/1999/xlink" width="70" zoomAndPan="magnify" viewBox="0 0 52.5 52.499999" height="70" preserveAspectRatio="xMidYMid meet" version="1.0"><defs><filter x="0%" y="0%" width="100%" height="100%" id="926e03e786"><feColorMatrix values="0 0 0 0 1 0 0 0 0 1 0 0 0 0 1 0 0 0 1 0" color-interpolation-filters="sRGB"/></filter><mask id="73bbd7e6c2"><g filter="url(#926e03e786)"><rect x="-5.25" width="63" fill="#000000" y="-5.25" height="62.999999" fill-opacity="0.56"/></g></mask><clipPath id="2eb62429e5"><path d="M 0.445312 0.445312 L 51.558594 0.445312 L 51.558594 51.558594 L 0.445312 51.558594 Z M 0.445312 0.445312 " clip-rule="nonzero"/></clipPath><clipPath id="8ece6d4b9f"><path d="M 26.003906 0.445312 C 11.886719 0.445312 0.445312 11.886719 0.445312 26.003906 C 0.445312 40.117188 11.886719 51.558594 26.003906 51.558594 C 40.117188 51.558594 51.558594 40.117188 51.558594 26.003906 C 51.558594 11.886719 40.117188 0.445312 26.003906 0.445312 Z M 26.003906 0.445312 " clip-rule="nonzero"/></clipPath><linearGradient x1="0" gradientTransform="matrix(0.199661, 0, 0, 0.199661, 0.445755, 0.445756)" y1="0" x2="256" gradientUnits="userSpaceOnUse" y2="0" id="5774c650de"><stop stop-opacity="1" stop-color="rgb(14.099121%, 60.398865%, 46.699524%)" offset="0"/><stop stop-opacity="1" stop-color="rgb(14.27002%, 60.446167%, 46.907043%)" offset="0.00390625"/><stop stop-opacity="1" stop-color="rgb(14.442444%, 60.493469%, 47.116089%)" offset="0.0078125"/><stop stop-opacity="1" stop-color="rgb(14.613342%, 60.540771%, 47.323608%)" offset="0.0117188"/><stop stop-opacity="1" stop-color="rgb(14.785767%, 60.588074%, 47.532654%)" offset="0.015625"/><stop stop-opacity="1" stop-color="rgb(14.956665%, 60.635376%, 47.740173%)" offset="0.0195313"/><stop stop-opacity="1" stop-color="rgb(15.127563%, 60.682678%, 47.949219%)" offset="0.0234375"/><stop stop-opacity="1" stop-color="rgb(15.298462%, 60.72998%, 48.156738%)" offset="0.0273438"/><stop stop-opacity="1" stop-color="rgb(15.470886%, 60.777283%, 48.364258%)" offset="0.03125"/><stop stop-opacity="1" stop-color="rgb(15.641785%, 60.824585%, 48.571777%)" offset="0.0351563"/><stop stop-opacity="1" stop-color="rgb(15.814209%, 60.871887%, 48.780823%)" offset="0.0390625"/><stop stop-opacity="1" stop-color="rgb(15.985107%, 60.919189%, 48.988342%)" offset="0.0429688"/><stop stop-opacity="1" stop-color="rgb(16.157532%, 60.966492%, 49.197388%)" offset="0.046875"/><stop stop-opacity="1" stop-color="rgb(16.32843%, 61.013794%, 49.404907%)" offset="0.0507812"/><stop stop-opacity="1" stop-color="rgb(16.499329%, 61.061096%, 49.613953%)" offset="0.0546875"/><stop stop-opacity="1" stop-color="rgb(16.670227%, 61.108398%, 49.821472%)" offset="0.0585938"/><stop stop-opacity="1" stop-color="rgb(16.842651%, 61.155701%, 50.030518%)" offset="0.0625"/><stop stop-opacity="1" stop-color="rgb(17.01355%, 61.203003%, 50.238037%)" offset="0.0664063"/><stop stop-opacity="1" stop-color="rgb(17.185974%, 61.250305%, 50.447083%)" offset="0.0703125"/><stop stop-opacity="1" stop-color="rgb(17.356873%, 61.297607%, 50.654602%)" offset="0.0742188"/><stop stop-opacity="1" stop-color="rgb(17.529297%, 61.34491%, 50.863647%)" offset="0.078125"/><stop stop-opacity="1" stop-color="rgb(17.700195%, 61.392212%, 51.071167%)" offset="0.0820313"/><stop stop-opacity="1" stop-color="rgb(17.87262%, 61.439514%, 51.280212%)" offset="0.0859375"/><stop stop-opacity="1" stop-color="rgb(18.043518%, 61.486816%, 51.487732%)" offset="0.0898438"/><stop stop-opacity="1" stop-color="rgb(18.214417%, 61.534119%, 51.696777%)" offset="0.09375"/><stop stop-opacity="1" stop-color="rgb(18.385315%, 61.581421%, 51.904297%)" offset="0.0976562"/><stop stop-opacity="1" stop-color="rgb(18.557739%, 61.628723%, 52.111816%)" offset="0.101562"/><stop stop-opacity="1" stop-color="rgb(18.728638%, 61.676025%, 52.319336%)" offset="0.105469"/><stop stop-opacity="1" stop-color="rgb(18.901062%, 61.723328%, 52.528381%)" offset="0.109375"/><stop stop-opacity="1" stop-color="rgb(19.07196%, 61.77063%, 52.735901%)" offset="0.113281"/><stop stop-opacity="1" stop-color="rgb(19.244385%, 61.817932%, 52.944946%)" offset="0.117188"/><stop stop-opacity="1" stop-color="rgb(19.415283%, 61.863708%, 53.152466%)" offset="0.121094"/><stop stop-opacity="1" stop-color="rgb(19.586182%, 61.911011%, 53.361511%)" offset="0.125"/><stop stop-opacity="1" stop-color="rgb(19.75708%, 61.958313%, 53.569031%)" offset="0.128906"/><stop stop-opacity="1" stop-color="rgb(19.929504%, 62.005615%, 53.778076%)" offset="0.132813"/><stop stop-opacity="1" stop-color="rgb(20.100403%, 62.052917%, 53.985596%)" offset="0.136719"/><stop stop-opacity="1" stop-color="rgb(20.272827%, 62.10022%, 54.194641%)" offset="0.140625"/><stop stop-opacity="1" stop-color="rgb(20.443726%, 62.147522%, 54.402161%)" offset="0.144531"/><stop stop-opacity="1" stop-color="rgb(20.61615%, 62.194824%, 54.611206%)" offset="0.148438"/><stop stop-opacity="1" stop-color="rgb(20.787048%, 62.242126%, 54.818726%)" offset="0.152344"/><stop stop-opacity="1" stop-color="rgb(20.957947%, 62.289429%, 55.027771%)" offset="0.15625"/><stop stop-opacity="1" stop-color="rgb(21.128845%, 62.336731%, 55.235291%)" offset="0.160156"/><stop stop-opacity="1" stop-color="rgb(21.30127%, 62.384033%, 55.444336%)" offset="0.164063"/><stop stop-opacity="1" stop-color="rgb(21.472168%, 62.431335%, 55.651855%)" offset="0.167969"/><stop stop-opacity="1" stop-color="rgb(21.644592%, 62.478638%, 55.860901%)" offset="0.171875"/><stop stop-opacity="1" stop-color="rgb(21.815491%, 62.52594%, 56.06842%)" offset="0.175781"/><stop stop-opacity="1" stop-color="rgb(21.987915%, 62.573242%, 56.27594%)" offset="0.179688"/><stop stop-opacity="1" stop-color="rgb(22.158813%, 62.620544%, 56.483459%)" offset="0.183594"/><stop stop-opacity="1" stop-color="rgb(22.331238%, 62.667847%, 56.692505%)" offset="0.1875"/><stop stop-opacity="1" stop-color="rgb(22.502136%, 62.715149%, 56.900024%)" offset="0.191406"/><stop stop-opacity="1" stop-color="rgb(22.673035%, 62.762451%, 57.10907%)" offset="0.195312"/><stop stop-opacity="1" stop-color="rgb(22.843933%, 62.809753%, 57.316589%)" offset="0.199219"/><stop stop-opacity="1" stop-color="rgb(23.016357%, 62.857056%, 57.525635%)" offset="0.203125"/><stop stop-opacity="1" stop-color="rgb(23.187256%, 62.904358%, 57.733154%)" offset="0.207031"/><stop stop-opacity="1" stop-color="rgb(23.35968%, 62.95166%, 57.9422%)" offset="0.210938"/><stop stop-opacity="1" stop-color="rgb(23.530579%, 62.998962%, 58.149719%)" offset="0.214844"/><stop stop-opacity="1" stop-color="rgb(23.703003%, 63.046265%, 58.358765%)" offset="0.21875"/><stop stop-opacity="1" stop-color="rgb(23.873901%, 63.093567%, 58.566284%)" offset="0.222656"/><stop stop-opacity="1" stop-color="rgb(24.0448%, 63.140869%, 58.77533%)" offset="0.226562"/><stop stop-opacity="1" stop-color="rgb(24.215698%, 63.188171%, 58.982849%)" offset="0.230469"/><stop stop-opacity="1" stop-color="rgb(24.388123%, 63.235474%, 59.191895%)" offset="0.234375"/><stop stop-opacity="1" stop-color="rgb(24.559021%, 63.282776%, 59.399414%)" offset="0.238281"/><stop stop-opacity="1" stop-color="rgb(24.731445%, 63.330078%, 59.608459%)" offset="0.242188"/><stop stop-opacity="1" stop-color="rgb(24.902344%, 63.37738%, 59.815979%)" offset="0.246094"/><stop stop-opacity="1" stop-color="rgb(25.074768%, 63.424683%, 60.023499%)" offset="0.25"/><stop stop-opacity="1" stop-color="rgb(25.245667%, 63.471985%, 60.231018%)" offset="0.253906"/><stop stop-opacity="1" stop-color="rgb(25.416565%, 63.519287%, 60.440063%)" offset="0.257813"/><stop stop-opacity="1" stop-color="rgb(25.587463%, 63.566589%, 60.647583%)" offset="0.261719"/><stop stop-opacity="1" stop-color="rgb(25.759888%, 63.613892%, 60.856628%)" offset="0.265625"/><stop stop-opacity="1" stop-color="rgb(25.930786%, 63.661194%, 61.064148%)" offset="0.269531"/><stop stop-opacity="1" stop-color="rgb(26.10321%, 63.708496%, 61.273193%)" offset="0.273438"/><stop stop-opacity="1" stop-color="rgb(26.274109%, 63.755798%, 61.480713%)" offset="0.277344"/><stop stop-opacity="1" stop-color="rgb(26.446533%, 63.803101%, 61.689758%)" offset="0.28125"/><stop stop-opacity="1" stop-color="rgb(26.617432%, 63.848877%, 61.897278%)" offset="0.285156"/><stop stop-opacity="1" stop-color="rgb(26.78833%, 63.896179%, 62.106323%)" offset="0.289063"/><stop stop-opacity="1" stop-color="rgb(26.959229%, 63.943481%, 62.313843%)" offset="0.292969"/><stop stop-opacity="1" stop-color="rgb(27.131653%, 63.990784%, 62.522888%)" offset="0.296875"/><stop stop-opacity="1" stop-color="rgb(27.302551%, 64.038086%, 62.730408%)" offset="0.300781"/><stop stop-opacity="1" stop-color="rgb(27.474976%, 64.085388%, 62.939453%)" offset="0.304688"/><stop stop-opacity="1" stop-color="rgb(27.645874%, 64.13269%, 63.146973%)" offset="0.308594"/><stop stop-opacity="1" stop-color="rgb(27.818298%, 64.179993%, 63.356018%)" offset="0.3125"/><stop stop-opacity="1" stop-color="rgb(27.989197%, 64.227295%, 63.563538%)" offset="0.316406"/><stop stop-opacity="1" stop-color="rgb(28.161621%, 64.274597%, 63.772583%)" offset="0.320313"/><stop stop-opacity="1" stop-color="rgb(28.33252%, 64.321899%, 63.980103%)" offset="0.324219"/><stop stop-opacity="1" stop-color="rgb(28.503418%, 64.369202%, 64.187622%)" offset="0.328125"/><stop stop-opacity="1" stop-color="rgb(28.674316%, 64.416504%, 64.395142%)" offset="0.332031"/><stop stop-opacity="1" stop-color="rgb(28.846741%, 64.463806%, 64.604187%)" offset="0.335938"/><stop stop-opacity="1" stop-color="rgb(29.017639%, 64.511108%, 64.811707%)" offset="0.339844"/><stop stop-opacity="1" stop-color="rgb(29.190063%, 64.558411%, 65.020752%)" offset="0.34375"/><stop stop-opacity="1" stop-color="rgb(29.360962%, 64.605713%, 65.228271%)" offset="0.347656"/><stop stop-opacity="1" stop-color="rgb(29.533386%, 64.653015%, 65.437317%)" offset="0.351563"/><stop stop-opacity="1" stop-color="rgb(29.704285%, 64.700317%, 65.644836%)" offset="0.355469"/><stop stop-opacity="1" stop-color="rgb(29.875183%, 64.74762%, 65.853882%)" offset="0.359375"/><stop stop-opacity="1" stop-color="rgb(30.046082%, 64.794922%, 66.061401%)" offset="0.363281"/><stop stop-opacity="1" stop-color="rgb(30.218506%, 64.842224%, 66.270447%)" offset="0.367188"/><stop stop-opacity="1" stop-color="rgb(30.389404%, 64.889526%, 66.477966%)" offset="0.371094"/><stop stop-opacity="1" stop-color="rgb(30.561829%, 64.936829%, 66.687012%)" offset="0.375"/><stop stop-opacity="1" stop-color="rgb(30.732727%, 64.984131%, 66.894531%)" offset="0.378906"/><stop stop-opacity="1" stop-color="rgb(30.905151%, 65.031433%, 67.103577%)" offset="0.382812"/><stop stop-opacity="1" stop-color="rgb(31.07605%, 65.078735%, 67.311096%)" offset="0.386719"/><stop stop-opacity="1" stop-color="rgb(31.246948%, 65.126038%, 67.520142%)" offset="0.390625"/><stop stop-opacity="1" stop-color="rgb(31.417847%, 65.17334%, 67.727661%)" offset="0.394531"/><stop stop-opacity="1" stop-color="rgb(31.590271%, 65.220642%, 67.936707%)" offset="0.398438"/><stop stop-opacity="1" stop-color="rgb(31.761169%, 65.267944%, 68.144226%)" offset="0.402344"/><stop stop-opacity="1" stop-color="rgb(31.933594%, 65.315247%, 68.351746%)" offset="0.40625"/><stop stop-opacity="1" stop-color="rgb(32.104492%, 65.362549%, 68.559265%)" offset="0.410156"/><stop stop-opacity="1" stop-color="rgb(32.276917%, 65.409851%, 68.768311%)" offset="0.414062"/><stop stop-opacity="1" stop-color="rgb(32.447815%, 65.457153%, 68.97583%)" offset="0.417969"/><stop stop-opacity="1" stop-color="rgb(32.620239%, 65.504456%, 69.184875%)" offset="0.421875"/><stop stop-opacity="1" stop-color="rgb(32.791138%, 65.551758%, 69.392395%)" offset="0.425781"/><stop stop-opacity="1" stop-color="rgb(32.962036%, 65.59906%, 69.60144%)" offset="0.429688"/><stop stop-opacity="1" stop-color="rgb(33.132935%, 65.646362%, 69.80896%)" offset="0.433594"/><stop stop-opacity="1" stop-color="rgb(33.305359%, 65.693665%, 70.018005%)" offset="0.4375"/><stop stop-opacity="1" stop-color="rgb(33.476257%, 65.740967%, 70.225525%)" offset="0.441406"/><stop stop-opacity="1" stop-color="rgb(33.648682%, 65.788269%, 70.43457%)" offset="0.445312"/><stop stop-opacity="1" stop-color="rgb(33.81958%, 65.834045%, 70.64209%)" offset="0.449219"/><stop stop-opacity="1" stop-color="rgb(33.992004%, 65.881348%, 70.851135%)" offset="0.453125"/><stop stop-opacity="1" stop-color="rgb(34.162903%, 65.92865%, 71.058655%)" offset="0.457031"/><stop stop-opacity="1" stop-color="rgb(34.333801%, 65.975952%, 71.2677%)" offset="0.460938"/><stop stop-opacity="1" stop-color="rgb(34.5047%, 66.023254%, 71.47522%)" offset="0.464844"/><stop stop-opacity="1" stop-color="rgb(34.677124%, 66.070557%, 71.684265%)" offset="0.46875"/><stop stop-opacity="1" stop-color="rgb(34.848022%, 66.117859%, 71.891785%)" offset="0.472656"/><stop stop-opacity="1" stop-color="rgb(35.020447%, 66.165161%, 72.099304%)" offset="0.476562"/><stop stop-opacity="1" stop-color="rgb(35.191345%, 66.212463%, 72.306824%)" offset="0.480469"/><stop stop-opacity="1" stop-color="rgb(35.36377%, 66.259766%, 72.515869%)" offset="0.484375"/><stop stop-opacity="1" stop-color="rgb(35.534668%, 66.307068%, 72.723389%)" offset="0.488281"/><stop stop-opacity="1" stop-color="rgb(35.705566%, 66.35437%, 72.932434%)" offset="0.492188"/><stop stop-opacity="1" stop-color="rgb(35.876465%, 66.401672%, 73.139954%)" offset="0.496094"/><stop stop-opacity="1" stop-color="rgb(36.048889%, 66.448975%, 73.348999%)" offset="0.5"/><stop stop-opacity="1" stop-color="rgb(36.219788%, 66.496277%, 73.556519%)" offset="0.503906"/><stop stop-opacity="1" stop-color="rgb(36.392212%, 66.543579%, 73.765564%)" offset="0.507813"/><stop stop-opacity="1" stop-color="rgb(36.56311%, 66.590881%, 73.973083%)" offset="0.511719"/><stop stop-opacity="1" stop-color="rgb(36.735535%, 66.638184%, 74.182129%)" offset="0.515625"/><stop stop-opacity="1" stop-color="rgb(36.906433%, 66.685486%, 74.389648%)" offset="0.519531"/><stop stop-opacity="1" stop-color="rgb(37.078857%, 66.732788%, 74.598694%)" offset="0.523438"/><stop stop-opacity="1" stop-color="rgb(37.249756%, 66.78009%, 74.806213%)" offset="0.527344"/><stop stop-opacity="1" stop-color="rgb(37.420654%, 66.827393%, 75.015259%)" offset="0.53125"/><stop stop-opacity="1" stop-color="rgb(37.591553%, 66.874695%, 75.222778%)" offset="0.535156"/><stop stop-opacity="1" stop-color="rgb(37.763977%, 66.921997%, 75.431824%)" offset="0.539063"/><stop stop-opacity="1" stop-color="rgb(37.934875%, 66.969299%, 75.639343%)" offset="0.542969"/><stop stop-opacity="1" stop-color="rgb(38.1073%, 67.016602%, 75.848389%)" offset="0.546875"/><stop stop-opacity="1" stop-color="rgb(38.278198%, 67.063904%, 76.055908%)" offset="0.550781"/><stop stop-opacity="1" stop-color="rgb(38.450623%, 67.111206%, 76.263428%)" offset="0.554688"/><stop stop-opacity="1" stop-color="rgb(38.621521%, 67.158508%, 76.470947%)" offset="0.558594"/><stop stop-opacity="1" stop-color="rgb(38.792419%, 67.205811%, 76.679993%)" offset="0.5625"/><stop stop-opacity="1" stop-color="rgb(38.963318%, 67.253113%, 76.887512%)" offset="0.566406"/><stop stop-opacity="1" stop-color="rgb(39.135742%, 67.300415%, 77.096558%)" offset="0.570313"/><stop stop-opacity="1" stop-color="rgb(39.306641%, 67.347717%, 77.304077%)" offset="0.574219"/><stop stop-opacity="1" stop-color="rgb(39.479065%, 67.39502%, 77.513123%)" offset="0.578125"/><stop stop-opacity="1" stop-color="rgb(39.649963%, 67.442322%, 77.720642%)" offset="0.582031"/><stop stop-opacity="1" stop-color="rgb(39.822388%, 67.489624%, 77.929688%)" offset="0.585938"/><stop stop-opacity="1" stop-color="rgb(39.993286%, 67.536926%, 78.137207%)" offset="0.589844"/><stop stop-opacity="1" stop-color="rgb(40.164185%, 67.584229%, 78.346252%)" offset="0.59375"/><stop stop-opacity="1" stop-color="rgb(40.335083%, 67.631531%, 78.553772%)" offset="0.597656"/><stop stop-opacity="1" stop-color="rgb(40.507507%, 67.678833%, 78.762817%)" offset="0.601563"/><stop stop-opacity="1" stop-color="rgb(40.678406%, 67.726135%, 78.970337%)" offset="0.605469"/><stop stop-opacity="1" stop-color="rgb(40.85083%, 67.773438%, 79.179382%)" offset="0.609375"/><stop stop-opacity="1" stop-color="rgb(41.021729%, 67.819214%, 79.386902%)" offset="0.613281"/><stop stop-opacity="1" stop-color="rgb(41.194153%, 67.866516%, 79.595947%)" offset="0.617188"/><stop stop-opacity="1" stop-color="rgb(41.365051%, 67.913818%, 79.803467%)" offset="0.621094"/><stop stop-opacity="1" stop-color="rgb(41.537476%, 67.961121%, 80.010986%)" offset="0.625"/><stop stop-opacity="1" stop-color="rgb(41.708374%, 68.008423%, 80.218506%)" offset="0.628906"/><stop stop-opacity="1" stop-color="rgb(41.879272%, 68.055725%, 80.427551%)" offset="0.632813"/><stop stop-opacity="1" stop-color="rgb(42.050171%, 68.103027%, 80.635071%)" offset="0.636719"/><stop stop-opacity="1" stop-color="rgb(42.222595%, 68.15033%, 80.844116%)" offset="0.640625"/><stop stop-opacity="1" stop-color="rgb(42.393494%, 68.197632%, 81.051636%)" offset="0.644531"/><stop stop-opacity="1" stop-color="rgb(42.565918%, 68.244934%, 81.260681%)" offset="0.648438"/><stop stop-opacity="1" stop-color="rgb(42.736816%, 68.292236%, 81.468201%)" offset="0.652344"/><stop stop-opacity="1" stop-color="rgb(42.909241%, 68.339539%, 81.677246%)" offset="0.65625"/><stop stop-opacity="1" stop-color="rgb(43.080139%, 68.386841%, 81.884766%)" offset="0.660156"/><stop stop-opacity="1" stop-color="rgb(43.251038%, 68.434143%, 82.093811%)" offset="0.664063"/><stop stop-opacity="1" stop-color="rgb(43.421936%, 68.481445%, 82.301331%)" offset="0.667969"/><stop stop-opacity="1" stop-color="rgb(43.59436%, 68.528748%, 82.510376%)" offset="0.671875"/><stop stop-opacity="1" stop-color="rgb(43.765259%, 68.57605%, 82.717896%)" offset="0.675781"/><stop stop-opacity="1" stop-color="rgb(43.937683%, 68.623352%, 82.926941%)" offset="0.679688"/><stop stop-opacity="1" stop-color="rgb(44.108582%, 68.670654%, 83.13446%)" offset="0.683594"/><stop stop-opacity="1" stop-color="rgb(44.281006%, 68.717957%, 83.343506%)" offset="0.6875"/><stop stop-opacity="1" stop-color="rgb(44.451904%, 68.765259%, 83.551025%)" offset="0.691406"/><stop stop-opacity="1" stop-color="rgb(44.622803%, 68.812561%, 83.760071%)" offset="0.695313"/><stop stop-opacity="1" stop-color="rgb(44.793701%, 68.859863%, 83.96759%)" offset="0.699219"/><stop stop-opacity="1" stop-color="rgb(44.966125%, 68.907166%, 84.17511%)" offset="0.703125"/><stop stop-opacity="1" stop-color="rgb(45.137024%, 68.954468%, 84.382629%)" offset="0.707031"/><stop stop-opacity="1" stop-color="rgb(45.309448%, 69.00177%, 84.591675%)" offset="0.710938"/><stop stop-opacity="1" stop-color="rgb(45.480347%, 69.049072%, 84.799194%)" offset="0.714844"/><stop stop-opacity="1" stop-color="rgb(45.652771%, 69.096375%, 85.00824%)" offset="0.71875"/><stop stop-opacity="1" stop-color="rgb(45.823669%, 69.143677%, 85.215759%)" offset="0.722656"/><stop stop-opacity="1" stop-color="rgb(45.996094%, 69.190979%, 85.424805%)" offset="0.726563"/><stop stop-opacity="1" stop-color="rgb(46.166992%, 69.238281%, 85.632324%)" offset="0.730469"/><stop stop-opacity="1" stop-color="rgb(46.337891%, 69.285583%, 85.84137%)" offset="0.734375"/><stop stop-opacity="1" stop-color="rgb(46.508789%, 69.332886%, 86.048889%)" offset="0.738281"/><stop stop-opacity="1" stop-color="rgb(46.681213%, 69.380188%, 86.257935%)" offset="0.742188"/><stop stop-opacity="1" stop-color="rgb(46.852112%, 69.42749%, 86.465454%)" offset="0.746094"/><stop stop-opacity="1" stop-color="rgb(47.024536%, 69.474792%, 86.6745%)" offset="0.75"/><stop stop-opacity="1" stop-color="rgb(47.195435%, 69.522095%, 86.882019%)" offset="0.753906"/><stop stop-opacity="1" stop-color="rgb(47.367859%, 69.569397%, 87.091064%)" offset="0.757812"/><stop stop-opacity="1" stop-color="rgb(47.538757%, 69.616699%, 87.298584%)" offset="0.761719"/><stop stop-opacity="1" stop-color="rgb(47.709656%, 69.664001%, 87.507629%)" offset="0.765625"/><stop stop-opacity="1" stop-color="rgb(47.880554%, 69.709778%, 87.715149%)" offset="0.769531"/><stop stop-opacity="1" stop-color="rgb(48.052979%, 69.75708%, 87.924194%)" offset="0.773438"/><stop stop-opacity="1" stop-color="rgb(48.223877%, 69.804382%, 88.131714%)" offset="0.777344"/><stop stop-opacity="1" stop-color="rgb(48.396301%, 69.851685%, 88.339233%)" offset="0.78125"/><stop stop-opacity="1" stop-color="rgb(48.5672%, 69.898987%, 88.546753%)" offset="0.785156"/><stop stop-opacity="1" stop-color="rgb(48.739624%, 69.946289%, 88.755798%)" offset="0.789062"/><stop stop-opacity="1" stop-color="rgb(48.910522%, 69.993591%, 88.963318%)" offset="0.792969"/><stop stop-opacity="1" stop-color="rgb(49.081421%, 70.040894%, 89.172363%)" offset="0.796875"/><stop stop-opacity="1" stop-color="rgb(49.252319%, 70.088196%, 89.379883%)" offset="0.800781"/><stop stop-opacity="1" stop-color="rgb(49.424744%, 70.135498%, 89.588928%)" offset="0.804688"/><stop stop-opacity="1" stop-color="rgb(49.595642%, 70.1828%, 89.796448%)" offset="0.808594"/><stop stop-opacity="1" stop-color="rgb(49.768066%, 70.230103%, 90.005493%)" offset="0.8125"/><stop stop-opacity="1" stop-color="rgb(49.938965%, 70.277405%, 90.213013%)" offset="0.816406"/><stop stop-opacity="1" stop-color="rgb(50.111389%, 70.324707%, 90.422058%)" offset="0.820312"/><stop stop-opacity="1" stop-color="rgb(50.282288%, 70.372009%, 90.629578%)" offset="0.824219"/><stop stop-opacity="1" stop-color="rgb(50.453186%, 70.419312%, 90.838623%)" offset="0.828125"/><stop stop-opacity="1" stop-color="rgb(50.624084%, 70.466614%, 91.046143%)" offset="0.832031"/><stop stop-opacity="1" stop-color="rgb(50.796509%, 70.513916%, 91.255188%)" offset="0.835938"/><stop stop-opacity="1" stop-color="rgb(50.967407%, 70.561218%, 91.462708%)" offset="0.839844"/><stop stop-opacity="1" stop-color="rgb(51.139832%, 70.608521%, 91.671753%)" offset="0.84375"/><stop stop-opacity="1" stop-color="rgb(51.31073%, 70.655823%, 91.879272%)" offset="0.847656"/><stop stop-opacity="1" stop-color="rgb(51.483154%, 70.703125%, 92.086792%)" offset="0.851562"/><stop stop-opacity="1" stop-color="rgb(51.654053%, 70.750427%, 92.294312%)" offset="0.855469"/><stop stop-opacity="1" stop-color="rgb(51.826477%, 70.797729%, 92.503357%)" offset="0.859375"/><stop stop-opacity="1" stop-color="rgb(51.997375%, 70.845032%, 92.710876%)" offset="0.863281"/><stop stop-opacity="1" stop-color="rgb(52.168274%, 70.892334%, 92.919922%)" offset="0.867188"/><stop stop-opacity="1" stop-color="rgb(52.339172%, 70.939636%, 93.127441%)" offset="0.871094"/><stop stop-opacity="1" stop-color="rgb(52.511597%, 70.986938%, 93.336487%)" offset="0.875"/><stop stop-opacity="1" stop-color="rgb(52.682495%, 71.034241%, 93.544006%)" offset="0.878906"/><stop stop-opacity="1" stop-color="rgb(52.854919%, 71.081543%, 93.753052%)" offset="0.882812"/><stop stop-opacity="1" stop-color="rgb(53.025818%, 71.128845%, 93.960571%)" offset="0.886719"/><stop stop-opacity="1" stop-color="rgb(53.198242%, 71.176147%, 94.169617%)" offset="0.890625"/><stop stop-opacity="1" stop-color="rgb(53.369141%, 71.22345%, 94.377136%)" offset="0.894531"/><stop stop-opacity="1" stop-color="rgb(53.540039%, 71.270752%, 94.586182%)" offset="0.898438"/><stop stop-opacity="1" stop-color="rgb(53.710938%, 71.318054%, 94.793701%)" offset="0.902344"/><stop stop-opacity="1" stop-color="rgb(53.883362%, 71.365356%, 95.002747%)" offset="0.90625"/><stop stop-opacity="1" stop-color="rgb(54.05426%, 71.412659%, 95.210266%)" offset="0.910156"/><stop stop-opacity="1" stop-color="rgb(54.226685%, 71.459961%, 95.419312%)" offset="0.914062"/><stop stop-opacity="1" stop-color="rgb(54.397583%, 71.507263%, 95.626831%)" offset="0.917969"/><stop stop-opacity="1" stop-color="rgb(54.570007%, 71.554565%, 95.835876%)" offset="0.921875"/><stop stop-opacity="1" stop-color="rgb(54.740906%, 71.601868%, 96.043396%)" offset="0.925781"/><stop stop-opacity="1" stop-color="rgb(54.911804%, 71.64917%, 96.250916%)" offset="0.929688"/><stop stop-opacity="1" stop-color="rgb(55.082703%, 71.694946%, 96.458435%)" offset="0.933594"/><stop stop-opacity="1" stop-color="rgb(55.255127%, 71.742249%, 96.66748%)" offset="0.9375"/><stop stop-opacity="1" stop-color="rgb(55.426025%, 71.789551%, 96.875%)" offset="0.941406"/><stop stop-opacity="1" stop-color="rgb(55.59845%, 71.836853%, 97.084045%)" offset="0.945312"/><stop stop-opacity="1" stop-color="rgb(55.769348%, 71.884155%, 97.291565%)" offset="0.949219"/><stop stop-opacity="1" stop-color="rgb(55.941772%, 71.931458%, 97.50061%)" offset="0.953125"/><stop stop-opacity="1" stop-color="rgb(56.112671%, 71.97876%, 97.70813%)" offset="0.957031"/><stop stop-opacity="1" stop-color="rgb(56.285095%, 72.026062%, 97.917175%)" offset="0.960938"/><stop stop-opacity="1" stop-color="rgb(56.455994%, 72.073364%, 98.124695%)" offset="0.964844"/><stop stop-opacity="1" stop-color="rgb(56.626892%, 72.120667%, 98.33374%)" offset="0.96875"/><stop stop-opacity="1" stop-color="rgb(56.797791%, 72.167969%, 98.54126%)" offset="0.972656"/><stop stop-opacity="1" stop-color="rgb(56.970215%, 72.215271%, 98.750305%)" offset="0.976562"/><stop stop-opacity="1" stop-color="rgb(57.141113%, 72.262573%, 98.957825%)" offset="0.980469"/><stop stop-opacity="1" stop-color="rgb(57.313538%, 72.309875%, 99.16687%)" offset="0.984375"/><stop stop-opacity="1" stop-color="rgb(57.484436%, 72.357178%, 99.37439%)" offset="0.988281"/><stop stop-opacity="1" stop-color="rgb(57.65686%, 72.40448%, 99.583435%)" offset="0.992188"/><stop stop-opacity="1" stop-color="rgb(57.827759%, 72.451782%, 99.790955%)" offset="0.996094"/><stop stop-opacity="1" stop-color="rgb(57.998657%, 72.499084%, 100%)" offset="1"/></linearGradient><clipPath id="fb05130526"><rect x="0" width="52" y="0" height="52"/></clipPath><clipPath id="5e529b5153"><path d="M 6.6875 4.011719 L 45.320312 4.011719 L 45.320312 42.644531 L 6.6875 42.644531 Z M 6.6875 4.011719 " clip-rule="nonzero"/></clipPath></defs><g mask="url(#73bbd7e6c2)"><g transform="matrix(1, 0, 0, 1, -0.000000000000000028, 0.000000000000000305)"><g clip-path="url(#fb05130526)"><g clip-path="url(#2eb62429e5)"><g clip-path="url(#8ece6d4b9f)"><path fill="url(#5774c650de)" d="M 0.445312 0.445312 L 0.445312 51.558594 L 51.558594 51.558594 L 51.558594 0.445312 Z M 0.445312 0.445312 " fill-rule="nonzero"/></g></g></g></g></g><g clip-path="url(#5e529b5153)"><path fill="#000066" d="M 19.5625 33.457031 L 12.015625 33.457031 C 10.699219 33.457031 9.5 33.996094 8.632812 34.863281 L 8.632812 34.867188 C 7.769531 35.734375 7.230469 36.929688 7.230469 38.242188 L 7.230469 42.019531 C 7.230469 42.363281 7.507812 42.644531 7.851562 42.644531 L 23.722656 42.644531 C 24.066406 42.644531 24.34375 42.363281 24.34375 42.019531 L 24.34375 38.242188 C 24.34375 36.925781 23.808594 35.730469 22.941406 34.863281 C 22.074219 33.996094 20.875 33.457031 19.5625 33.457031 Z M 23.097656 41.398438 L 8.476562 41.398438 L 8.476562 38.242188 C 8.476562 37.269531 8.875 36.382812 9.515625 35.746094 C 10.15625 35.101562 11.042969 34.703125 12.015625 34.703125 L 19.5625 34.703125 C 20.535156 34.703125 21.417969 35.101562 22.058594 35.746094 C 22.703125 36.386719 23.097656 37.269531 23.097656 38.242188 Z M 39.992188 33.457031 L 32.445312 33.457031 C 31.128906 33.457031 29.929688 33.996094 29.066406 34.863281 C 28.199219 35.730469 27.660156 36.925781 27.660156 38.242188 L 27.660156 42.019531 C 27.660156 42.363281 27.941406 42.644531 28.285156 42.644531 L 44.152344 42.644531 C 44.496094 42.644531 44.777344 42.363281 44.777344 42.019531 L 44.777344 38.242188 C 44.777344 36.925781 44.238281 35.730469 43.371094 34.863281 C 42.503906 33.996094 41.304688 33.457031 39.992188 33.457031 Z M 43.527344 41.398438 L 28.90625 41.398438 L 28.90625 38.242188 C 28.90625 37.269531 29.304688 36.386719 29.945312 35.746094 C 30.585938 35.101562 31.472656 34.703125 32.441406 34.703125 L 39.988281 34.703125 C 40.960938 34.703125 41.847656 35.101562 42.488281 35.746094 C 43.128906 36.386719 43.527344 37.269531 43.527344 38.242188 Z M 44.664062 24.5 C 44.335938 24.167969 43.902344 23.941406 43.425781 23.867188 C 42.855469 22.5 41.910156 21.328125 40.71875 20.484375 C 39.445312 19.582031 37.890625 19.050781 36.21875 19.050781 C 35.089844 19.050781 34.015625 19.292969 33.046875 19.726562 C 32.648438 19.351562 32.1875 19.042969 31.683594 18.820312 C 31.097656 18.5625 30.453125 18.421875 29.777344 18.421875 L 22.230469 18.421875 C 21.550781 18.421875 20.898438 18.566406 20.308594 18.824219 C 19.808594 19.046875 19.351562 19.355469 18.957031 19.722656 C 17.988281 19.289062 16.914062 19.050781 15.785156 19.050781 C 14.113281 19.050781 12.558594 19.582031 11.285156 20.484375 C 10.09375 21.328125 9.148438 22.5 8.582031 23.867188 C 8.121094 23.9375 7.707031 24.152344 7.378906 24.460938 L 7.339844 24.496094 C 6.9375 24.898438 6.6875 25.457031 6.6875 26.070312 L 6.6875 27.023438 C 6.6875 27.636719 6.9375 28.195312 7.339844 28.59375 C 7.746094 29 8.300781 29.25 8.914062 29.25 C 9.503906 29.25 10.042969 29.015625 10.445312 28.632812 L 10.484375 28.597656 C 10.53125 28.550781 10.574219 28.5 10.617188 28.453125 C 10.867188 29.359375 11.347656 30.171875 11.996094 30.820312 C 12.964844 31.792969 14.304688 32.390625 15.785156 32.390625 C 17.265625 32.390625 18.605469 31.789062 19.578125 30.820312 C 20.222656 30.171875 20.707031 29.359375 20.953125 28.453125 C 20.996094 28.5 21.042969 28.550781 21.085938 28.597656 C 21.300781 28.808594 21.550781 28.976562 21.832031 29.089844 C 21.699219 29.421875 21.546875 29.738281 21.375 30.042969 C 21.089844 30.542969 20.753906 31 20.375 31.410156 C 20.144531 31.664062 20.160156 32.054688 20.414062 32.289062 C 20.667969 32.519531 21.058594 32.503906 21.292969 32.25 C 21.730469 31.777344 22.121094 31.238281 22.453125 30.65625 C 22.714844 30.199219 22.9375 29.710938 23.121094 29.199219 C 23.53125 29.113281 23.898438 28.914062 24.191406 28.632812 L 24.230469 28.597656 C 24.636719 28.195312 24.886719 27.636719 24.886719 27.023438 L 24.886719 26.070312 C 24.886719 25.457031 24.636719 24.902344 24.230469 24.5 C 23.902344 24.167969 23.472656 23.941406 22.992188 23.867188 C 22.421875 22.5 21.480469 21.328125 20.289062 20.484375 C 20.230469 20.445312 20.175781 20.40625 20.117188 20.367188 C 20.332031 20.210938 20.5625 20.070312 20.808594 19.964844 C 21.242188 19.773438 21.722656 19.667969 22.226562 19.667969 L 29.773438 19.667969 C 30.277344 19.667969 30.753906 19.773438 31.1875 19.960938 C 31.433594 20.070312 31.667969 20.207031 31.882812 20.367188 C 31.824219 20.40625 31.769531 20.445312 31.710938 20.484375 C 30.519531 21.328125 29.578125 22.503906 29.007812 23.871094 C 28.527344 23.941406 28.097656 24.167969 27.769531 24.5 C 27.363281 24.902344 27.113281 25.457031 27.113281 26.070312 L 27.113281 27.023438 C 27.113281 27.636719 27.363281 28.195312 27.769531 28.597656 C 28.171875 29 28.730469 29.25 29.339844 29.25 C 29.953125 29.25 30.511719 29 30.914062 28.597656 L 30.914062 28.59375 C 30.960938 28.546875 31.003906 28.5 31.046875 28.449219 C 31.296875 29.359375 31.777344 30.171875 32.425781 30.820312 C 33.394531 31.789062 34.734375 32.390625 36.214844 32.390625 C 37.695312 32.390625 39.035156 31.789062 40.003906 30.820312 C 40.652344 30.171875 41.132812 29.359375 41.382812 28.453125 C 41.425781 28.5 41.46875 28.550781 41.515625 28.597656 C 41.726562 28.808594 41.980469 28.976562 42.261719 29.089844 C 42.128906 29.421875 41.976562 29.738281 41.804688 30.042969 C 41.519531 30.539062 41.183594 31 40.804688 31.410156 C 40.574219 31.664062 40.589844 32.054688 40.84375 32.289062 C 41.09375 32.519531 41.488281 32.503906 41.71875 32.25 C 42.160156 31.777344 42.550781 31.238281 42.882812 30.65625 C 43.144531 30.199219 43.367188 29.710938 43.550781 29.199219 C 43.957031 29.113281 44.328125 28.914062 44.621094 28.632812 L 44.660156 28.597656 C 45.0625 28.195312 45.316406 27.636719 45.316406 27.023438 L 45.316406 26.070312 C 45.320312 25.457031 45.066406 24.898438 44.664062 24.5 Z M 9.894531 27.023438 C 9.894531 27.292969 9.785156 27.535156 9.605469 27.714844 L 9.582031 27.742188 C 9.40625 27.902344 9.171875 28.003906 8.914062 28.003906 C 8.644531 28.003906 8.398438 27.894531 8.222656 27.71875 L 8.222656 27.714844 C 8.042969 27.535156 7.933594 27.292969 7.933594 27.023438 L 7.933594 26.070312 C 7.933594 25.800781 8.042969 25.554688 8.222656 25.378906 L 8.246094 25.351562 C 8.417969 25.191406 8.648438 25.09375 8.902344 25.089844 C 8.949219 25.097656 8.996094 25.101562 9.046875 25.097656 C 9.261719 25.128906 9.460938 25.230469 9.605469 25.375 L 9.605469 25.378906 C 9.785156 25.554688 9.894531 25.800781 9.894531 26.070312 Z M 18.699219 29.9375 C 17.953125 30.683594 16.921875 31.144531 15.785156 31.144531 C 14.648438 31.144531 13.621094 30.683594 12.875 29.9375 C 12.132812 29.195312 11.671875 28.164062 11.671875 27.027344 C 11.671875 25.890625 12.132812 24.863281 12.875 24.117188 C 13.621094 23.375 14.648438 22.914062 15.785156 22.914062 C 16.921875 22.914062 17.953125 23.375 18.699219 24.117188 C 19.441406 24.863281 19.902344 25.890625 19.902344 27.027344 C 19.902344 28.164062 19.441406 29.195312 18.699219 29.9375 Z M 23.644531 26.070312 L 23.644531 27.023438 C 23.644531 27.292969 23.53125 27.539062 23.355469 27.714844 L 23.328125 27.742188 C 23.15625 27.90625 22.921875 28.003906 22.660156 28.003906 C 22.390625 28.003906 22.144531 27.894531 21.96875 27.71875 L 21.96875 27.714844 C 21.792969 27.539062 21.679688 27.292969 21.679688 27.023438 L 21.679688 26.070312 C 21.679688 25.800781 21.792969 25.554688 21.96875 25.378906 L 21.996094 25.351562 C 22.136719 25.21875 22.324219 25.128906 22.527344 25.097656 C 22.574219 25.101562 22.625 25.097656 22.671875 25.089844 C 22.9375 25.09375 23.179688 25.203125 23.351562 25.375 L 23.351562 25.378906 C 23.53125 25.554688 23.644531 25.800781 23.644531 26.070312 Z M 21.71875 24.054688 C 21.5 24.160156 21.300781 24.296875 21.128906 24.460938 L 21.089844 24.496094 C 20.953125 24.632812 20.832031 24.789062 20.734375 24.960938 C 20.460938 24.3125 20.066406 23.726562 19.578125 23.238281 C 18.609375 22.265625 17.269531 21.667969 15.789062 21.667969 C 14.308594 21.667969 12.96875 22.269531 11.996094 23.238281 C 11.507812 23.726562 11.113281 24.3125 10.839844 24.960938 C 10.742188 24.789062 10.625 24.636719 10.484375 24.5 C 10.304688 24.316406 10.089844 24.167969 9.859375 24.054688 C 10.34375 23.027344 11.089844 22.148438 12.007812 21.496094 C 13.074219 20.742188 14.378906 20.296875 15.789062 20.296875 C 17.199219 20.296875 18.503906 20.738281 19.570312 21.496094 C 20.488281 22.148438 21.230469 23.027344 21.71875 24.054688 Z M 32.433594 21.496094 C 33.5 20.742188 34.804688 20.296875 36.214844 20.296875 C 37.628906 20.296875 38.933594 20.738281 40 21.496094 C 40.917969 22.148438 41.660156 23.03125 42.144531 24.054688 C 41.929688 24.160156 41.730469 24.296875 41.558594 24.460938 L 41.515625 24.496094 C 41.378906 24.632812 41.261719 24.789062 41.164062 24.960938 C 40.890625 24.3125 40.496094 23.726562 40.007812 23.238281 C 39.035156 22.265625 37.695312 21.667969 36.214844 21.667969 C 34.738281 21.667969 33.402344 22.265625 32.429688 23.238281 L 32.425781 23.242188 C 31.933594 23.730469 31.542969 24.3125 31.269531 24.960938 C 31.171875 24.792969 31.050781 24.636719 30.914062 24.5 L 30.914062 24.496094 C 30.730469 24.316406 30.519531 24.167969 30.285156 24.054688 C 30.773438 23.027344 31.515625 22.148438 32.433594 21.496094 Z M 30.324219 27.023438 C 30.324219 27.292969 30.214844 27.539062 30.035156 27.714844 C 29.859375 27.890625 29.613281 28.003906 29.34375 28.003906 C 29.074219 28.003906 28.828125 27.894531 28.652344 27.71875 L 28.652344 27.714844 C 28.472656 27.535156 28.363281 27.292969 28.363281 27.023438 L 28.363281 26.070312 C 28.363281 25.800781 28.472656 25.554688 28.652344 25.378906 C 28.824219 25.203125 29.066406 25.09375 29.332031 25.089844 C 29.378906 25.097656 29.429688 25.101562 29.476562 25.097656 C 29.691406 25.128906 29.890625 25.230469 30.035156 25.375 C 30.214844 25.554688 30.324219 25.800781 30.324219 26.070312 Z M 39.128906 29.9375 C 38.382812 30.683594 37.351562 31.144531 36.214844 31.144531 C 35.078125 31.144531 34.050781 30.683594 33.308594 29.9375 C 32.5625 29.195312 32.101562 28.164062 32.101562 27.027344 C 32.101562 25.890625 32.5625 24.863281 33.304688 24.117188 L 33.308594 24.117188 C 34.050781 23.375 35.078125 22.914062 36.214844 22.914062 C 37.351562 22.914062 38.382812 23.375 39.128906 24.117188 C 39.871094 24.863281 40.332031 25.890625 40.332031 27.027344 C 40.332031 28.164062 39.871094 29.195312 39.128906 29.9375 Z M 44.074219 27.023438 C 44.074219 27.292969 43.960938 27.535156 43.785156 27.714844 L 43.757812 27.742188 C 43.585938 27.902344 43.351562 28.003906 43.089844 28.003906 C 42.820312 28.003906 42.574219 27.894531 42.398438 27.71875 L 42.398438 27.714844 C 42.222656 27.535156 42.109375 27.292969 42.109375 27.023438 L 42.109375 26.070312 C 42.109375 25.800781 42.222656 25.554688 42.398438 25.378906 L 42.425781 25.351562 C 42.566406 25.214844 42.753906 25.125 42.957031 25.097656 C 43.003906 25.101562 43.054688 25.097656 43.101562 25.089844 C 43.367188 25.089844 43.609375 25.199219 43.78125 25.375 L 43.78125 25.378906 C 43.960938 25.554688 44.070312 25.800781 44.070312 26.070312 L 44.070312 27.023438 Z M 19.128906 14.210938 C 19.71875 14.210938 20.257812 13.976562 20.660156 13.59375 L 20.699219 13.558594 C 20.746094 13.511719 20.789062 13.464844 20.832031 13.414062 C 21.082031 14.320312 21.5625 15.132812 22.210938 15.78125 C 23.179688 16.75 24.519531 17.351562 26 17.351562 C 27.480469 17.351562 28.824219 16.75 29.792969 15.78125 C 30.4375 15.132812 30.921875 14.320312 31.171875 13.410156 C 31.210938 13.460938 31.257812 13.511719 31.300781 13.558594 C 31.515625 13.769531 31.765625 13.9375 32.046875 14.050781 C 31.914062 14.378906 31.761719 14.699219 31.589844 15.003906 C 31.304688 15.5 30.96875 15.960938 30.589844 16.371094 C 30.359375 16.625 30.375 17.015625 30.628906 17.25 C 30.878906 17.480469 31.273438 17.464844 31.503906 17.210938 C 31.945312 16.734375 32.335938 16.199219 32.667969 15.617188 C 32.929688 15.160156 33.152344 14.671875 33.335938 14.164062 C 33.746094 14.074219 34.113281 13.875 34.40625 13.59375 L 34.449219 13.558594 C 34.851562 13.15625 35.101562 12.597656 35.101562 11.984375 L 35.101562 11.03125 C 35.101562 10.417969 34.851562 9.863281 34.445312 9.460938 C 34.117188 9.128906 33.6875 8.902344 33.207031 8.832031 C 32.636719 7.460938 31.695312 6.292969 30.503906 5.445312 C 29.230469 4.542969 27.675781 4.011719 26.003906 4.011719 C 24.328125 4.011719 22.773438 4.542969 21.5 5.445312 C 20.308594 6.292969 19.367188 7.464844 18.796875 8.832031 C 18.335938 8.902344 17.921875 9.113281 17.597656 9.421875 L 17.554688 9.460938 C 17.152344 9.863281 16.902344 10.417969 16.902344 11.03125 L 16.902344 11.984375 C 16.902344 12.597656 17.152344 13.15625 17.554688 13.558594 C 17.960938 13.960938 18.515625 14.210938 19.128906 14.210938 Z M 28.914062 14.902344 C 28.167969 15.644531 27.136719 16.105469 26 16.105469 C 24.863281 16.105469 23.835938 15.644531 23.089844 14.902344 C 22.347656 14.15625 21.886719 13.128906 21.886719 11.992188 C 21.886719 10.855469 22.347656 9.824219 23.089844 9.082031 C 23.835938 8.335938 24.867188 7.875 26.003906 7.875 C 27.140625 7.875 28.167969 8.335938 28.914062 9.082031 C 29.65625 9.824219 30.117188 10.855469 30.117188 11.992188 C 30.117188 13.128906 29.65625 14.15625 28.914062 14.902344 Z M 33.855469 11.03125 L 33.855469 11.984375 C 33.855469 12.253906 33.746094 12.5 33.570312 12.675781 L 33.542969 12.703125 C 33.371094 12.867188 33.136719 12.964844 32.875 12.964844 C 32.605469 12.964844 32.359375 12.855469 32.183594 12.679688 L 32.183594 12.675781 C 32.003906 12.5 31.894531 12.253906 31.894531 11.984375 L 31.894531 11.03125 C 31.894531 10.761719 32.003906 10.515625 32.183594 10.339844 L 32.207031 10.3125 C 32.351562 10.179688 32.539062 10.089844 32.742188 10.0625 C 32.789062 10.0625 32.839844 10.058594 32.886719 10.050781 C 33.152344 10.054688 33.394531 10.164062 33.566406 10.335938 L 33.566406 10.339844 C 33.746094 10.519531 33.855469 10.765625 33.855469 11.03125 Z M 22.21875 6.460938 C 23.285156 5.703125 24.589844 5.257812 26.003906 5.257812 C 27.414062 5.257812 28.71875 5.703125 29.785156 6.460938 C 30.703125 7.109375 31.445312 7.992188 31.929688 9.019531 C 31.714844 9.121094 31.515625 9.257812 31.34375 9.421875 L 31.300781 9.460938 C 31.164062 9.597656 31.046875 9.753906 30.949219 9.921875 C 30.675781 9.273438 30.28125 8.691406 29.792969 8.199219 C 28.824219 7.230469 27.484375 6.628906 26.003906 6.628906 C 24.523438 6.628906 23.179688 7.230469 22.210938 8.199219 C 21.722656 8.691406 21.328125 9.273438 21.054688 9.921875 C 20.957031 9.753906 20.839844 9.597656 20.699219 9.460938 C 20.519531 9.277344 20.304688 9.128906 20.074219 9.019531 C 20.558594 7.992188 21.304688 7.109375 22.21875 6.460938 Z M 18.148438 11.03125 C 18.148438 10.761719 18.257812 10.515625 18.433594 10.339844 L 18.460938 10.3125 C 18.632812 10.152344 18.863281 10.054688 19.113281 10.050781 C 19.164062 10.0625 19.210938 10.066406 19.257812 10.0625 C 19.476562 10.089844 19.671875 10.191406 19.820312 10.335938 L 19.820312 10.339844 C 19.996094 10.519531 20.109375 10.765625 20.109375 11.03125 L 20.109375 11.984375 C 20.109375 12.253906 19.996094 12.5 19.820312 12.679688 L 19.796875 12.703125 C 19.621094 12.867188 19.386719 12.964844 19.128906 12.964844 C 18.855469 12.964844 18.613281 12.855469 18.433594 12.679688 L 18.433594 12.675781 C 18.257812 12.5 18.148438 12.253906 18.148438 11.984375 Z M 18.148438 11.03125 " fill-opacity="1" fill-rule="nonzero"/></g></svg>