<svg xmlns="http://www.w3.org/2000/svg" xmlns:xlink="http://www.w3.org/1999/xlink" width="70" zoomAndPan="magnify" viewBox="0 0 52.5 52.499999" height="70" preserveAspectRatio="xMidYMid meet" version="1.0"><defs><clipPath id="4d27c2b3ad"><path d="M 6.6875 4.011719 L 45.320312 4.011719 L 45.320312 42.644531 L 6.6875 42.644531 Z M 6.6875 4.011719 " clip-rule="nonzero"/></clipPath></defs><g clip-path="url(#4d27c2b3ad)"><path fill="#138653" d="M 19.5625 33.457031 L 12.015625 33.457031 C 10.699219 33.457031 9.5 33.996094 8.632812 34.863281 L 8.632812 34.867188 C 7.769531 35.734375 7.230469 36.929688 7.230469 38.242188 L 7.230469 42.019531 C 7.230469 42.363281 7.507812 42.644531 7.851562 42.644531 L 23.722656 42.644531 C 24.066406 42.644531 24.34375 42.363281 24.34375 42.019531 L 24.34375 38.242188 C 24.34375 36.925781 23.808594 35.730469 22.941406 34.863281 C 22.074219 33.996094 20.875 33.457031 19.5625 33.457031 Z M 23.097656 41.398438 L 8.476562 41.398438 L 8.476562 38.242188 C 8.476562 37.269531 8.875 36.382812 9.515625 35.746094 C 10.15625 35.101562 11.042969 34.703125 12.015625 34.703125 L 19.5625 34.703125 C 20.535156 34.703125 21.417969 35.101562 22.058594 35.746094 C 22.703125 36.386719 23.097656 37.269531 23.097656 38.242188 Z M 39.992188 33.457031 L 32.445312 33.457031 C 31.128906 33.457031 29.929688 33.996094 29.066406 34.863281 C 28.199219 35.730469 27.660156 36.925781 27.660156 38.242188 L 27.660156 42.019531 C 27.660156 42.363281 27.941406 42.644531 28.285156 42.644531 L 44.152344 42.644531 C 44.496094 42.644531 44.777344 42.363281 44.777344 42.019531 L 44.777344 38.242188 C 44.777344 36.925781 44.238281 35.730469 43.371094 34.863281 C 42.503906 33.996094 41.304688 33.457031 39.992188 33.457031 Z M 43.527344 41.398438 L 28.90625 41.398438 L 28.90625 38.242188 C 28.90625 37.269531 29.304688 36.386719 29.945312 35.746094 C 30.585938 35.101562 31.472656 34.703125 32.441406 34.703125 L 39.988281 34.703125 C 40.960938 34.703125 41.847656 35.101562 42.488281 35.746094 C 43.128906 36.386719 43.527344 37.269531 43.527344 38.242188 Z M 44.664062 24.5 C 44.335938 24.167969 43.902344 23.941406 43.425781 23.867188 C 42.855469 22.5 41.910156 21.328125 40.71875 20.484375 C 39.445312 19.582031 37.890625 19.050781 36.21875 19.050781 C 35.089844 19.050781 34.015625 19.292969 33.046875 19.726562 C 32.648438 19.351562 32.1875 19.042969 31.683594 18.820312 C 31.097656 18.5625 30.453125 18.421875 29.777344 18.421875 L 22.230469 18.421875 C 21.550781 18.421875 20.898438 18.566406 20.308594 18.824219 C 19.808594 19.046875 19.351562 19.355469 18.957031 19.722656 C 17.988281 19.289062 16.914062 19.050781 15.785156 19.050781 C 14.113281 19.050781 12.558594 19.582031 11.285156 20.484375 C 10.09375 21.328125 9.148438 22.5 8.582031 23.867188 C 8.121094 23.9375 7.707031 24.152344 7.378906 24.460938 L 7.339844 24.496094 C 6.9375 24.898438 6.6875 25.457031 6.6875 26.070312 L 6.6875 27.023438 C 6.6875 27.636719 6.9375 28.195312 7.339844 28.59375 C 7.746094 29 8.300781 29.25 8.914062 29.25 C 9.503906 29.25 10.042969 29.015625 10.445312 28.632812 L 10.484375 28.597656 C 10.53125 28.550781 10.574219 28.5 10.617188 28.453125 C 10.867188 29.359375 11.347656 30.171875 11.996094 30.820312 C 12.964844 31.792969 14.304688 32.390625 15.785156 32.390625 C 17.265625 32.390625 18.605469 31.789062 19.578125 30.820312 C 20.222656 30.171875 20.707031 29.359375 20.953125 28.453125 C 20.996094 28.5 21.042969 28.550781 21.085938 28.597656 C 21.300781 28.808594 21.550781 28.976562 21.832031 29.089844 C 21.699219 29.421875 21.546875 29.738281 21.375 30.042969 C 21.089844 30.542969 20.753906 31 20.375 31.410156 C 20.144531 31.664062 20.160156 32.054688 20.414062 32.289062 C 20.667969 32.519531 21.058594 32.503906 21.292969 32.25 C 21.730469 31.777344 22.121094 31.238281 22.453125 30.65625 C 22.714844 30.199219 22.9375 29.710938 23.121094 29.199219 C 23.53125 29.113281 23.898438 28.914062 24.191406 28.632812 L 24.230469 28.597656 C 24.636719 28.195312 24.886719 27.636719 24.886719 27.023438 L 24.886719 26.070312 C 24.886719 25.457031 24.636719 24.902344 24.230469 24.5 C 23.902344 24.167969 23.472656 23.941406 22.992188 23.867188 C 22.421875 22.5 21.480469 21.328125 20.289062 20.484375 C 20.230469 20.445312 20.175781 20.40625 20.117188 20.367188 C 20.332031 20.210938 20.5625 20.070312 20.808594 19.964844 C 21.242188 19.773438 21.722656 19.667969 22.226562 19.667969 L 29.773438 19.667969 C 30.277344 19.667969 30.753906 19.773438 31.1875 19.960938 C 31.433594 20.070312 31.667969 20.207031 31.882812 20.367188 C 31.824219 20.40625 31.769531 20.445312 31.710938 20.484375 C 30.519531 21.328125 29.578125 22.503906 29.007812 23.871094 C 28.527344 23.941406 28.097656 24.167969 27.769531 24.5 C 27.363281 24.902344 27.113281 25.457031 27.113281 26.070312 L 27.113281 27.023438 C 27.113281 27.636719 27.363281 28.195312 27.769531 28.597656 C 28.171875 29 28.730469 29.25 29.339844 29.25 C 29.953125 29.25 30.511719 29 30.914062 28.597656 L 30.914062 28.59375 C 30.960938 28.546875 31.003906 28.5 31.046875 28.449219 C 31.296875 29.359375 31.777344 30.171875 32.425781 30.820312 C 33.394531 31.789062 34.734375 32.390625 36.214844 32.390625 C 37.695312 32.390625 39.035156 31.789062 40.003906 30.820312 C 40.652344 30.171875 41.132812 29.359375 41.382812 28.453125 C 41.425781 28.5 41.46875 28.550781 41.515625 28.597656 C 41.726562 28.808594 41.980469 28.976562 42.261719 29.089844 C 42.128906 29.421875 41.976562 29.738281 41.804688 30.042969 C 41.519531 30.539062 41.183594 31 40.804688 31.410156 C 40.574219 31.664062 40.589844 32.054688 40.84375 32.289062 C 41.09375 32.519531 41.488281 32.503906 41.71875 32.25 C 42.160156 31.777344 42.550781 31.238281 42.882812 30.65625 C 43.144531 30.199219 43.367188 29.710938 43.550781 29.199219 C 43.957031 29.113281 44.328125 28.914062 44.621094 28.632812 L 44.660156 28.597656 C 45.0625 28.195312 45.316406 27.636719 45.316406 27.023438 L 45.316406 26.070312 C 45.320312 25.457031 45.066406 24.898438 44.664062 24.5 Z M 9.894531 27.023438 C 9.894531 27.292969 9.785156 27.535156 9.605469 27.714844 L 9.582031 27.742188 C 9.40625 27.902344 9.171875 28.003906 8.914062 28.003906 C 8.644531 28.003906 8.398438 27.894531 8.222656 27.71875 L 8.222656 27.714844 C 8.042969 27.535156 7.933594 27.292969 7.933594 27.023438 L 7.933594 26.070312 C 7.933594 25.800781 8.042969 25.554688 8.222656 25.378906 L 8.246094 25.351562 C 8.417969 25.191406 8.648438 25.09375 8.902344 25.089844 C 8.949219 25.097656 8.996094 25.101562 9.046875 25.097656 C 9.261719 25.128906 9.460938 25.230469 9.605469 25.375 L 9.605469 25.378906 C 9.785156 25.554688 9.894531 25.800781 9.894531 26.070312 Z M 18.699219 29.9375 C 17.953125 30.683594 16.921875 31.144531 15.785156 31.144531 C 14.648438 31.144531 13.621094 30.683594 12.875 29.9375 C 12.132812 29.195312 11.671875 28.164062 11.671875 27.027344 C 11.671875 25.890625 12.132812 24.863281 12.875 24.117188 C 13.621094 23.375 14.648438 22.914062 15.785156 22.914062 C 16.921875 22.914062 17.953125 23.375 18.699219 24.117188 C 19.441406 24.863281 19.902344 25.890625 19.902344 27.027344 C 19.902344 28.164062 19.441406 29.195312 18.699219 29.9375 Z M 23.644531 26.070312 L 23.644531 27.023438 C 23.644531 27.292969 23.53125 27.539062 23.355469 27.714844 L 23.328125 27.742188 C 23.15625 27.90625 22.921875 28.003906 22.660156 28.003906 C 22.390625 28.003906 22.144531 27.894531 21.96875 27.71875 L 21.96875 27.714844 C 21.792969 27.539062 21.679688 27.292969 21.679688 27.023438 L 21.679688 26.070312 C 21.679688 25.800781 21.792969 25.554688 21.96875 25.378906 L 21.996094 25.351562 C 22.136719 25.21875 22.324219 25.128906 22.527344 25.097656 C 22.574219 25.101562 22.625 25.097656 22.671875 25.089844 C 22.9375 25.09375 23.179688 25.203125 23.351562 25.375 L 23.351562 25.378906 C 23.53125 25.554688 23.644531 25.800781 23.644531 26.070312 Z M 21.71875 24.054688 C 21.5 24.160156 21.300781 24.296875 21.128906 24.460938 L 21.089844 24.496094 C 20.953125 24.632812 20.832031 24.789062 20.734375 24.960938 C 20.460938 24.3125 20.066406 23.726562 19.578125 23.238281 C 18.609375 22.265625 17.269531 21.667969 15.789062 21.667969 C 14.308594 21.667969 12.96875 22.269531 11.996094 23.238281 C 11.507812 23.726562 11.113281 24.3125 10.839844 24.960938 C 10.742188 24.789062 10.625 24.636719 10.484375 24.5 C 10.304688 24.316406 10.089844 24.167969 9.859375 24.054688 C 10.34375 23.027344 11.089844 22.148438 12.007812 21.496094 C 13.074219 20.742188 14.378906 20.296875 15.789062 20.296875 C 17.199219 20.296875 18.503906 20.738281 19.570312 21.496094 C 20.488281 22.148438 21.230469 23.027344 21.71875 24.054688 Z M 32.433594 21.496094 C 33.5 20.742188 34.804688 20.296875 36.214844 20.296875 C 37.628906 20.296875 38.933594 20.738281 40 21.496094 C 40.917969 22.148438 41.660156 23.03125 42.144531 24.054688 C 41.929688 24.160156 41.730469 24.296875 41.558594 24.460938 L 41.515625 24.496094 C 41.378906 24.632812 41.261719 24.789062 41.164062 24.960938 C 40.890625 24.3125 40.496094 23.726562 40.007812 23.238281 C 39.035156 22.265625 37.695312 21.667969 36.214844 21.667969 C 34.738281 21.667969 33.402344 22.265625 32.429688 23.238281 L 32.425781 23.242188 C 31.933594 23.730469 31.542969 24.3125 31.269531 24.960938 C 31.171875 24.792969 31.050781 24.636719 30.914062 24.5 L 30.914062 24.496094 C 30.730469 24.316406 30.519531 24.167969 30.285156 24.054688 C 30.773438 23.027344 31.515625 22.148438 32.433594 21.496094 Z M 30.324219 27.023438 C 30.324219 27.292969 30.214844 27.539062 30.035156 27.714844 C 29.859375 27.890625 29.613281 28.003906 29.34375 28.003906 C 29.074219 28.003906 28.828125 27.894531 28.652344 27.71875 L 28.652344 27.714844 C 28.472656 27.535156 28.363281 27.292969 28.363281 27.023438 L 28.363281 26.070312 C 28.363281 25.800781 28.472656 25.554688 28.652344 25.378906 C 28.824219 25.203125 29.066406 25.09375 29.332031 25.089844 C 29.378906 25.097656 29.429688 25.101562 29.476562 25.097656 C 29.691406 25.128906 29.890625 25.230469 30.035156 25.375 C 30.214844 25.554688 30.324219 25.800781 30.324219 26.070312 Z M 39.128906 29.9375 C 38.382812 30.683594 37.351562 31.144531 36.214844 31.144531 C 35.078125 31.144531 34.050781 30.683594 33.308594 29.9375 C 32.5625 29.195312 32.101562 28.164062 32.101562 27.027344 C 32.101562 25.890625 32.5625 24.863281 33.304688 24.117188 L 33.308594 24.117188 C 34.050781 23.375 35.078125 22.914062 36.214844 22.914062 C 37.351562 22.914062 38.382812 23.375 39.128906 24.117188 C 39.871094 24.863281 40.332031 25.890625 40.332031 27.027344 C 40.332031 28.164062 39.871094 29.195312 39.128906 29.9375 Z M 44.074219 27.023438 C 44.074219 27.292969 43.960938 27.535156 43.785156 27.714844 L 43.757812 27.742188 C 43.585938 27.902344 43.351562 28.003906 43.089844 28.003906 C 42.820312 28.003906 42.574219 27.894531 42.398438 27.71875 L 42.398438 27.714844 C 42.222656 27.535156 42.109375 27.292969 42.109375 27.023438 L 42.109375 26.070312 C 42.109375 25.800781 42.222656 25.554688 42.398438 25.378906 L 42.425781 25.351562 C 42.566406 25.214844 42.753906 25.125 42.957031 25.097656 C 43.003906 25.101562 43.054688 25.097656 43.101562 25.089844 C 43.367188 25.089844 43.609375 25.199219 43.78125 25.375 L 43.78125 25.378906 C 43.960938 25.554688 44.070312 25.800781 44.070312 26.070312 L 44.070312 27.023438 Z M 19.128906 14.210938 C 19.71875 14.210938 20.257812 13.976562 20.660156 13.59375 L 20.699219 13.558594 C 20.746094 13.511719 20.789062 13.464844 20.832031 13.414062 C 21.082031 14.320312 21.5625 15.132812 22.210938 15.78125 C 23.179688 16.75 24.519531 17.351562 26 17.351562 C 27.480469 17.351562 28.824219 16.75 29.792969 15.78125 C 30.4375 15.132812 30.921875 14.320312 31.171875 13.410156 C 31.210938 13.460938 31.257812 13.511719 31.300781 13.558594 C 31.515625 13.769531 31.765625 13.9375 32.046875 14.050781 C 31.914062 14.378906 31.761719 14.699219 31.589844 15.003906 C 31.304688 15.5 30.96875 15.960938 30.589844 16.371094 C 30.359375 16.625 30.375 17.015625 30.628906 17.25 C 30.878906 17.480469 31.273438 17.464844 31.503906 17.210938 C 31.945312 16.734375 32.335938 16.199219 32.667969 15.617188 C 32.929688 15.160156 33.152344 14.671875 33.335938 14.164062 C 33.746094 14.074219 34.113281 13.875 34.40625 13.59375 L 34.449219 13.558594 C 34.851562 13.15625 35.101562 12.597656 35.101562 11.984375 L 35.101562 11.03125 C 35.101562 10.417969 34.851562 9.863281 34.445312 9.460938 C 34.117188 9.128906 33.6875 8.902344 33.207031 8.832031 C 32.636719 7.460938 31.695312 6.292969 30.503906 5.445312 C 29.230469 4.542969 27.675781 4.011719 26.003906 4.011719 C 24.328125 4.011719 22.773438 4.542969 21.5 5.445312 C 20.308594 6.292969 19.367188 7.464844 18.796875 8.832031 C 18.335938 8.902344 17.921875 9.113281 17.597656 9.421875 L 17.554688 9.460938 C 17.152344 9.863281 16.902344 10.417969 16.902344 11.03125 L 16.902344 11.984375 C 16.902344 12.597656 17.152344 13.15625 17.554688 13.558594 C 17.960938 13.960938 18.515625 14.210938 19.128906 14.210938 Z M 28.914062 14.902344 C 28.167969 15.644531 27.136719 16.105469 26 16.105469 C 24.863281 16.105469 23.835938 15.644531 23.089844 14.902344 C 22.347656 14.15625 21.886719 13.128906 21.886719 11.992188 C 21.886719 10.855469 22.347656 9.824219 23.089844 9.082031 C 23.835938 8.335938 24.867188 7.875 26.003906 7.875 C 27.140625 7.875 28.167969 8.335938 28.914062 9.082031 C 29.65625 9.824219 30.117188 10.855469 30.117188 11.992188 C 30.117188 13.128906 29.65625 14.15625 28.914062 14.902344 Z M 33.855469 11.03125 L 33.855469 11.984375 C 33.855469 12.253906 33.746094 12.5 33.570312 12.675781 L 33.542969 12.703125 C 33.371094 12.867188 33.136719 12.964844 32.875 12.964844 C 32.605469 12.964844 32.359375 12.855469 32.183594 12.679688 L 32.183594 12.675781 C 32.003906 12.5 31.894531 12.253906 31.894531 11.984375 L 31.894531 11.03125 C 31.894531 10.761719 32.003906 10.515625 32.183594 10.339844 L 32.207031 10.3125 C 32.351562 10.179688 32.539062 10.089844 32.742188 10.0625 C 32.789062 10.0625 32.839844 10.058594 32.886719 10.050781 C 33.152344 10.054688 33.394531 10.164062 33.566406 10.335938 L 33.566406 10.339844 C 33.746094 10.519531 33.855469 10.765625 33.855469 11.03125 Z M 22.21875 6.460938 C 23.285156 5.703125 24.589844 5.257812 26.003906 5.257812 C 27.414062 5.257812 28.71875 5.703125 29.785156 6.460938 C 30.703125 7.109375 31.445312 7.992188 31.929688 9.019531 C 31.714844 9.121094 31.515625 9.257812 31.34375 9.421875 L 31.300781 9.460938 C 31.164062 9.597656 31.046875 9.753906 30.949219 9.921875 C 30.675781 9.273438 30.28125 8.691406 29.792969 8.199219 C 28.824219 7.230469 27.484375 6.628906 26.003906 6.628906 C 24.523438 6.628906 23.179688 7.230469 22.210938 8.199219 C 21.722656 8.691406 21.328125 9.273438 21.054688 9.921875 C 20.957031 9.753906 20.839844 9.597656 20.699219 9.460938 C 20.519531 9.277344 20.304688 9.128906 20.074219 9.019531 C 20.558594 7.992188 21.304688 7.109375 22.21875 6.460938 Z M 18.148438 11.03125 C 18.148438 10.761719 18.257812 10.515625 18.433594 10.339844 L 18.460938 10.3125 C 18.632812 10.152344 18.863281 10.054688 19.113281 10.050781 C 19.164062 10.0625 19.210938 10.066406 19.257812 10.0625 C 19.476562 10.089844 19.671875 10.191406 19.820312 10.335938 L 19.820312 10.339844 C 19.996094 10.519531 20.109375 10.765625 20.109375 11.03125 L 20.109375 11.984375 C 20.109375 12.253906 19.996094 12.5 19.820312 12.679688 L 19.796875 12.703125 C 19.621094 12.867188 19.386719 12.964844 19.128906 12.964844 C 18.855469 12.964844 18.613281 12.855469 18.433594 12.679688 L 18.433594 12.675781 C 18.257812 12.5 18.148438 12.253906 18.148438 11.984375 Z M 18.148438 11.03125 " fill-opacity="1" fill-rule="nonzero"/></g></svg>