<svg xmlns="http://www.w3.org/2000/svg" xmlns:xlink="http://www.w3.org/1999/xlink" width="70" zoomAndPan="magnify" viewBox="0 0 52.5 52.499999" height="70" preserveAspectRatio="xMidYMid meet" version="1.0"><defs><clipPath id="5af1c9f119"><path d="M 6.25 5.199219 L 45.625 5.199219 L 45.625 50.519531 L 6.25 50.519531 Z M 6.25 5.199219 " clip-rule="nonzero"/></clipPath></defs><g clip-path="url(#5af1c9f119)"><path fill="#138653" d="M 45.757812 16.957031 C 45.757812 16.699219 45.617188 16.457031 45.390625 16.324219 L 26.371094 5.34375 C 26.144531 5.210938 25.863281 5.210938 25.636719 5.34375 L 13.316406 12.457031 C 13.316406 12.457031 13.316406 12.457031 13.3125 12.457031 L 6.621094 16.324219 C 6.617188 16.324219 6.617188 16.324219 6.617188 16.324219 C 6.585938 16.339844 6.558594 16.359375 6.535156 16.378906 C 6.355469 16.515625 6.25 16.730469 6.25 16.960938 C 6.25 16.964844 6.25 16.972656 6.25 16.976562 L 6.25 38.925781 C 6.25 39.1875 6.390625 39.425781 6.613281 39.558594 L 25.636719 50.539062 C 25.75 50.605469 25.875 50.636719 26.003906 50.636719 C 26.128906 50.636719 26.253906 50.605469 26.367188 50.539062 L 45.390625 39.558594 C 45.617188 39.425781 45.757812 39.1875 45.757812 38.925781 Z M 37.949219 21.886719 L 37.949219 24.957031 L 33.570312 27.484375 L 33.570312 24.414062 Z M 13.699219 13.929688 L 31.253906 24.0625 L 26.003906 27.09375 L 8.445312 16.957031 Z M 19.660156 10.484375 L 37.21875 20.621094 L 32.71875 23.21875 L 15.160156 13.082031 Z M 26.003906 6.824219 L 43.558594 16.957031 L 38.683594 19.777344 L 21.125 9.636719 Z M 7.714844 18.226562 L 25.273438 28.363281 L 25.273438 48.640625 L 7.714844 38.503906 Z M 26.734375 48.636719 L 26.734375 28.363281 L 32.109375 25.261719 L 32.109375 28.75 C 32.109375 29.011719 32.25 29.253906 32.476562 29.386719 C 32.589844 29.449219 32.714844 29.484375 32.839844 29.484375 C 32.96875 29.484375 33.09375 29.449219 33.207031 29.386719 L 39.046875 26.011719 C 39.273438 25.882812 39.414062 25.640625 39.414062 25.378906 L 39.414062 21.042969 L 44.292969 18.226562 L 44.292969 38.5 Z M 35.5 33.394531 C 35.273438 33.265625 34.992188 33.265625 34.765625 33.394531 L 29.1875 36.617188 C 28.960938 36.746094 28.824219 36.988281 28.824219 37.25 L 28.824219 43.691406 C 28.824219 43.953125 28.960938 44.195312 29.1875 44.324219 C 29.300781 44.390625 29.429688 44.421875 29.554688 44.421875 C 29.679688 44.421875 29.808594 44.390625 29.921875 44.324219 L 35.5 41.101562 C 35.722656 40.972656 35.863281 40.730469 35.863281 40.46875 L 35.863281 34.027344 C 35.863281 33.769531 35.722656 33.527344 35.5 33.394531 Z M 30.285156 42.421875 L 30.285156 37.671875 L 34.398438 35.296875 L 34.398438 40.046875 Z M 14.238281 39.292969 C 14.101562 39.527344 13.855469 39.65625 13.601562 39.65625 C 13.480469 39.65625 13.351562 39.625 13.238281 39.558594 L 9.441406 37.367188 C 9.089844 37.167969 8.972656 36.71875 9.175781 36.367188 C 9.375 36.019531 9.824219 35.898438 10.171875 36.101562 L 13.96875 38.292969 C 14.320312 38.496094 14.441406 38.941406 14.238281 39.292969 Z M 14.238281 39.292969 " fill-opacity="1" fill-rule="nonzero"/></g></svg>