<svg xmlns="http://www.w3.org/2000/svg" xmlns:xlink="http://www.w3.org/1999/xlink" width="70" zoomAndPan="magnify" viewBox="0 0 52.5 52.499999" height="70" preserveAspectRatio="xMidYMid meet" version="1.0"><defs><clipPath id="1f2fa3cbe9"><path d="M 13.128906 3.0625 L 39 3.0625 L 39 49 L 13.128906 49 Z M 13.128906 3.0625 " clip-rule="nonzero"/></clipPath></defs><g clip-path="url(#1f2fa3cbe9)"><path fill="#138653" d="M 37.46875 43.070312 C 37.46875 44.144531 36.59375 45.019531 35.519531 45.019531 L 34.671875 45.019531 L 34.671875 19.566406 L 35.519531 19.566406 C 36.59375 19.566406 37.46875 20.441406 37.46875 21.515625 Z M 34.160156 46.976562 C 34.160156 47.285156 33.910156 47.535156 33.601562 47.535156 C 33.292969 47.535156 33.039062 47.285156 33.039062 46.976562 L 33.039062 46.417969 L 34.160156 46.417969 Z M 19.054688 46.976562 C 19.054688 47.285156 18.804688 47.535156 18.496094 47.535156 C 18.1875 47.535156 17.9375 47.285156 17.9375 46.976562 L 17.9375 46.417969 L 19.054688 46.417969 Z M 14.535156 43.070312 L 14.535156 21.515625 C 14.535156 20.441406 15.40625 19.566406 16.484375 19.566406 L 17.332031 19.566406 L 17.332031 45.019531 L 16.484375 45.019531 C 15.40625 45.019531 14.535156 44.144531 14.535156 43.070312 Z M 20.734375 19.566406 L 33.273438 19.566406 L 33.273438 45.019531 L 18.730469 45.019531 L 18.730469 19.566406 Z M 21.433594 5.300781 L 21.527344 5.300781 L 21.527344 5.441406 C 21.527344 5.828125 21.839844 6.140625 22.226562 6.140625 L 29.777344 6.140625 C 30.164062 6.140625 30.476562 5.828125 30.476562 5.441406 L 30.476562 5.300781 L 30.570312 5.300781 L 30.570312 18.167969 L 21.433594 18.167969 Z M 22.925781 4.460938 L 29.078125 4.460938 L 29.078125 4.742188 L 22.925781 4.742188 Z M 35.519531 18.167969 L 31.96875 18.167969 L 31.96875 4.601562 C 31.96875 4.214844 31.65625 3.902344 31.269531 3.902344 L 30.476562 3.902344 L 30.476562 3.761719 C 30.476562 3.375 30.164062 3.0625 29.777344 3.0625 L 22.226562 3.0625 C 21.839844 3.0625 21.527344 3.375 21.527344 3.761719 L 21.527344 3.902344 L 20.734375 3.902344 C 20.347656 3.902344 20.035156 4.214844 20.035156 4.601562 L 20.035156 18.167969 L 16.484375 18.167969 C 14.636719 18.167969 13.136719 19.667969 13.136719 21.515625 L 13.136719 43.070312 C 13.136719 44.914062 14.636719 46.417969 16.484375 46.417969 L 16.539062 46.417969 L 16.539062 46.976562 C 16.539062 48.054688 17.417969 48.933594 18.496094 48.933594 C 19.574219 48.933594 20.453125 48.054688 20.453125 46.976562 L 20.453125 46.417969 L 31.640625 46.417969 L 31.640625 46.976562 C 31.640625 48.054688 32.519531 48.933594 33.601562 48.933594 C 34.679688 48.933594 35.558594 48.054688 35.558594 46.976562 L 35.558594 46.417969 C 37.386719 46.394531 38.867188 44.902344 38.867188 43.070312 L 38.867188 21.515625 C 38.867188 19.667969 37.367188 18.167969 35.519531 18.167969 " fill-opacity="1" fill-rule="nonzero"/></g><path fill="#138653" d="M 23.066406 22.921875 L 28.9375 22.921875 C 29.324219 22.921875 29.636719 22.609375 29.636719 22.222656 C 29.636719 21.835938 29.324219 21.523438 28.9375 21.523438 L 23.066406 21.523438 C 22.679688 21.523438 22.367188 21.835938 22.367188 22.222656 C 22.367188 22.609375 22.679688 22.921875 23.066406 22.921875 " fill-opacity="1" fill-rule="nonzero"/></svg>