<svg xmlns="http://www.w3.org/2000/svg" xmlns:xlink="http://www.w3.org/1999/xlink" width="70" zoomAndPan="magnify" viewBox="0 0 52.5 52.499999" height="70" preserveAspectRatio="xMidYMid meet" version="1.0"><defs><filter x="0%" y="0%" width="100%" height="100%" id="d6ae52fc26"><feColorMatrix values="0 0 0 0 1 0 0 0 0 1 0 0 0 0 1 0 0 0 1 0" color-interpolation-filters="sRGB"/></filter><mask id="b5a04290f4"><g filter="url(#d6ae52fc26)"><rect x="-5.25" width="63" fill="#000000" y="-5.25" height="62.999999" fill-opacity="0.56"/></g></mask><clipPath id="0c6ee0811a"><path d="M 0.445312 0.445312 L 51.558594 0.445312 L 51.558594 51.558594 L 0.445312 51.558594 Z M 0.445312 0.445312 " clip-rule="nonzero"/></clipPath><clipPath id="ef0f2c3444"><path d="M 26.003906 0.445312 C 11.886719 0.445312 0.445312 11.886719 0.445312 26.003906 C 0.445312 40.117188 11.886719 51.558594 26.003906 51.558594 C 40.117188 51.558594 51.558594 40.117188 51.558594 26.003906 C 51.558594 11.886719 40.117188 0.445312 26.003906 0.445312 Z M 26.003906 0.445312 " clip-rule="nonzero"/></clipPath><linearGradient x1="0" gradientTransform="matrix(0.199661, 0, 0, 0.199661, 0.445755, 0.445756)" y1="0" x2="256" gradientUnits="userSpaceOnUse" y2="0" id="df0c8a6432"><stop stop-opacity="1" stop-color="rgb(14.099121%, 60.398865%, 46.699524%)" offset="0"/><stop stop-opacity="1" stop-color="rgb(14.27002%, 60.446167%, 46.907043%)" offset="0.00390625"/><stop stop-opacity="1" stop-color="rgb(14.442444%, 60.493469%, 47.116089%)" offset="0.0078125"/><stop stop-opacity="1" stop-color="rgb(14.613342%, 60.540771%, 47.323608%)" offset="0.0117188"/><stop stop-opacity="1" stop-color="rgb(14.785767%, 60.588074%, 47.532654%)" offset="0.015625"/><stop stop-opacity="1" stop-color="rgb(14.956665%, 60.635376%, 47.740173%)" offset="0.0195313"/><stop stop-opacity="1" stop-color="rgb(15.127563%, 60.682678%, 47.949219%)" offset="0.0234375"/><stop stop-opacity="1" stop-color="rgb(15.298462%, 60.72998%, 48.156738%)" offset="0.0273438"/><stop stop-opacity="1" stop-color="rgb(15.470886%, 60.777283%, 48.364258%)" offset="0.03125"/><stop stop-opacity="1" stop-color="rgb(15.641785%, 60.824585%, 48.571777%)" offset="0.0351563"/><stop stop-opacity="1" stop-color="rgb(15.814209%, 60.871887%, 48.780823%)" offset="0.0390625"/><stop stop-opacity="1" stop-color="rgb(15.985107%, 60.919189%, 48.988342%)" offset="0.0429688"/><stop stop-opacity="1" stop-color="rgb(16.157532%, 60.966492%, 49.197388%)" offset="0.046875"/><stop stop-opacity="1" stop-color="rgb(16.32843%, 61.013794%, 49.404907%)" offset="0.0507812"/><stop stop-opacity="1" stop-color="rgb(16.499329%, 61.061096%, 49.613953%)" offset="0.0546875"/><stop stop-opacity="1" stop-color="rgb(16.670227%, 61.108398%, 49.821472%)" offset="0.0585938"/><stop stop-opacity="1" stop-color="rgb(16.842651%, 61.155701%, 50.030518%)" offset="0.0625"/><stop stop-opacity="1" stop-color="rgb(17.01355%, 61.203003%, 50.238037%)" offset="0.0664063"/><stop stop-opacity="1" stop-color="rgb(17.185974%, 61.250305%, 50.447083%)" offset="0.0703125"/><stop stop-opacity="1" stop-color="rgb(17.356873%, 61.297607%, 50.654602%)" offset="0.0742188"/><stop stop-opacity="1" stop-color="rgb(17.529297%, 61.34491%, 50.863647%)" offset="0.078125"/><stop stop-opacity="1" stop-color="rgb(17.700195%, 61.392212%, 51.071167%)" offset="0.0820313"/><stop stop-opacity="1" stop-color="rgb(17.87262%, 61.439514%, 51.280212%)" offset="0.0859375"/><stop stop-opacity="1" stop-color="rgb(18.043518%, 61.486816%, 51.487732%)" offset="0.0898438"/><stop stop-opacity="1" stop-color="rgb(18.214417%, 61.534119%, 51.696777%)" offset="0.09375"/><stop stop-opacity="1" stop-color="rgb(18.385315%, 61.581421%, 51.904297%)" offset="0.0976562"/><stop stop-opacity="1" stop-color="rgb(18.557739%, 61.628723%, 52.111816%)" offset="0.101562"/><stop stop-opacity="1" stop-color="rgb(18.728638%, 61.676025%, 52.319336%)" offset="0.105469"/><stop stop-opacity="1" stop-color="rgb(18.901062%, 61.723328%, 52.528381%)" offset="0.109375"/><stop stop-opacity="1" stop-color="rgb(19.07196%, 61.77063%, 52.735901%)" offset="0.113281"/><stop stop-opacity="1" stop-color="rgb(19.244385%, 61.817932%, 52.944946%)" offset="0.117188"/><stop stop-opacity="1" stop-color="rgb(19.415283%, 61.863708%, 53.152466%)" offset="0.121094"/><stop stop-opacity="1" stop-color="rgb(19.586182%, 61.911011%, 53.361511%)" offset="0.125"/><stop stop-opacity="1" stop-color="rgb(19.75708%, 61.958313%, 53.569031%)" offset="0.128906"/><stop stop-opacity="1" stop-color="rgb(19.929504%, 62.005615%, 53.778076%)" offset="0.132813"/><stop stop-opacity="1" stop-color="rgb(20.100403%, 62.052917%, 53.985596%)" offset="0.136719"/><stop stop-opacity="1" stop-color="rgb(20.272827%, 62.10022%, 54.194641%)" offset="0.140625"/><stop stop-opacity="1" stop-color="rgb(20.443726%, 62.147522%, 54.402161%)" offset="0.144531"/><stop stop-opacity="1" stop-color="rgb(20.61615%, 62.194824%, 54.611206%)" offset="0.148438"/><stop stop-opacity="1" stop-color="rgb(20.787048%, 62.242126%, 54.818726%)" offset="0.152344"/><stop stop-opacity="1" stop-color="rgb(20.957947%, 62.289429%, 55.027771%)" offset="0.15625"/><stop stop-opacity="1" stop-color="rgb(21.128845%, 62.336731%, 55.235291%)" offset="0.160156"/><stop stop-opacity="1" stop-color="rgb(21.30127%, 62.384033%, 55.444336%)" offset="0.164063"/><stop stop-opacity="1" stop-color="rgb(21.472168%, 62.431335%, 55.651855%)" offset="0.167969"/><stop stop-opacity="1" stop-color="rgb(21.644592%, 62.478638%, 55.860901%)" offset="0.171875"/><stop stop-opacity="1" stop-color="rgb(21.815491%, 62.52594%, 56.06842%)" offset="0.175781"/><stop stop-opacity="1" stop-color="rgb(21.987915%, 62.573242%, 56.27594%)" offset="0.179688"/><stop stop-opacity="1" stop-color="rgb(22.158813%, 62.620544%, 56.483459%)" offset="0.183594"/><stop stop-opacity="1" stop-color="rgb(22.331238%, 62.667847%, 56.692505%)" offset="0.1875"/><stop stop-opacity="1" stop-color="rgb(22.502136%, 62.715149%, 56.900024%)" offset="0.191406"/><stop stop-opacity="1" stop-color="rgb(22.673035%, 62.762451%, 57.10907%)" offset="0.195312"/><stop stop-opacity="1" stop-color="rgb(22.843933%, 62.809753%, 57.316589%)" offset="0.199219"/><stop stop-opacity="1" stop-color="rgb(23.016357%, 62.857056%, 57.525635%)" offset="0.203125"/><stop stop-opacity="1" stop-color="rgb(23.187256%, 62.904358%, 57.733154%)" offset="0.207031"/><stop stop-opacity="1" stop-color="rgb(23.35968%, 62.95166%, 57.9422%)" offset="0.210938"/><stop stop-opacity="1" stop-color="rgb(23.530579%, 62.998962%, 58.149719%)" offset="0.214844"/><stop stop-opacity="1" stop-color="rgb(23.703003%, 63.046265%, 58.358765%)" offset="0.21875"/><stop stop-opacity="1" stop-color="rgb(23.873901%, 63.093567%, 58.566284%)" offset="0.222656"/><stop stop-opacity="1" stop-color="rgb(24.0448%, 63.140869%, 58.77533%)" offset="0.226562"/><stop stop-opacity="1" stop-color="rgb(24.215698%, 63.188171%, 58.982849%)" offset="0.230469"/><stop stop-opacity="1" stop-color="rgb(24.388123%, 63.235474%, 59.191895%)" offset="0.234375"/><stop stop-opacity="1" stop-color="rgb(24.559021%, 63.282776%, 59.399414%)" offset="0.238281"/><stop stop-opacity="1" stop-color="rgb(24.731445%, 63.330078%, 59.608459%)" offset="0.242188"/><stop stop-opacity="1" stop-color="rgb(24.902344%, 63.37738%, 59.815979%)" offset="0.246094"/><stop stop-opacity="1" stop-color="rgb(25.074768%, 63.424683%, 60.023499%)" offset="0.25"/><stop stop-opacity="1" stop-color="rgb(25.245667%, 63.471985%, 60.231018%)" offset="0.253906"/><stop stop-opacity="1" stop-color="rgb(25.416565%, 63.519287%, 60.440063%)" offset="0.257813"/><stop stop-opacity="1" stop-color="rgb(25.587463%, 63.566589%, 60.647583%)" offset="0.261719"/><stop stop-opacity="1" stop-color="rgb(25.759888%, 63.613892%, 60.856628%)" offset="0.265625"/><stop stop-opacity="1" stop-color="rgb(25.930786%, 63.661194%, 61.064148%)" offset="0.269531"/><stop stop-opacity="1" stop-color="rgb(26.10321%, 63.708496%, 61.273193%)" offset="0.273438"/><stop stop-opacity="1" stop-color="rgb(26.274109%, 63.755798%, 61.480713%)" offset="0.277344"/><stop stop-opacity="1" stop-color="rgb(26.446533%, 63.803101%, 61.689758%)" offset="0.28125"/><stop stop-opacity="1" stop-color="rgb(26.617432%, 63.848877%, 61.897278%)" offset="0.285156"/><stop stop-opacity="1" stop-color="rgb(26.78833%, 63.896179%, 62.106323%)" offset="0.289063"/><stop stop-opacity="1" stop-color="rgb(26.959229%, 63.943481%, 62.313843%)" offset="0.292969"/><stop stop-opacity="1" stop-color="rgb(27.131653%, 63.990784%, 62.522888%)" offset="0.296875"/><stop stop-opacity="1" stop-color="rgb(27.302551%, 64.038086%, 62.730408%)" offset="0.300781"/><stop stop-opacity="1" stop-color="rgb(27.474976%, 64.085388%, 62.939453%)" offset="0.304688"/><stop stop-opacity="1" stop-color="rgb(27.645874%, 64.13269%, 63.146973%)" offset="0.308594"/><stop stop-opacity="1" stop-color="rgb(27.818298%, 64.179993%, 63.356018%)" offset="0.3125"/><stop stop-opacity="1" stop-color="rgb(27.989197%, 64.227295%, 63.563538%)" offset="0.316406"/><stop stop-opacity="1" stop-color="rgb(28.161621%, 64.274597%, 63.772583%)" offset="0.320313"/><stop stop-opacity="1" stop-color="rgb(28.33252%, 64.321899%, 63.980103%)" offset="0.324219"/><stop stop-opacity="1" stop-color="rgb(28.503418%, 64.369202%, 64.187622%)" offset="0.328125"/><stop stop-opacity="1" stop-color="rgb(28.674316%, 64.416504%, 64.395142%)" offset="0.332031"/><stop stop-opacity="1" stop-color="rgb(28.846741%, 64.463806%, 64.604187%)" offset="0.335938"/><stop stop-opacity="1" stop-color="rgb(29.017639%, 64.511108%, 64.811707%)" offset="0.339844"/><stop stop-opacity="1" stop-color="rgb(29.190063%, 64.558411%, 65.020752%)" offset="0.34375"/><stop stop-opacity="1" stop-color="rgb(29.360962%, 64.605713%, 65.228271%)" offset="0.347656"/><stop stop-opacity="1" stop-color="rgb(29.533386%, 64.653015%, 65.437317%)" offset="0.351563"/><stop stop-opacity="1" stop-color="rgb(29.704285%, 64.700317%, 65.644836%)" offset="0.355469"/><stop stop-opacity="1" stop-color="rgb(29.875183%, 64.74762%, 65.853882%)" offset="0.359375"/><stop stop-opacity="1" stop-color="rgb(30.046082%, 64.794922%, 66.061401%)" offset="0.363281"/><stop stop-opacity="1" stop-color="rgb(30.218506%, 64.842224%, 66.270447%)" offset="0.367188"/><stop stop-opacity="1" stop-color="rgb(30.389404%, 64.889526%, 66.477966%)" offset="0.371094"/><stop stop-opacity="1" stop-color="rgb(30.561829%, 64.936829%, 66.687012%)" offset="0.375"/><stop stop-opacity="1" stop-color="rgb(30.732727%, 64.984131%, 66.894531%)" offset="0.378906"/><stop stop-opacity="1" stop-color="rgb(30.905151%, 65.031433%, 67.103577%)" offset="0.382812"/><stop stop-opacity="1" stop-color="rgb(31.07605%, 65.078735%, 67.311096%)" offset="0.386719"/><stop stop-opacity="1" stop-color="rgb(31.246948%, 65.126038%, 67.520142%)" offset="0.390625"/><stop stop-opacity="1" stop-color="rgb(31.417847%, 65.17334%, 67.727661%)" offset="0.394531"/><stop stop-opacity="1" stop-color="rgb(31.590271%, 65.220642%, 67.936707%)" offset="0.398438"/><stop stop-opacity="1" stop-color="rgb(31.761169%, 65.267944%, 68.144226%)" offset="0.402344"/><stop stop-opacity="1" stop-color="rgb(31.933594%, 65.315247%, 68.351746%)" offset="0.40625"/><stop stop-opacity="1" stop-color="rgb(32.104492%, 65.362549%, 68.559265%)" offset="0.410156"/><stop stop-opacity="1" stop-color="rgb(32.276917%, 65.409851%, 68.768311%)" offset="0.414062"/><stop stop-opacity="1" stop-color="rgb(32.447815%, 65.457153%, 68.97583%)" offset="0.417969"/><stop stop-opacity="1" stop-color="rgb(32.620239%, 65.504456%, 69.184875%)" offset="0.421875"/><stop stop-opacity="1" stop-color="rgb(32.791138%, 65.551758%, 69.392395%)" offset="0.425781"/><stop stop-opacity="1" stop-color="rgb(32.962036%, 65.59906%, 69.60144%)" offset="0.429688"/><stop stop-opacity="1" stop-color="rgb(33.132935%, 65.646362%, 69.80896%)" offset="0.433594"/><stop stop-opacity="1" stop-color="rgb(33.305359%, 65.693665%, 70.018005%)" offset="0.4375"/><stop stop-opacity="1" stop-color="rgb(33.476257%, 65.740967%, 70.225525%)" offset="0.441406"/><stop stop-opacity="1" stop-color="rgb(33.648682%, 65.788269%, 70.43457%)" offset="0.445312"/><stop stop-opacity="1" stop-color="rgb(33.81958%, 65.834045%, 70.64209%)" offset="0.449219"/><stop stop-opacity="1" stop-color="rgb(33.992004%, 65.881348%, 70.851135%)" offset="0.453125"/><stop stop-opacity="1" stop-color="rgb(34.162903%, 65.92865%, 71.058655%)" offset="0.457031"/><stop stop-opacity="1" stop-color="rgb(34.333801%, 65.975952%, 71.2677%)" offset="0.460938"/><stop stop-opacity="1" stop-color="rgb(34.5047%, 66.023254%, 71.47522%)" offset="0.464844"/><stop stop-opacity="1" stop-color="rgb(34.677124%, 66.070557%, 71.684265%)" offset="0.46875"/><stop stop-opacity="1" stop-color="rgb(34.848022%, 66.117859%, 71.891785%)" offset="0.472656"/><stop stop-opacity="1" stop-color="rgb(35.020447%, 66.165161%, 72.099304%)" offset="0.476562"/><stop stop-opacity="1" stop-color="rgb(35.191345%, 66.212463%, 72.306824%)" offset="0.480469"/><stop stop-opacity="1" stop-color="rgb(35.36377%, 66.259766%, 72.515869%)" offset="0.484375"/><stop stop-opacity="1" stop-color="rgb(35.534668%, 66.307068%, 72.723389%)" offset="0.488281"/><stop stop-opacity="1" stop-color="rgb(35.705566%, 66.35437%, 72.932434%)" offset="0.492188"/><stop stop-opacity="1" stop-color="rgb(35.876465%, 66.401672%, 73.139954%)" offset="0.496094"/><stop stop-opacity="1" stop-color="rgb(36.048889%, 66.448975%, 73.348999%)" offset="0.5"/><stop stop-opacity="1" stop-color="rgb(36.219788%, 66.496277%, 73.556519%)" offset="0.503906"/><stop stop-opacity="1" stop-color="rgb(36.392212%, 66.543579%, 73.765564%)" offset="0.507813"/><stop stop-opacity="1" stop-color="rgb(36.56311%, 66.590881%, 73.973083%)" offset="0.511719"/><stop stop-opacity="1" stop-color="rgb(36.735535%, 66.638184%, 74.182129%)" offset="0.515625"/><stop stop-opacity="1" stop-color="rgb(36.906433%, 66.685486%, 74.389648%)" offset="0.519531"/><stop stop-opacity="1" stop-color="rgb(37.078857%, 66.732788%, 74.598694%)" offset="0.523438"/><stop stop-opacity="1" stop-color="rgb(37.249756%, 66.78009%, 74.806213%)" offset="0.527344"/><stop stop-opacity="1" stop-color="rgb(37.420654%, 66.827393%, 75.015259%)" offset="0.53125"/><stop stop-opacity="1" stop-color="rgb(37.591553%, 66.874695%, 75.222778%)" offset="0.535156"/><stop stop-opacity="1" stop-color="rgb(37.763977%, 66.921997%, 75.431824%)" offset="0.539063"/><stop stop-opacity="1" stop-color="rgb(37.934875%, 66.969299%, 75.639343%)" offset="0.542969"/><stop stop-opacity="1" stop-color="rgb(38.1073%, 67.016602%, 75.848389%)" offset="0.546875"/><stop stop-opacity="1" stop-color="rgb(38.278198%, 67.063904%, 76.055908%)" offset="0.550781"/><stop stop-opacity="1" stop-color="rgb(38.450623%, 67.111206%, 76.263428%)" offset="0.554688"/><stop stop-opacity="1" stop-color="rgb(38.621521%, 67.158508%, 76.470947%)" offset="0.558594"/><stop stop-opacity="1" stop-color="rgb(38.792419%, 67.205811%, 76.679993%)" offset="0.5625"/><stop stop-opacity="1" stop-color="rgb(38.963318%, 67.253113%, 76.887512%)" offset="0.566406"/><stop stop-opacity="1" stop-color="rgb(39.135742%, 67.300415%, 77.096558%)" offset="0.570313"/><stop stop-opacity="1" stop-color="rgb(39.306641%, 67.347717%, 77.304077%)" offset="0.574219"/><stop stop-opacity="1" stop-color="rgb(39.479065%, 67.39502%, 77.513123%)" offset="0.578125"/><stop stop-opacity="1" stop-color="rgb(39.649963%, 67.442322%, 77.720642%)" offset="0.582031"/><stop stop-opacity="1" stop-color="rgb(39.822388%, 67.489624%, 77.929688%)" offset="0.585938"/><stop stop-opacity="1" stop-color="rgb(39.993286%, 67.536926%, 78.137207%)" offset="0.589844"/><stop stop-opacity="1" stop-color="rgb(40.164185%, 67.584229%, 78.346252%)" offset="0.59375"/><stop stop-opacity="1" stop-color="rgb(40.335083%, 67.631531%, 78.553772%)" offset="0.597656"/><stop stop-opacity="1" stop-color="rgb(40.507507%, 67.678833%, 78.762817%)" offset="0.601563"/><stop stop-opacity="1" stop-color="rgb(40.678406%, 67.726135%, 78.970337%)" offset="0.605469"/><stop stop-opacity="1" stop-color="rgb(40.85083%, 67.773438%, 79.179382%)" offset="0.609375"/><stop stop-opacity="1" stop-color="rgb(41.021729%, 67.819214%, 79.386902%)" offset="0.613281"/><stop stop-opacity="1" stop-color="rgb(41.194153%, 67.866516%, 79.595947%)" offset="0.617188"/><stop stop-opacity="1" stop-color="rgb(41.365051%, 67.913818%, 79.803467%)" offset="0.621094"/><stop stop-opacity="1" stop-color="rgb(41.537476%, 67.961121%, 80.010986%)" offset="0.625"/><stop stop-opacity="1" stop-color="rgb(41.708374%, 68.008423%, 80.218506%)" offset="0.628906"/><stop stop-opacity="1" stop-color="rgb(41.879272%, 68.055725%, 80.427551%)" offset="0.632813"/><stop stop-opacity="1" stop-color="rgb(42.050171%, 68.103027%, 80.635071%)" offset="0.636719"/><stop stop-opacity="1" stop-color="rgb(42.222595%, 68.15033%, 80.844116%)" offset="0.640625"/><stop stop-opacity="1" stop-color="rgb(42.393494%, 68.197632%, 81.051636%)" offset="0.644531"/><stop stop-opacity="1" stop-color="rgb(42.565918%, 68.244934%, 81.260681%)" offset="0.648438"/><stop stop-opacity="1" stop-color="rgb(42.736816%, 68.292236%, 81.468201%)" offset="0.652344"/><stop stop-opacity="1" stop-color="rgb(42.909241%, 68.339539%, 81.677246%)" offset="0.65625"/><stop stop-opacity="1" stop-color="rgb(43.080139%, 68.386841%, 81.884766%)" offset="0.660156"/><stop stop-opacity="1" stop-color="rgb(43.251038%, 68.434143%, 82.093811%)" offset="0.664063"/><stop stop-opacity="1" stop-color="rgb(43.421936%, 68.481445%, 82.301331%)" offset="0.667969"/><stop stop-opacity="1" stop-color="rgb(43.59436%, 68.528748%, 82.510376%)" offset="0.671875"/><stop stop-opacity="1" stop-color="rgb(43.765259%, 68.57605%, 82.717896%)" offset="0.675781"/><stop stop-opacity="1" stop-color="rgb(43.937683%, 68.623352%, 82.926941%)" offset="0.679688"/><stop stop-opacity="1" stop-color="rgb(44.108582%, 68.670654%, 83.13446%)" offset="0.683594"/><stop stop-opacity="1" stop-color="rgb(44.281006%, 68.717957%, 83.343506%)" offset="0.6875"/><stop stop-opacity="1" stop-color="rgb(44.451904%, 68.765259%, 83.551025%)" offset="0.691406"/><stop stop-opacity="1" stop-color="rgb(44.622803%, 68.812561%, 83.760071%)" offset="0.695313"/><stop stop-opacity="1" stop-color="rgb(44.793701%, 68.859863%, 83.96759%)" offset="0.699219"/><stop stop-opacity="1" stop-color="rgb(44.966125%, 68.907166%, 84.17511%)" offset="0.703125"/><stop stop-opacity="1" stop-color="rgb(45.137024%, 68.954468%, 84.382629%)" offset="0.707031"/><stop stop-opacity="1" stop-color="rgb(45.309448%, 69.00177%, 84.591675%)" offset="0.710938"/><stop stop-opacity="1" stop-color="rgb(45.480347%, 69.049072%, 84.799194%)" offset="0.714844"/><stop stop-opacity="1" stop-color="rgb(45.652771%, 69.096375%, 85.00824%)" offset="0.71875"/><stop stop-opacity="1" stop-color="rgb(45.823669%, 69.143677%, 85.215759%)" offset="0.722656"/><stop stop-opacity="1" stop-color="rgb(45.996094%, 69.190979%, 85.424805%)" offset="0.726563"/><stop stop-opacity="1" stop-color="rgb(46.166992%, 69.238281%, 85.632324%)" offset="0.730469"/><stop stop-opacity="1" stop-color="rgb(46.337891%, 69.285583%, 85.84137%)" offset="0.734375"/><stop stop-opacity="1" stop-color="rgb(46.508789%, 69.332886%, 86.048889%)" offset="0.738281"/><stop stop-opacity="1" stop-color="rgb(46.681213%, 69.380188%, 86.257935%)" offset="0.742188"/><stop stop-opacity="1" stop-color="rgb(46.852112%, 69.42749%, 86.465454%)" offset="0.746094"/><stop stop-opacity="1" stop-color="rgb(47.024536%, 69.474792%, 86.6745%)" offset="0.75"/><stop stop-opacity="1" stop-color="rgb(47.195435%, 69.522095%, 86.882019%)" offset="0.753906"/><stop stop-opacity="1" stop-color="rgb(47.367859%, 69.569397%, 87.091064%)" offset="0.757812"/><stop stop-opacity="1" stop-color="rgb(47.538757%, 69.616699%, 87.298584%)" offset="0.761719"/><stop stop-opacity="1" stop-color="rgb(47.709656%, 69.664001%, 87.507629%)" offset="0.765625"/><stop stop-opacity="1" stop-color="rgb(47.880554%, 69.709778%, 87.715149%)" offset="0.769531"/><stop stop-opacity="1" stop-color="rgb(48.052979%, 69.75708%, 87.924194%)" offset="0.773438"/><stop stop-opacity="1" stop-color="rgb(48.223877%, 69.804382%, 88.131714%)" offset="0.777344"/><stop stop-opacity="1" stop-color="rgb(48.396301%, 69.851685%, 88.339233%)" offset="0.78125"/><stop stop-opacity="1" stop-color="rgb(48.5672%, 69.898987%, 88.546753%)" offset="0.785156"/><stop stop-opacity="1" stop-color="rgb(48.739624%, 69.946289%, 88.755798%)" offset="0.789062"/><stop stop-opacity="1" stop-color="rgb(48.910522%, 69.993591%, 88.963318%)" offset="0.792969"/><stop stop-opacity="1" stop-color="rgb(49.081421%, 70.040894%, 89.172363%)" offset="0.796875"/><stop stop-opacity="1" stop-color="rgb(49.252319%, 70.088196%, 89.379883%)" offset="0.800781"/><stop stop-opacity="1" stop-color="rgb(49.424744%, 70.135498%, 89.588928%)" offset="0.804688"/><stop stop-opacity="1" stop-color="rgb(49.595642%, 70.1828%, 89.796448%)" offset="0.808594"/><stop stop-opacity="1" stop-color="rgb(49.768066%, 70.230103%, 90.005493%)" offset="0.8125"/><stop stop-opacity="1" stop-color="rgb(49.938965%, 70.277405%, 90.213013%)" offset="0.816406"/><stop stop-opacity="1" stop-color="rgb(50.111389%, 70.324707%, 90.422058%)" offset="0.820312"/><stop stop-opacity="1" stop-color="rgb(50.282288%, 70.372009%, 90.629578%)" offset="0.824219"/><stop stop-opacity="1" stop-color="rgb(50.453186%, 70.419312%, 90.838623%)" offset="0.828125"/><stop stop-opacity="1" stop-color="rgb(50.624084%, 70.466614%, 91.046143%)" offset="0.832031"/><stop stop-opacity="1" stop-color="rgb(50.796509%, 70.513916%, 91.255188%)" offset="0.835938"/><stop stop-opacity="1" stop-color="rgb(50.967407%, 70.561218%, 91.462708%)" offset="0.839844"/><stop stop-opacity="1" stop-color="rgb(51.139832%, 70.608521%, 91.671753%)" offset="0.84375"/><stop stop-opacity="1" stop-color="rgb(51.31073%, 70.655823%, 91.879272%)" offset="0.847656"/><stop stop-opacity="1" stop-color="rgb(51.483154%, 70.703125%, 92.086792%)" offset="0.851562"/><stop stop-opacity="1" stop-color="rgb(51.654053%, 70.750427%, 92.294312%)" offset="0.855469"/><stop stop-opacity="1" stop-color="rgb(51.826477%, 70.797729%, 92.503357%)" offset="0.859375"/><stop stop-opacity="1" stop-color="rgb(51.997375%, 70.845032%, 92.710876%)" offset="0.863281"/><stop stop-opacity="1" stop-color="rgb(52.168274%, 70.892334%, 92.919922%)" offset="0.867188"/><stop stop-opacity="1" stop-color="rgb(52.339172%, 70.939636%, 93.127441%)" offset="0.871094"/><stop stop-opacity="1" stop-color="rgb(52.511597%, 70.986938%, 93.336487%)" offset="0.875"/><stop stop-opacity="1" stop-color="rgb(52.682495%, 71.034241%, 93.544006%)" offset="0.878906"/><stop stop-opacity="1" stop-color="rgb(52.854919%, 71.081543%, 93.753052%)" offset="0.882812"/><stop stop-opacity="1" stop-color="rgb(53.025818%, 71.128845%, 93.960571%)" offset="0.886719"/><stop stop-opacity="1" stop-color="rgb(53.198242%, 71.176147%, 94.169617%)" offset="0.890625"/><stop stop-opacity="1" stop-color="rgb(53.369141%, 71.22345%, 94.377136%)" offset="0.894531"/><stop stop-opacity="1" stop-color="rgb(53.540039%, 71.270752%, 94.586182%)" offset="0.898438"/><stop stop-opacity="1" stop-color="rgb(53.710938%, 71.318054%, 94.793701%)" offset="0.902344"/><stop stop-opacity="1" stop-color="rgb(53.883362%, 71.365356%, 95.002747%)" offset="0.90625"/><stop stop-opacity="1" stop-color="rgb(54.05426%, 71.412659%, 95.210266%)" offset="0.910156"/><stop stop-opacity="1" stop-color="rgb(54.226685%, 71.459961%, 95.419312%)" offset="0.914062"/><stop stop-opacity="1" stop-color="rgb(54.397583%, 71.507263%, 95.626831%)" offset="0.917969"/><stop stop-opacity="1" stop-color="rgb(54.570007%, 71.554565%, 95.835876%)" offset="0.921875"/><stop stop-opacity="1" stop-color="rgb(54.740906%, 71.601868%, 96.043396%)" offset="0.925781"/><stop stop-opacity="1" stop-color="rgb(54.911804%, 71.64917%, 96.250916%)" offset="0.929688"/><stop stop-opacity="1" stop-color="rgb(55.082703%, 71.694946%, 96.458435%)" offset="0.933594"/><stop stop-opacity="1" stop-color="rgb(55.255127%, 71.742249%, 96.66748%)" offset="0.9375"/><stop stop-opacity="1" stop-color="rgb(55.426025%, 71.789551%, 96.875%)" offset="0.941406"/><stop stop-opacity="1" stop-color="rgb(55.59845%, 71.836853%, 97.084045%)" offset="0.945312"/><stop stop-opacity="1" stop-color="rgb(55.769348%, 71.884155%, 97.291565%)" offset="0.949219"/><stop stop-opacity="1" stop-color="rgb(55.941772%, 71.931458%, 97.50061%)" offset="0.953125"/><stop stop-opacity="1" stop-color="rgb(56.112671%, 71.97876%, 97.70813%)" offset="0.957031"/><stop stop-opacity="1" stop-color="rgb(56.285095%, 72.026062%, 97.917175%)" offset="0.960938"/><stop stop-opacity="1" stop-color="rgb(56.455994%, 72.073364%, 98.124695%)" offset="0.964844"/><stop stop-opacity="1" stop-color="rgb(56.626892%, 72.120667%, 98.33374%)" offset="0.96875"/><stop stop-opacity="1" stop-color="rgb(56.797791%, 72.167969%, 98.54126%)" offset="0.972656"/><stop stop-opacity="1" stop-color="rgb(56.970215%, 72.215271%, 98.750305%)" offset="0.976562"/><stop stop-opacity="1" stop-color="rgb(57.141113%, 72.262573%, 98.957825%)" offset="0.980469"/><stop stop-opacity="1" stop-color="rgb(57.313538%, 72.309875%, 99.16687%)" offset="0.984375"/><stop stop-opacity="1" stop-color="rgb(57.484436%, 72.357178%, 99.37439%)" offset="0.988281"/><stop stop-opacity="1" stop-color="rgb(57.65686%, 72.40448%, 99.583435%)" offset="0.992188"/><stop stop-opacity="1" stop-color="rgb(57.827759%, 72.451782%, 99.790955%)" offset="0.996094"/><stop stop-opacity="1" stop-color="rgb(57.998657%, 72.499084%, 100%)" offset="1"/></linearGradient><clipPath id="3ce6898af1"><rect x="0" width="52" y="0" height="52"/></clipPath><clipPath id="6a9b757fc6"><path d="M 9.246094 3.636719 L 42.679688 3.636719 L 42.679688 45.242188 L 9.246094 45.242188 Z M 9.246094 3.636719 " clip-rule="nonzero"/></clipPath></defs><g mask="url(#b5a04290f4)"><g transform="matrix(1, 0, 0, 1, -0.000000000000000028, 0.000000000000000305)"><g clip-path="url(#3ce6898af1)"><g clip-path="url(#0c6ee0811a)"><g clip-path="url(#ef0f2c3444)"><path fill="url(#df0c8a6432)" d="M 0.445312 0.445312 L 0.445312 51.558594 L 51.558594 51.558594 L 51.558594 0.445312 Z M 0.445312 0.445312 " fill-rule="nonzero"/></g></g></g></g></g><g clip-path="url(#6a9b757fc6)"><path fill="#000066" d="M 36.449219 33.167969 L 30.6875 31.886719 L 30.6875 30.488281 C 31.636719 29.9375 32.464844 29.242188 33.171875 28.402344 L 35.378906 28.402344 C 35.644531 28.402344 35.898438 28.351562 36.144531 28.25 C 36.394531 28.148438 36.609375 28.003906 36.796875 27.8125 C 36.988281 27.625 37.132812 27.40625 37.234375 27.160156 C 37.335938 26.914062 37.386719 26.660156 37.386719 26.390625 L 37.386719 25.722656 C 37.652344 25.722656 37.910156 25.671875 38.15625 25.570312 C 38.402344 25.46875 38.621094 25.320312 38.808594 25.132812 C 38.996094 24.945312 39.140625 24.726562 39.246094 24.480469 C 39.347656 24.234375 39.398438 23.980469 39.398438 23.710938 L 39.398438 19.691406 C 39.394531 19.265625 39.273438 18.882812 39.027344 18.535156 C 38.78125 18.1875 38.457031 17.945312 38.058594 17.804688 L 38.058594 15.671875 C 38.058594 14.878906 37.980469 14.097656 37.824219 13.320312 C 37.671875 12.542969 37.441406 11.789062 37.140625 11.058594 C 36.835938 10.324219 36.464844 9.628906 36.023438 8.972656 C 35.585938 8.3125 35.085938 7.703125 34.523438 7.144531 C 33.964844 6.585938 33.355469 6.085938 32.699219 5.644531 C 32.039062 5.203125 31.34375 4.832031 30.613281 4.53125 C 29.878906 4.226562 29.125 3.996094 28.351562 3.84375 C 27.574219 3.6875 26.789062 3.613281 25.996094 3.613281 C 25.203125 3.613281 24.421875 3.6875 23.644531 3.84375 C 22.867188 3.996094 22.113281 4.226562 21.382812 4.53125 C 20.648438 4.832031 19.953125 5.203125 19.296875 5.644531 C 18.636719 6.085938 18.027344 6.585938 17.46875 7.144531 C 16.910156 7.703125 16.410156 8.3125 15.96875 8.972656 C 15.527344 9.628906 15.15625 10.324219 14.855469 11.058594 C 14.550781 11.789062 14.324219 12.542969 14.167969 13.320312 C 14.011719 14.097656 13.9375 14.878906 13.9375 15.671875 L 13.9375 17.804688 C 13.535156 17.945312 13.210938 18.1875 12.96875 18.535156 C 12.722656 18.882812 12.597656 19.265625 12.597656 19.691406 L 12.597656 23.710938 C 12.597656 23.980469 12.648438 24.234375 12.75 24.480469 C 12.851562 24.726562 12.996094 24.945312 13.183594 25.132812 C 13.375 25.320312 13.589844 25.46875 13.835938 25.570312 C 14.082031 25.671875 14.339844 25.722656 14.605469 25.722656 L 17.246094 25.722656 C 17.632812 26.722656 18.171875 27.632812 18.871094 28.449219 C 19.566406 29.269531 20.378906 29.945312 21.308594 30.488281 L 21.308594 31.886719 L 15.542969 33.167969 C 15.101562 33.261719 14.667969 33.394531 14.246094 33.566406 C 13.824219 33.738281 13.421875 33.941406 13.035156 34.179688 C 12.648438 34.417969 12.285156 34.691406 11.945312 34.992188 C 11.601562 35.292969 11.289062 35.621094 11.007812 35.972656 C 10.722656 36.328125 10.46875 36.703125 10.25 37.101562 C 10.027344 37.5 9.84375 37.914062 9.691406 38.34375 C 9.542969 38.769531 9.429688 39.210938 9.355469 39.660156 C 9.28125 40.105469 9.246094 40.558594 9.246094 41.011719 L 9.246094 44.484375 C 9.246094 44.667969 9.3125 44.824219 9.441406 44.957031 C 9.574219 45.085938 9.730469 45.152344 9.917969 45.152344 L 42.078125 45.152344 C 42.261719 45.152344 42.421875 45.085938 42.550781 44.957031 C 42.683594 44.824219 42.746094 44.667969 42.746094 44.484375 L 42.746094 41.011719 C 42.75 40.558594 42.714844 40.105469 42.636719 39.660156 C 42.5625 39.210938 42.449219 38.769531 42.300781 38.34375 C 42.152344 37.914062 41.964844 37.5 41.746094 37.101562 C 41.523438 36.703125 41.273438 36.328125 40.988281 35.972656 C 40.703125 35.621094 40.390625 35.292969 40.050781 34.992188 C 39.710938 34.691406 39.347656 34.417969 38.960938 34.179688 C 38.574219 33.941406 38.167969 33.738281 37.746094 33.566406 C 37.328125 33.394531 36.894531 33.261719 36.449219 33.167969 Z M 31.664062 33.476562 L 29.125 37.542969 L 27.074219 36.308594 L 30.230469 33.160156 Z M 36.046875 26.390625 C 36.046875 26.578125 35.980469 26.734375 35.851562 26.867188 C 35.71875 26.996094 35.5625 27.0625 35.378906 27.0625 L 34.109375 27.0625 C 34.371094 26.632812 34.59375 26.1875 34.78125 25.722656 L 36.046875 25.722656 Z M 34.039062 17.683594 L 31.914062 17.683594 C 31.375 17.683594 30.84375 17.613281 30.324219 17.476562 C 29.800781 17.339844 29.304688 17.140625 28.835938 16.875 C 28.367188 16.609375 27.9375 16.289062 27.550781 15.914062 C 27.164062 15.539062 26.832031 15.121094 26.554688 14.660156 C 26.492188 14.558594 26.410156 14.480469 26.308594 14.421875 C 26.207031 14.363281 26.09375 14.332031 25.976562 14.332031 C 25.859375 14.332031 25.746094 14.363281 25.644531 14.421875 C 25.542969 14.480469 25.460938 14.558594 25.402344 14.660156 C 25.121094 15.121094 24.789062 15.539062 24.402344 15.914062 C 24.015625 16.289062 23.585938 16.609375 23.117188 16.875 C 22.648438 17.140625 22.152344 17.339844 21.632812 17.476562 C 21.109375 17.613281 20.578125 17.683594 20.039062 17.683594 L 17.957031 17.683594 L 17.957031 15.671875 C 17.957031 15.144531 18.007812 14.621094 18.109375 14.101562 C 18.214844 13.585938 18.367188 13.082031 18.570312 12.59375 C 18.769531 12.109375 19.019531 11.644531 19.3125 11.207031 C 19.605469 10.765625 19.9375 10.359375 20.3125 9.988281 C 20.683594 9.613281 21.089844 9.28125 21.53125 8.988281 C 21.96875 8.695312 22.433594 8.445312 22.921875 8.242188 C 23.40625 8.042969 23.910156 7.890625 24.429688 7.785156 C 24.945312 7.683594 25.46875 7.632812 25.996094 7.632812 C 26.523438 7.632812 27.046875 7.683594 27.566406 7.785156 C 28.082031 7.890625 28.585938 8.042969 29.074219 8.242188 C 29.5625 8.445312 30.023438 8.695312 30.464844 8.988281 C 30.902344 9.28125 31.308594 9.613281 31.683594 9.988281 C 32.054688 10.359375 32.390625 10.765625 32.683594 11.207031 C 32.976562 11.644531 33.222656 12.109375 33.425781 12.59375 C 33.628906 13.082031 33.78125 13.585938 33.882812 14.101562 C 33.984375 14.621094 34.039062 15.144531 34.039062 15.671875 Z M 38.058594 23.710938 C 38.058594 23.898438 37.992188 24.054688 37.859375 24.1875 C 37.730469 24.316406 37.574219 24.382812 37.386719 24.382812 L 35.15625 24.382812 C 35.300781 23.71875 35.375 23.050781 35.378906 22.371094 L 35.378906 19.023438 L 37.386719 19.023438 C 37.574219 19.023438 37.730469 19.085938 37.859375 19.21875 C 37.992188 19.347656 38.058594 19.507812 38.058594 19.691406 Z M 25.996094 4.953125 C 26.699219 4.953125 27.398438 5.019531 28.089844 5.15625 C 28.777344 5.296875 29.449219 5.5 30.097656 5.769531 C 30.75 6.039062 31.367188 6.367188 31.953125 6.757812 C 32.539062 7.148438 33.078125 7.59375 33.578125 8.089844 C 34.074219 8.589844 34.519531 9.132812 34.910156 9.714844 C 35.300781 10.300781 35.632812 10.917969 35.902344 11.570312 C 36.171875 12.21875 36.375 12.890625 36.511719 13.582031 C 36.648438 14.269531 36.71875 14.96875 36.71875 15.671875 L 36.71875 17.683594 L 35.378906 17.683594 L 35.378906 15.671875 C 35.378906 15.054688 35.316406 14.445312 35.195312 13.84375 C 35.078125 13.238281 34.898438 12.652344 34.664062 12.082031 C 34.425781 11.511719 34.136719 10.972656 33.796875 10.460938 C 33.453125 9.949219 33.066406 9.476562 32.628906 9.039062 C 32.195312 8.605469 31.71875 8.214844 31.207031 7.871094 C 30.695312 7.53125 30.15625 7.242188 29.585938 7.003906 C 29.015625 6.769531 28.429688 6.59375 27.828125 6.472656 C 27.222656 6.351562 26.613281 6.292969 25.996094 6.292969 C 25.382812 6.292969 24.769531 6.351562 24.167969 6.472656 C 23.5625 6.59375 22.976562 6.769531 22.40625 7.003906 C 21.839844 7.242188 21.296875 7.53125 20.785156 7.871094 C 20.273438 8.214844 19.800781 8.605469 19.363281 9.039062 C 18.929688 9.476562 18.539062 9.949219 18.199219 10.460938 C 17.855469 10.972656 17.566406 11.511719 17.332031 12.082031 C 17.09375 12.652344 16.917969 13.238281 16.796875 13.84375 C 16.675781 14.445312 16.617188 15.054688 16.617188 15.671875 L 16.617188 17.683594 L 15.277344 17.683594 L 15.277344 15.671875 C 15.277344 14.96875 15.34375 14.269531 15.484375 13.582031 C 15.621094 12.890625 15.824219 12.21875 16.09375 11.570312 C 16.363281 10.917969 16.691406 10.300781 17.082031 9.714844 C 17.472656 9.132812 17.917969 8.589844 18.417969 8.089844 C 18.914062 7.59375 19.457031 7.148438 20.039062 6.757812 C 20.625 6.367188 21.242188 6.039062 21.894531 5.769531 C 22.542969 5.5 23.214844 5.296875 23.90625 5.15625 C 24.597656 5.019531 25.292969 4.953125 25.996094 4.953125 Z M 14.605469 24.382812 C 14.421875 24.382812 14.261719 24.316406 14.132812 24.1875 C 14 24.054688 13.9375 23.898438 13.9375 23.710938 L 13.9375 19.691406 C 13.9375 19.507812 14 19.347656 14.132812 19.21875 C 14.261719 19.085938 14.421875 19.023438 14.605469 19.023438 L 16.617188 19.023438 L 16.617188 22.371094 C 16.617188 23.050781 16.691406 23.71875 16.835938 24.382812 Z M 17.957031 22.371094 L 17.957031 19.023438 L 20.082031 19.023438 C 21.230469 19.019531 22.324219 18.765625 23.359375 18.269531 C 24.398438 17.769531 25.277344 17.070312 25.996094 16.175781 C 26.71875 17.070312 27.597656 17.769531 28.632812 18.269531 C 29.667969 18.765625 30.761719 19.019531 31.914062 19.023438 L 34.039062 19.023438 L 34.039062 22.371094 C 34.035156 24.097656 33.527344 25.664062 32.515625 27.0625 L 27.886719 27.0625 C 27.832031 26.914062 27.765625 26.773438 27.679688 26.640625 C 27.59375 26.511719 27.496094 26.390625 27.382812 26.28125 C 27.269531 26.171875 27.144531 26.078125 27.007812 26 C 26.871094 25.917969 26.730469 25.855469 26.578125 25.808594 C 26.429688 25.765625 26.277344 25.738281 26.117188 25.726562 C 25.960938 25.714844 25.804688 25.726562 25.652344 25.75 C 25.496094 25.777344 25.347656 25.820312 25.203125 25.882812 C 25.058594 25.945312 24.921875 26.023438 24.796875 26.117188 C 24.667969 26.210938 24.554688 26.316406 24.453125 26.4375 C 24.351562 26.558594 24.265625 26.6875 24.195312 26.828125 C 24.125 26.96875 24.070312 27.113281 24.035156 27.265625 C 24 27.421875 23.980469 27.574219 23.980469 27.734375 C 23.980469 27.890625 24 28.042969 24.035156 28.199219 C 24.070312 28.351562 24.125 28.496094 24.195312 28.636719 C 24.265625 28.777344 24.351562 28.90625 24.453125 29.027344 C 24.554688 29.148438 24.667969 29.253906 24.796875 29.347656 C 24.921875 29.441406 25.058594 29.519531 25.203125 29.582031 C 25.347656 29.644531 25.496094 29.6875 25.652344 29.714844 C 25.804688 29.742188 25.960938 29.75 26.117188 29.738281 C 26.277344 29.730469 26.429688 29.699219 26.578125 29.65625 C 26.730469 29.609375 26.871094 29.546875 27.007812 29.464844 C 27.144531 29.386719 27.269531 29.292969 27.382812 29.183594 C 27.496094 29.074219 27.59375 28.953125 27.679688 28.824219 C 27.765625 28.691406 27.832031 28.550781 27.886719 28.402344 L 31.296875 28.402344 C 30.714844 28.910156 30.074219 29.328125 29.375 29.652344 C 28.675781 29.976562 27.941406 30.195312 27.179688 30.308594 C 26.414062 30.421875 25.652344 30.425781 24.886719 30.320312 C 24.121094 30.214844 23.386719 30 22.683594 29.683594 C 21.980469 29.363281 21.335938 28.953125 20.753906 28.449219 C 20.167969 27.945312 19.664062 27.371094 19.246094 26.722656 C 18.828125 26.074219 18.507812 25.378906 18.289062 24.640625 C 18.070312 23.898438 17.957031 23.144531 17.957031 22.371094 Z M 26.667969 27.734375 C 26.667969 27.917969 26.601562 28.074219 26.46875 28.207031 C 26.339844 28.335938 26.183594 28.402344 25.996094 28.402344 C 25.8125 28.402344 25.652344 28.335938 25.523438 28.207031 C 25.390625 28.074219 25.328125 27.917969 25.328125 27.734375 C 25.328125 27.546875 25.390625 27.390625 25.523438 27.257812 C 25.652344 27.128906 25.8125 27.0625 25.996094 27.0625 C 26.183594 27.0625 26.339844 27.128906 26.46875 27.257812 C 26.601562 27.390625 26.667969 27.546875 26.667969 27.734375 Z M 25.996094 31.753906 C 27.152344 31.75 28.269531 31.539062 29.347656 31.121094 L 29.347656 32.148438 L 25.996094 35.5 L 22.648438 32.148438 L 22.648438 31.121094 C 23.722656 31.539062 24.839844 31.75 25.996094 31.753906 Z M 21.761719 33.160156 L 24.917969 36.308594 L 22.867188 37.542969 L 20.328125 33.476562 Z M 10.585938 41.011719 C 10.585938 40.25 10.714844 39.511719 10.964844 38.789062 C 11.21875 38.070312 11.582031 37.414062 12.058594 36.820312 C 12.539062 36.226562 13.097656 35.726562 13.746094 35.324219 C 14.394531 34.921875 15.089844 34.636719 15.832031 34.472656 L 18.941406 33.804688 L 22.078125 38.828125 C 22.214844 39.03125 22.402344 39.128906 22.648438 39.121094 C 22.769531 39.121094 22.882812 39.089844 22.988281 39.027344 L 25.328125 37.628906 L 25.328125 43.8125 L 15.945312 43.8125 L 15.945312 40.464844 L 14.605469 40.464844 L 14.605469 43.8125 L 10.585938 43.8125 Z M 41.40625 43.8125 L 37.386719 43.8125 L 37.386719 40.464844 L 36.046875 40.464844 L 36.046875 43.8125 L 26.667969 43.8125 L 26.667969 37.628906 L 29.003906 39.027344 C 29.109375 39.089844 29.222656 39.121094 29.347656 39.121094 C 29.59375 39.125 29.785156 39.019531 29.917969 38.808594 L 33.050781 33.761719 L 36.160156 34.433594 C 36.910156 34.597656 37.605469 34.882812 38.257812 35.289062 C 38.90625 35.695312 39.46875 36.199219 39.945312 36.796875 C 40.421875 37.394531 40.789062 38.054688 41.039062 38.777344 C 41.289062 39.503906 41.410156 40.246094 41.40625 41.011719 Z M 41.40625 43.8125 " fill-opacity="1" fill-rule="nonzero"/></g></svg>