<svg xmlns="http://www.w3.org/2000/svg" xmlns:xlink="http://www.w3.org/1999/xlink" width="70" zoomAndPan="magnify" viewBox="0 0 52.5 52.499999" height="70" preserveAspectRatio="xMidYMid meet" version="1.0"><defs><clipPath id="8796002e3e"><path d="M 9.246094 3.636719 L 42.679688 3.636719 L 42.679688 45.242188 L 9.246094 45.242188 Z M 9.246094 3.636719 " clip-rule="nonzero"/></clipPath></defs><g clip-path="url(#8796002e3e)"><path fill="#138653" d="M 36.449219 33.167969 L 30.6875 31.886719 L 30.6875 30.488281 C 31.636719 29.9375 32.464844 29.242188 33.171875 28.402344 L 35.378906 28.402344 C 35.644531 28.402344 35.898438 28.351562 36.144531 28.25 C 36.394531 28.148438 36.609375 28.003906 36.796875 27.8125 C 36.988281 27.625 37.132812 27.40625 37.234375 27.160156 C 37.335938 26.914062 37.386719 26.660156 37.386719 26.390625 L 37.386719 25.722656 C 37.652344 25.722656 37.910156 25.671875 38.15625 25.570312 C 38.402344 25.46875 38.621094 25.320312 38.808594 25.132812 C 38.996094 24.945312 39.140625 24.726562 39.246094 24.480469 C 39.347656 24.234375 39.398438 23.980469 39.398438 23.710938 L 39.398438 19.691406 C 39.394531 19.265625 39.273438 18.882812 39.027344 18.535156 C 38.78125 18.1875 38.457031 17.945312 38.058594 17.804688 L 38.058594 15.671875 C 38.058594 14.878906 37.980469 14.097656 37.824219 13.320312 C 37.671875 12.542969 37.441406 11.789062 37.140625 11.058594 C 36.835938 10.324219 36.464844 9.628906 36.023438 8.972656 C 35.585938 8.3125 35.085938 7.703125 34.523438 7.144531 C 33.964844 6.585938 33.355469 6.085938 32.699219 5.644531 C 32.039062 5.203125 31.34375 4.832031 30.613281 4.53125 C 29.878906 4.226562 29.125 3.996094 28.351562 3.84375 C 27.574219 3.6875 26.789062 3.613281 25.996094 3.613281 C 25.203125 3.613281 24.421875 3.6875 23.644531 3.84375 C 22.867188 3.996094 22.113281 4.226562 21.382812 4.53125 C 20.648438 4.832031 19.953125 5.203125 19.296875 5.644531 C 18.636719 6.085938 18.027344 6.585938 17.46875 7.144531 C 16.910156 7.703125 16.410156 8.3125 15.96875 8.972656 C 15.527344 9.628906 15.15625 10.324219 14.855469 11.058594 C 14.550781 11.789062 14.324219 12.542969 14.167969 13.320312 C 14.011719 14.097656 13.9375 14.878906 13.9375 15.671875 L 13.9375 17.804688 C 13.535156 17.945312 13.210938 18.1875 12.96875 18.535156 C 12.722656 18.882812 12.597656 19.265625 12.597656 19.691406 L 12.597656 23.710938 C 12.597656 23.980469 12.648438 24.234375 12.75 24.480469 C 12.851562 24.726562 12.996094 24.945312 13.183594 25.132812 C 13.375 25.320312 13.589844 25.46875 13.835938 25.570312 C 14.082031 25.671875 14.339844 25.722656 14.605469 25.722656 L 17.246094 25.722656 C 17.632812 26.722656 18.171875 27.632812 18.871094 28.449219 C 19.566406 29.269531 20.378906 29.945312 21.308594 30.488281 L 21.308594 31.886719 L 15.542969 33.167969 C 15.101562 33.261719 14.667969 33.394531 14.246094 33.566406 C 13.824219 33.738281 13.421875 33.941406 13.035156 34.179688 C 12.648438 34.417969 12.285156 34.691406 11.945312 34.992188 C 11.601562 35.292969 11.289062 35.621094 11.007812 35.972656 C 10.722656 36.328125 10.46875 36.703125 10.25 37.101562 C 10.027344 37.5 9.84375 37.914062 9.691406 38.34375 C 9.542969 38.769531 9.429688 39.210938 9.355469 39.660156 C 9.28125 40.105469 9.246094 40.558594 9.246094 41.011719 L 9.246094 44.484375 C 9.246094 44.667969 9.3125 44.824219 9.441406 44.957031 C 9.574219 45.085938 9.730469 45.152344 9.917969 45.152344 L 42.078125 45.152344 C 42.261719 45.152344 42.421875 45.085938 42.550781 44.957031 C 42.683594 44.824219 42.746094 44.667969 42.746094 44.484375 L 42.746094 41.011719 C 42.75 40.558594 42.714844 40.105469 42.636719 39.660156 C 42.5625 39.210938 42.449219 38.769531 42.300781 38.34375 C 42.152344 37.914062 41.964844 37.5 41.746094 37.101562 C 41.523438 36.703125 41.273438 36.328125 40.988281 35.972656 C 40.703125 35.621094 40.390625 35.292969 40.050781 34.992188 C 39.710938 34.691406 39.347656 34.417969 38.960938 34.179688 C 38.574219 33.941406 38.167969 33.738281 37.746094 33.566406 C 37.328125 33.394531 36.894531 33.261719 36.449219 33.167969 Z M 31.664062 33.476562 L 29.125 37.542969 L 27.074219 36.308594 L 30.230469 33.160156 Z M 36.046875 26.390625 C 36.046875 26.578125 35.980469 26.734375 35.851562 26.867188 C 35.71875 26.996094 35.5625 27.0625 35.378906 27.0625 L 34.109375 27.0625 C 34.371094 26.632812 34.59375 26.1875 34.78125 25.722656 L 36.046875 25.722656 Z M 34.039062 17.683594 L 31.914062 17.683594 C 31.375 17.683594 30.84375 17.613281 30.324219 17.476562 C 29.800781 17.339844 29.304688 17.140625 28.835938 16.875 C 28.367188 16.609375 27.9375 16.289062 27.550781 15.914062 C 27.164062 15.539062 26.832031 15.121094 26.554688 14.660156 C 26.492188 14.558594 26.410156 14.480469 26.308594 14.421875 C 26.207031 14.363281 26.09375 14.332031 25.976562 14.332031 C 25.859375 14.332031 25.746094 14.363281 25.644531 14.421875 C 25.542969 14.480469 25.460938 14.558594 25.402344 14.660156 C 25.121094 15.121094 24.789062 15.539062 24.402344 15.914062 C 24.015625 16.289062 23.585938 16.609375 23.117188 16.875 C 22.648438 17.140625 22.152344 17.339844 21.632812 17.476562 C 21.109375 17.613281 20.578125 17.683594 20.039062 17.683594 L 17.957031 17.683594 L 17.957031 15.671875 C 17.957031 15.144531 18.007812 14.621094 18.109375 14.105469 C 18.214844 13.585938 18.367188 13.082031 18.570312 12.59375 C 18.769531 12.109375 19.019531 11.644531 19.3125 11.207031 C 19.605469 10.765625 19.9375 10.359375 20.3125 9.988281 C 20.683594 9.613281 21.089844 9.28125 21.53125 8.988281 C 21.96875 8.695312 22.433594 8.445312 22.921875 8.242188 C 23.40625 8.042969 23.910156 7.890625 24.429688 7.785156 C 24.945312 7.683594 25.46875 7.632812 25.996094 7.632812 C 26.523438 7.632812 27.046875 7.683594 27.566406 7.785156 C 28.082031 7.890625 28.585938 8.042969 29.074219 8.242188 C 29.5625 8.445312 30.023438 8.695312 30.464844 8.988281 C 30.902344 9.28125 31.308594 9.613281 31.683594 9.988281 C 32.054688 10.359375 32.390625 10.765625 32.683594 11.207031 C 32.976562 11.644531 33.222656 12.109375 33.425781 12.59375 C 33.628906 13.082031 33.78125 13.585938 33.882812 14.105469 C 33.984375 14.621094 34.039062 15.144531 34.039062 15.671875 Z M 38.058594 23.710938 C 38.058594 23.898438 37.992188 24.054688 37.859375 24.1875 C 37.730469 24.316406 37.574219 24.382812 37.386719 24.382812 L 35.15625 24.382812 C 35.300781 23.71875 35.375 23.050781 35.378906 22.371094 L 35.378906 19.023438 L 37.386719 19.023438 C 37.574219 19.023438 37.730469 19.085938 37.859375 19.21875 C 37.992188 19.347656 38.058594 19.507812 38.058594 19.691406 Z M 25.996094 4.953125 C 26.699219 4.953125 27.398438 5.019531 28.089844 5.15625 C 28.777344 5.296875 29.449219 5.5 30.097656 5.769531 C 30.75 6.039062 31.367188 6.367188 31.953125 6.757812 C 32.539062 7.148438 33.078125 7.59375 33.578125 8.089844 C 34.074219 8.589844 34.519531 9.132812 34.910156 9.714844 C 35.300781 10.300781 35.632812 10.917969 35.902344 11.570312 C 36.171875 12.21875 36.375 12.890625 36.511719 13.582031 C 36.648438 14.269531 36.71875 14.96875 36.71875 15.671875 L 36.71875 17.683594 L 35.378906 17.683594 L 35.378906 15.671875 C 35.378906 15.054688 35.316406 14.445312 35.195312 13.84375 C 35.078125 13.238281 34.898438 12.652344 34.664062 12.082031 C 34.425781 11.511719 34.136719 10.972656 33.796875 10.460938 C 33.453125 9.949219 33.066406 9.476562 32.628906 9.039062 C 32.195312 8.605469 31.71875 8.214844 31.207031 7.871094 C 30.695312 7.53125 30.15625 7.242188 29.585938 7.003906 C 29.015625 6.769531 28.429688 6.59375 27.828125 6.472656 C 27.222656 6.351562 26.613281 6.292969 25.996094 6.292969 C 25.382812 6.292969 24.769531 6.351562 24.167969 6.472656 C 23.5625 6.59375 22.976562 6.769531 22.40625 7.003906 C 21.839844 7.242188 21.296875 7.53125 20.785156 7.871094 C 20.273438 8.214844 19.800781 8.605469 19.363281 9.039062 C 18.929688 9.476562 18.539062 9.949219 18.199219 10.460938 C 17.855469 10.972656 17.566406 11.511719 17.332031 12.082031 C 17.09375 12.652344 16.917969 13.238281 16.796875 13.84375 C 16.675781 14.445312 16.617188 15.054688 16.617188 15.671875 L 16.617188 17.683594 L 15.277344 17.683594 L 15.277344 15.671875 C 15.277344 14.96875 15.34375 14.269531 15.484375 13.582031 C 15.621094 12.890625 15.824219 12.21875 16.09375 11.570312 C 16.363281 10.917969 16.691406 10.300781 17.082031 9.714844 C 17.472656 9.132812 17.917969 8.589844 18.417969 8.089844 C 18.914062 7.59375 19.457031 7.148438 20.039062 6.757812 C 20.625 6.367188 21.242188 6.039062 21.894531 5.769531 C 22.542969 5.5 23.214844 5.296875 23.90625 5.15625 C 24.597656 5.019531 25.292969 4.953125 25.996094 4.953125 Z M 14.605469 24.382812 C 14.421875 24.382812 14.261719 24.316406 14.132812 24.1875 C 14 24.054688 13.9375 23.898438 13.9375 23.710938 L 13.9375 19.691406 C 13.9375 19.507812 14 19.347656 14.132812 19.21875 C 14.261719 19.085938 14.421875 19.023438 14.605469 19.023438 L 16.617188 19.023438 L 16.617188 22.371094 C 16.617188 23.050781 16.691406 23.71875 16.835938 24.382812 Z M 17.957031 22.371094 L 17.957031 19.023438 L 20.082031 19.023438 C 21.230469 19.019531 22.324219 18.765625 23.359375 18.269531 C 24.398438 17.769531 25.277344 17.070312 25.996094 16.175781 C 26.71875 17.070312 27.597656 17.769531 28.632812 18.269531 C 29.667969 18.765625 30.761719 19.019531 31.914062 19.023438 L 34.039062 19.023438 L 34.039062 22.371094 C 34.035156 24.097656 33.527344 25.664062 32.515625 27.0625 L 27.886719 27.0625 C 27.832031 26.914062 27.765625 26.773438 27.679688 26.640625 C 27.59375 26.511719 27.496094 26.390625 27.382812 26.28125 C 27.269531 26.171875 27.144531 26.078125 27.007812 26 C 26.871094 25.917969 26.730469 25.855469 26.578125 25.808594 C 26.429688 25.765625 26.277344 25.738281 26.117188 25.726562 C 25.960938 25.714844 25.804688 25.726562 25.652344 25.75 C 25.496094 25.777344 25.347656 25.820312 25.203125 25.882812 C 25.058594 25.945312 24.921875 26.023438 24.796875 26.117188 C 24.667969 26.210938 24.554688 26.316406 24.453125 26.4375 C 24.351562 26.558594 24.265625 26.6875 24.195312 26.828125 C 24.125 26.96875 24.070312 27.113281 24.035156 27.265625 C 24 27.421875 23.980469 27.574219 23.980469 27.734375 C 23.980469 27.890625 24 28.042969 24.035156 28.199219 C 24.070312 28.351562 24.125 28.496094 24.195312 28.636719 C 24.265625 28.777344 24.351562 28.90625 24.453125 29.027344 C 24.554688 29.148438 24.667969 29.253906 24.796875 29.347656 C 24.921875 29.441406 25.058594 29.519531 25.203125 29.582031 C 25.347656 29.644531 25.496094 29.6875 25.652344 29.714844 C 25.804688 29.742188 25.960938 29.75 26.117188 29.738281 C 26.277344 29.730469 26.429688 29.699219 26.578125 29.65625 C 26.730469 29.609375 26.871094 29.546875 27.007812 29.464844 C 27.144531 29.386719 27.269531 29.292969 27.382812 29.183594 C 27.496094 29.074219 27.59375 28.953125 27.679688 28.824219 C 27.765625 28.691406 27.832031 28.550781 27.886719 28.402344 L 31.296875 28.402344 C 30.714844 28.910156 30.074219 29.328125 29.375 29.652344 C 28.675781 29.976562 27.941406 30.195312 27.179688 30.308594 C 26.414062 30.421875 25.652344 30.425781 24.886719 30.320312 C 24.121094 30.214844 23.386719 30 22.683594 29.683594 C 21.980469 29.363281 21.335938 28.953125 20.753906 28.449219 C 20.167969 27.945312 19.664062 27.371094 19.246094 26.722656 C 18.828125 26.074219 18.507812 25.378906 18.289062 24.640625 C 18.070312 23.898438 17.957031 23.144531 17.957031 22.371094 Z M 26.667969 27.734375 C 26.667969 27.917969 26.601562 28.074219 26.46875 28.207031 C 26.339844 28.335938 26.183594 28.402344 25.996094 28.402344 C 25.8125 28.402344 25.652344 28.335938 25.523438 28.207031 C 25.390625 28.074219 25.328125 27.917969 25.328125 27.734375 C 25.328125 27.546875 25.390625 27.390625 25.523438 27.257812 C 25.652344 27.128906 25.8125 27.0625 25.996094 27.0625 C 26.183594 27.0625 26.339844 27.128906 26.46875 27.257812 C 26.601562 27.390625 26.667969 27.546875 26.667969 27.734375 Z M 25.996094 31.753906 C 27.152344 31.75 28.269531 31.542969 29.347656 31.121094 L 29.347656 32.148438 L 25.996094 35.5 L 22.648438 32.148438 L 22.648438 31.121094 C 23.722656 31.542969 24.839844 31.75 25.996094 31.753906 Z M 21.761719 33.160156 L 24.917969 36.308594 L 22.867188 37.542969 L 20.328125 33.476562 Z M 10.585938 41.011719 C 10.585938 40.25 10.714844 39.511719 10.964844 38.789062 C 11.21875 38.070312 11.582031 37.414062 12.058594 36.820312 C 12.539062 36.226562 13.097656 35.726562 13.746094 35.324219 C 14.394531 34.921875 15.089844 34.636719 15.832031 34.472656 L 18.941406 33.804688 L 22.078125 38.828125 C 22.214844 39.03125 22.402344 39.128906 22.648438 39.121094 C 22.769531 39.121094 22.882812 39.089844 22.988281 39.027344 L 25.328125 37.628906 L 25.328125 43.8125 L 15.945312 43.8125 L 15.945312 40.464844 L 14.605469 40.464844 L 14.605469 43.8125 L 10.585938 43.8125 Z M 41.40625 43.8125 L 37.386719 43.8125 L 37.386719 40.464844 L 36.046875 40.464844 L 36.046875 43.8125 L 26.667969 43.8125 L 26.667969 37.628906 L 29.003906 39.027344 C 29.109375 39.089844 29.222656 39.121094 29.347656 39.121094 C 29.59375 39.125 29.785156 39.019531 29.917969 38.808594 L 33.050781 33.761719 L 36.160156 34.433594 C 36.910156 34.597656 37.605469 34.882812 38.257812 35.289062 C 38.90625 35.695312 39.46875 36.199219 39.945312 36.796875 C 40.421875 37.394531 40.789062 38.054688 41.039062 38.777344 C 41.289062 39.503906 41.410156 40.246094 41.40625 41.011719 Z M 41.40625 43.8125 " fill-opacity="1" fill-rule="nonzero"/></g></svg>