<svg xmlns="http://www.w3.org/2000/svg" xmlns:xlink="http://www.w3.org/1999/xlink" width="70" zoomAndPan="magnify" viewBox="0 0 52.5 52.499999" height="70" preserveAspectRatio="xMidYMid meet" version="1.0"><defs><clipPath id="f11c8fa889"><path d="M 16 6.792969 L 46 6.792969 L 46 27 L 16 27 Z M 16 6.792969 " clip-rule="nonzero"/></clipPath><clipPath id="92a4f2e897"><path d="M 5.710938 26 L 46.570312 26 L 46.570312 42.453125 L 5.710938 42.453125 Z M 5.710938 26 " clip-rule="nonzero"/></clipPath></defs><g clip-path="url(#f11c8fa889)"><path fill="#138653" d="M 16.601562 18.410156 L 16.601562 21.039062 C 16.601562 21.414062 16.90625 21.71875 17.28125 21.71875 L 22.773438 21.71875 C 22.738281 22.023438 22.722656 22.339844 22.722656 22.652344 L 22.722656 25.375 C 22.722656 25.75 23.027344 26.054688 23.402344 26.054688 L 38.371094 26.054688 C 38.746094 26.054688 39.050781 25.75 39.050781 25.375 L 39.050781 22.652344 C 39.050781 22.339844 39.035156 22.023438 39 21.71875 L 44.492188 21.71875 C 44.867188 21.71875 45.171875 21.414062 45.171875 21.039062 L 45.171875 18.410156 C 45.171875 15.851562 43.507812 13.683594 41.203125 12.917969 C 41.847656 12.269531 42.238281 11.378906 42.238281 10.390625 C 42.238281 8.410156 40.625 6.792969 38.640625 6.792969 C 36.703125 6.792969 35.121094 8.332031 35.046875 10.246094 C 34.570312 8.265625 32.78125 6.792969 30.65625 6.792969 C 28.640625 6.792969 26.933594 8.113281 26.34375 9.941406 C 26.125 8.171875 24.609375 6.792969 22.78125 6.792969 C 20.800781 6.792969 19.183594 8.410156 19.183594 10.390625 C 19.183594 11.421875 19.621094 12.355469 20.324219 13.011719 C 18.148438 13.84375 16.601562 15.953125 16.601562 18.410156 Z M 43.8125 18.410156 L 43.8125 20.359375 L 38.71875 20.359375 C 38.113281 18.300781 36.71875 16.574219 34.882812 15.535156 C 35.71875 14.558594 36.941406 13.980469 38.25 13.980469 L 39.390625 13.980469 C 41.832031 13.988281 43.8125 15.96875 43.8125 18.410156 Z M 38.640625 8.15625 C 39.875 8.15625 40.878906 9.160156 40.878906 10.390625 C 40.878906 11.625 39.875 12.628906 38.640625 12.628906 C 37.410156 12.628906 36.40625 11.625 36.40625 10.390625 C 36.40625 9.160156 37.410156 8.15625 38.640625 8.15625 Z M 35.179688 11.359375 C 35.359375 12 35.707031 12.570312 36.183594 13.011719 C 35.171875 13.402344 34.28125 14.066406 33.617188 14.957031 C 33.558594 14.933594 33.496094 14.914062 33.4375 14.898438 C 34.484375 14.074219 35.171875 12.796875 35.179688 11.359375 Z M 30.65625 8.15625 C 32.398438 8.15625 33.828125 9.574219 33.828125 11.328125 C 33.828125 13.078125 32.410156 14.5 30.65625 14.5 C 28.90625 14.5 27.484375 13.070312 27.484375 11.328125 C 27.484375 9.582031 28.90625 8.15625 30.65625 8.15625 Z M 30.886719 15.851562 C 34.636719 15.851562 37.691406 18.902344 37.691406 22.652344 L 37.691406 24.695312 L 24.082031 24.695312 L 24.082031 22.652344 C 24.082031 18.902344 27.136719 15.851562 30.886719 15.851562 Z M 26.140625 11.660156 C 26.191406 12.363281 26.40625 13.027344 26.746094 13.605469 C 26.3125 13.308594 25.835938 13.078125 25.332031 12.917969 C 25.683594 12.558594 25.964844 12.132812 26.140625 11.660156 Z M 22.773438 8.15625 C 24.007812 8.15625 25.011719 9.160156 25.011719 10.390625 C 25.011719 11.625 24.007812 12.628906 22.773438 12.628906 C 21.542969 12.628906 20.539062 11.625 20.539062 10.390625 C 20.539062 9.160156 21.542969 8.15625 22.773438 8.15625 Z M 22.382812 13.988281 L 23.523438 13.988281 C 24.832031 13.988281 26.046875 14.558594 26.890625 15.542969 C 25.054688 16.582031 23.660156 18.308594 23.054688 20.367188 L 17.960938 20.367188 L 17.960938 18.417969 C 17.960938 15.96875 19.941406 13.988281 22.382812 13.988281 Z M 22.382812 13.988281 " fill-opacity="1" fill-rule="nonzero"/></g><g clip-path="url(#92a4f2e897)"><path fill="#138653" d="M 12.042969 26.523438 L 6.394531 26.523438 C 6.023438 26.523438 5.714844 26.828125 5.714844 27.203125 L 5.714844 39.789062 C 5.714844 40.164062 6.023438 40.46875 6.394531 40.46875 L 12.042969 40.46875 C 12.417969 40.46875 12.722656 40.164062 12.722656 39.789062 L 12.722656 38.710938 L 15.445312 38.710938 L 23.515625 41.269531 C 25.34375 41.949219 26.882812 42.28125 28.410156 42.28125 C 29.953125 42.28125 31.492188 41.941406 33.328125 41.261719 C 33.394531 41.234375 33.464844 41.199219 33.523438 41.148438 L 45.34375 31.507812 C 45.378906 31.472656 45.410156 31.4375 45.445312 31.402344 C 46.285156 30.359375 46.246094 28.757812 45.34375 27.765625 C 44.449219 26.769531 43.011719 26.667969 42.007812 27.535156 L 36.109375 32.304688 C 36.109375 32.246094 36.109375 32.1875 36.109375 32.128906 C 36.082031 30.707031 34.96875 29.542969 33.617188 29.542969 L 27.058594 29.542969 C 26.6875 29.542969 26.328125 29.320312 26.109375 28.957031 C 26.054688 28.878906 25.996094 28.8125 25.921875 28.75 C 23.140625 26.734375 19.628906 26.351562 16.539062 27.730469 L 15.402344 28.242188 L 12.722656 28.242188 L 12.722656 27.203125 C 12.722656 26.828125 12.425781 26.523438 12.042969 26.523438 Z M 9.117188 38.089844 C 8.742188 38.089844 8.4375 37.78125 8.4375 37.40625 C 8.4375 37.035156 8.742188 36.726562 9.117188 36.726562 C 9.492188 36.726562 9.796875 37.035156 9.796875 37.40625 C 9.796875 37.78125 9.492188 38.089844 9.117188 38.089844 Z M 11.363281 28.929688 L 11.363281 39.109375 L 10.246094 39.109375 C 10.792969 38.742188 11.15625 38.121094 11.15625 37.40625 C 11.15625 36.285156 10.238281 35.367188 9.117188 35.367188 C 7.996094 35.367188 7.074219 36.285156 7.074219 37.40625 C 7.074219 38.113281 7.441406 38.742188 7.984375 39.109375 L 7.074219 39.109375 L 7.074219 27.882812 L 11.363281 27.882812 Z M 15.554688 29.609375 C 15.648438 29.609375 15.742188 29.59375 15.828125 29.550781 L 17.101562 28.980469 C 19.703125 27.824219 22.65625 28.128906 25.027344 29.789062 C 25.503906 30.496094 26.253906 30.902344 27.070312 30.902344 L 33.625 30.902344 C 34.238281 30.902344 34.746094 31.464844 34.757812 32.144531 C 34.765625 32.527344 34.628906 32.882812 34.382812 33.128906 C 34.261719 33.25 34.117188 33.34375 33.972656 33.394531 C 33.777344 33.429688 33.582031 33.445312 33.386719 33.445312 L 26.089844 33.445312 C 25.714844 33.445312 25.410156 33.75 25.410156 34.125 C 25.410156 34.5 25.714844 34.804688 26.089844 34.804688 L 33.691406 34.804688 C 33.898438 34.804688 34.101562 34.78125 34.296875 34.730469 C 35.148438 34.574219 35.945312 34.203125 36.652344 33.640625 L 42.894531 28.589844 C 42.902344 28.582031 42.902344 28.582031 42.910156 28.574219 C 43.351562 28.191406 43.957031 28.242188 44.355469 28.675781 C 44.800781 29.160156 44.832031 29.96875 44.441406 30.503906 L 32.773438 40.027344 C 29.476562 41.234375 27.324219 41.21875 24 39.984375 C 23.988281 39.984375 23.980469 39.976562 23.964844 39.976562 L 15.785156 37.375 C 15.714844 37.355469 15.648438 37.339844 15.578125 37.339844 L 12.722656 37.339844 L 12.722656 29.601562 L 15.554688 29.601562 Z M 15.554688 29.609375 " fill-opacity="1" fill-rule="nonzero"/></g></svg>